<mxfile host="app.diagrams.net" modified="2021-10-16T08:48:17.881Z" agent="5.0 (X11)" etag="FWJih-vIVsqG4JuEXngw" version="15.2.9" type="github" pages="2">
  <diagram id="6TpaHzgP5nrxCuxTargu" name="Common">
    <mxGraphModel dx="2370" dy="1237" grid="1" gridSize="10" guides="1" tooltips="1" connect="1" arrows="1" fold="1" page="1" pageScale="1" pageWidth="3300" pageHeight="4681" math="0" shadow="0">
      <root>
        <mxCell id="0" />
        <mxCell id="1" parent="0" />
        <mxCell id="qc3atoFF0dB7BFC949ch-457" style="edgeStyle=none;rounded=0;jumpStyle=none;orthogonalLoop=1;jettySize=auto;html=1;exitX=0;exitY=0;exitDx=15;exitDy=0;endArrow=none;endFill=0;strokeColor=#99CCFF;strokeWidth=1;exitPerimeter=0;entryX=0.321;entryY=0.964;entryDx=0;entryDy=0;entryPerimeter=0;" parent="1" source="qc3atoFF0dB7BFC949ch-461" target="qc3atoFF0dB7BFC949ch-453" edge="1">
          <mxGeometry x="50.19999999999999" y="2503.8" as="geometry">
            <mxPoint x="141.96000000000004" y="2677.88" as="sourcePoint" />
            <mxPoint x="171.91999999999996" y="2624.56" as="targetPoint" />
          </mxGeometry>
        </mxCell>
        <mxCell id="qc3atoFF0dB7BFC949ch-458" style="edgeStyle=none;rounded=0;jumpStyle=none;orthogonalLoop=1;jettySize=auto;html=1;endArrow=none;endFill=0;strokeColor=#99CCFF;strokeWidth=1;entryX=0;entryY=0;entryDx=15;entryDy=0;entryPerimeter=0;exitX=0.682;exitY=0.971;exitDx=0;exitDy=0;exitPerimeter=0;" parent="1" source="qc3atoFF0dB7BFC949ch-453" target="qc3atoFF0dB7BFC949ch-459" edge="1">
          <mxGeometry x="104.16000000000008" y="2616.2" as="geometry">
            <mxPoint x="221.96000000000004" y="2687.6400000000003" as="targetPoint" />
            <mxPoint x="186.12" y="2624.7999999999997" as="sourcePoint" />
          </mxGeometry>
        </mxCell>
        <mxCell id="qc3atoFF0dB7BFC949ch-394" style="edgeStyle=none;rounded=0;jumpStyle=none;orthogonalLoop=1;jettySize=auto;html=1;exitX=0;exitY=0;exitDx=15;exitDy=0;endArrow=none;endFill=0;strokeColor=#99CCFF;strokeWidth=1;exitPerimeter=0;entryX=0.288;entryY=0.937;entryDx=0;entryDy=0;entryPerimeter=0;" parent="1" source="qc3atoFF0dB7BFC949ch-382" target="qc3atoFF0dB7BFC949ch-378" edge="1">
          <mxGeometry x="67.20000000000005" y="2053" as="geometry">
            <mxPoint x="158.96000000000004" y="2227.08" as="sourcePoint" />
            <mxPoint x="189.15999999999997" y="2173.2" as="targetPoint" />
          </mxGeometry>
        </mxCell>
        <mxCell id="qc3atoFF0dB7BFC949ch-263" style="edgeStyle=none;rounded=0;jumpStyle=none;orthogonalLoop=1;jettySize=auto;html=1;exitX=0;exitY=0;exitDx=15;exitDy=0;endArrow=none;endFill=0;strokeColor=#99CCFF;strokeWidth=1;exitPerimeter=0;entryX=0.277;entryY=0.954;entryDx=0;entryDy=0;entryPerimeter=0;" parent="1" source="qc3atoFF0dB7BFC949ch-261" target="qc3atoFF0dB7BFC949ch-180" edge="1">
          <mxGeometry x="66.19999999999999" y="1666.8" as="geometry">
            <mxPoint x="157.95999999999998" y="1840.8799999999999" as="sourcePoint" />
            <mxPoint x="188.16000000000008" y="1787.0000000000002" as="targetPoint" />
          </mxGeometry>
        </mxCell>
        <mxCell id="qc3atoFF0dB7BFC949ch-259" style="edgeStyle=none;rounded=0;jumpStyle=none;orthogonalLoop=1;jettySize=auto;html=1;exitX=0;exitY=0;exitDx=15;exitDy=0;endArrow=none;endFill=0;strokeColor=#99CCFF;strokeWidth=1;exitPerimeter=0;entryX=0.299;entryY=0.96;entryDx=0;entryDy=0;entryPerimeter=0;" parent="1" source="qc3atoFF0dB7BFC949ch-257" target="qc3atoFF0dB7BFC949ch-182" edge="1">
          <mxGeometry x="16.19999999999999" y="1577.8" as="geometry">
            <mxPoint x="107.95999999999998" y="1751.8799999999999" as="sourcePoint" />
            <mxPoint x="138.16000000000008" y="1698.0000000000002" as="targetPoint" />
          </mxGeometry>
        </mxCell>
        <mxCell id="qc3atoFF0dB7BFC949ch-250" style="edgeStyle=none;rounded=0;jumpStyle=none;orthogonalLoop=1;jettySize=auto;html=1;exitX=0;exitY=0;exitDx=15;exitDy=0;endArrow=none;endFill=0;strokeColor=#99CCFF;strokeWidth=1;exitPerimeter=0;entryX=0.323;entryY=0.964;entryDx=0;entryDy=0;entryPerimeter=0;" parent="1" source="qc3atoFF0dB7BFC949ch-254" target="qc3atoFF0dB7BFC949ch-178" edge="1">
          <mxGeometry x="123.19999999999999" y="1763.8" as="geometry">
            <mxPoint x="214.95999999999998" y="1937.8799999999999" as="sourcePoint" />
            <mxPoint x="245.16000000000008" y="1883.9999999999998" as="targetPoint" />
          </mxGeometry>
        </mxCell>
        <mxCell id="qc3atoFF0dB7BFC949ch-251" style="edgeStyle=none;rounded=0;jumpStyle=none;orthogonalLoop=1;jettySize=auto;html=1;endArrow=none;endFill=0;strokeColor=#99CCFF;strokeWidth=1;entryX=0;entryY=0;entryDx=15;entryDy=0;entryPerimeter=0;exitX=0.678;exitY=0.97;exitDx=0;exitDy=0;exitPerimeter=0;" parent="1" source="qc3atoFF0dB7BFC949ch-178" target="qc3atoFF0dB7BFC949ch-252" edge="1">
          <mxGeometry x="177.16000000000003" y="1876.2" as="geometry">
            <mxPoint x="294.96000000000004" y="1947.64" as="targetPoint" />
            <mxPoint x="259" y="1884.8" as="sourcePoint" />
          </mxGeometry>
        </mxCell>
        <mxCell id="qc3atoFF0dB7BFC949ch-248" style="edgeStyle=none;rounded=0;jumpStyle=none;orthogonalLoop=1;jettySize=auto;html=1;exitX=0;exitY=0;exitDx=15;exitDy=0;endArrow=none;endFill=0;strokeColor=#99CCFF;strokeWidth=1;exitPerimeter=0;entryX=0.286;entryY=0.935;entryDx=0;entryDy=0;entryPerimeter=0;" parent="1" source="qc3atoFF0dB7BFC949ch-246" target="qc3atoFF0dB7BFC949ch-236" edge="1">
          <mxGeometry x="761.2" y="1365" as="geometry">
            <mxPoint x="852.96" y="1539.08" as="sourcePoint" />
            <mxPoint x="883.1599999999999" y="1485.1999999999998" as="targetPoint" />
          </mxGeometry>
        </mxCell>
        <mxCell id="qc3atoFF0dB7BFC949ch-204" style="edgeStyle=none;rounded=0;jumpStyle=none;orthogonalLoop=1;jettySize=auto;html=1;endArrow=none;endFill=0;strokeColor=#99CCFF;strokeWidth=1;entryX=0;entryY=0;entryDx=15;entryDy=0;entryPerimeter=0;exitX=0.726;exitY=0.909;exitDx=0;exitDy=0;exitPerimeter=0;" parent="1" source="qc3atoFF0dB7BFC949ch-168" target="qc3atoFF0dB7BFC949ch-202" edge="1">
          <mxGeometry x="193.16000000000003" y="1349.4" as="geometry">
            <mxPoint x="310.96000000000004" y="1420.8400000000001" as="targetPoint" />
            <mxPoint x="274.9999999999998" y="1358" as="sourcePoint" />
          </mxGeometry>
        </mxCell>
        <mxCell id="qc3atoFF0dB7BFC949ch-200" style="edgeStyle=none;rounded=0;jumpStyle=none;orthogonalLoop=1;jettySize=auto;html=1;endArrow=none;endFill=0;strokeColor=#99CCFF;strokeWidth=1;entryX=0;entryY=0;entryDx=15;entryDy=0;entryPerimeter=0;exitX=0.689;exitY=0.97;exitDx=0;exitDy=0;exitPerimeter=0;" parent="1" source="qc3atoFF0dB7BFC949ch-170" target="qc3atoFF0dB7BFC949ch-198" edge="1">
          <mxGeometry x="141.16000000000003" y="1435.4" as="geometry">
            <mxPoint x="242" y="1474" as="targetPoint" />
            <mxPoint x="223" y="1444" as="sourcePoint" />
          </mxGeometry>
        </mxCell>
        <mxCell id="1Y4CLGfuSVdyvMHoktrW-13" value="" style="group" parent="1" vertex="1" connectable="0">
          <mxGeometry x="90" y="110" width="424" height="253" as="geometry" />
        </mxCell>
        <mxCell id="DF7dnALlfrQY_Nla23up-47" value="" style="ellipse;whiteSpace=wrap;html=1;aspect=fixed;fillColor=#d5e8d4;strokeColor=#82b366;" parent="1Y4CLGfuSVdyvMHoktrW-13" vertex="1">
          <mxGeometry x="192" width="40" height="40" as="geometry" />
        </mxCell>
        <mxCell id="1Y4CLGfuSVdyvMHoktrW-12" style="edgeStyle=none;rounded=0;jumpStyle=none;orthogonalLoop=1;jettySize=auto;html=1;exitX=0.5;exitY=0;exitDx=0;exitDy=0;entryX=1;entryY=1;entryDx=0;entryDy=0;endArrow=none;endFill=0;strokeColor=#99CCFF;strokeWidth=3;" parent="1Y4CLGfuSVdyvMHoktrW-13" source="DF7dnALlfrQY_Nla23up-46" target="DF7dnALlfrQY_Nla23up-47" edge="1">
          <mxGeometry relative="1" as="geometry" />
        </mxCell>
        <mxCell id="DF7dnALlfrQY_Nla23up-46" value="" style="ellipse;whiteSpace=wrap;html=1;aspect=fixed;fillColor=#d5e8d4;strokeColor=#82b366;" parent="1Y4CLGfuSVdyvMHoktrW-13" vertex="1">
          <mxGeometry x="302" y="83" width="40" height="40" as="geometry" />
        </mxCell>
        <mxCell id="1Y4CLGfuSVdyvMHoktrW-11" style="edgeStyle=none;rounded=0;jumpStyle=none;orthogonalLoop=1;jettySize=auto;html=1;exitX=0.5;exitY=0;exitDx=0;exitDy=0;entryX=0;entryY=1;entryDx=0;entryDy=0;endArrow=none;endFill=0;strokeColor=#99CCFF;strokeWidth=3;" parent="1Y4CLGfuSVdyvMHoktrW-13" source="DF7dnALlfrQY_Nla23up-48" target="DF7dnALlfrQY_Nla23up-47" edge="1">
          <mxGeometry relative="1" as="geometry" />
        </mxCell>
        <mxCell id="DF7dnALlfrQY_Nla23up-48" value="" style="ellipse;whiteSpace=wrap;html=1;aspect=fixed;fillColor=#d5e8d4;strokeColor=#82b366;" parent="1Y4CLGfuSVdyvMHoktrW-13" vertex="1">
          <mxGeometry x="82" y="83" width="40" height="40" as="geometry" />
        </mxCell>
        <mxCell id="1Y4CLGfuSVdyvMHoktrW-10" style="edgeStyle=none;rounded=0;jumpStyle=none;orthogonalLoop=1;jettySize=auto;html=1;exitX=0.5;exitY=0;exitDx=0;exitDy=0;entryX=0;entryY=1;entryDx=0;entryDy=0;endArrow=none;endFill=0;strokeColor=#99CCFF;strokeWidth=3;" parent="1Y4CLGfuSVdyvMHoktrW-13" source="DF7dnALlfrQY_Nla23up-45" target="DF7dnALlfrQY_Nla23up-48" edge="1">
          <mxGeometry relative="1" as="geometry" />
        </mxCell>
        <mxCell id="DF7dnALlfrQY_Nla23up-45" value="" style="ellipse;whiteSpace=wrap;html=1;aspect=fixed;fillColor=#d5e8d4;strokeColor=#82b366;" parent="1Y4CLGfuSVdyvMHoktrW-13" vertex="1">
          <mxGeometry x="27" y="153" width="40" height="40" as="geometry" />
        </mxCell>
        <mxCell id="DF7dnALlfrQY_Nla23up-109" style="rounded=0;orthogonalLoop=1;jettySize=auto;html=1;exitX=0.5;exitY=0;exitDx=0;exitDy=0;entryX=0;entryY=1;entryDx=0;entryDy=0;endArrow=none;endFill=0;jumpStyle=none;fillColor=#dae8fc;strokeWidth=3;strokeColor=#99CCFF;" parent="1Y4CLGfuSVdyvMHoktrW-13" source="DF7dnALlfrQY_Nla23up-42" target="DF7dnALlfrQY_Nla23up-45" edge="1">
          <mxGeometry y="153" as="geometry" />
        </mxCell>
        <mxCell id="1Y4CLGfuSVdyvMHoktrW-9" style="edgeStyle=none;rounded=0;jumpStyle=none;orthogonalLoop=1;jettySize=auto;html=1;exitX=0.5;exitY=0;exitDx=0;exitDy=0;entryX=1;entryY=1;entryDx=0;entryDy=0;endArrow=none;endFill=0;strokeColor=#99CCFF;strokeWidth=3;" parent="1Y4CLGfuSVdyvMHoktrW-13" source="DF7dnALlfrQY_Nla23up-64" target="DF7dnALlfrQY_Nla23up-48" edge="1">
          <mxGeometry relative="1" as="geometry" />
        </mxCell>
        <mxCell id="DF7dnALlfrQY_Nla23up-64" value="" style="ellipse;whiteSpace=wrap;html=1;aspect=fixed;fillColor=#d5e8d4;strokeColor=#82b366;" parent="1Y4CLGfuSVdyvMHoktrW-13" vertex="1">
          <mxGeometry x="137" y="153" width="40" height="40" as="geometry" />
        </mxCell>
        <mxCell id="1Y4CLGfuSVdyvMHoktrW-7" style="edgeStyle=none;rounded=0;jumpStyle=none;orthogonalLoop=1;jettySize=auto;html=1;exitX=0.5;exitY=0;exitDx=0;exitDy=0;entryX=1;entryY=1;entryDx=0;entryDy=0;endArrow=none;endFill=0;strokeColor=#99CCFF;strokeWidth=3;" parent="1Y4CLGfuSVdyvMHoktrW-13" source="DF7dnALlfrQY_Nla23up-101" target="DF7dnALlfrQY_Nla23up-46" edge="1">
          <mxGeometry relative="1" as="geometry" />
        </mxCell>
        <mxCell id="DF7dnALlfrQY_Nla23up-101" value="" style="ellipse;whiteSpace=wrap;html=1;aspect=fixed;fillColor=#d5e8d4;strokeColor=#82b366;" parent="1Y4CLGfuSVdyvMHoktrW-13" vertex="1">
          <mxGeometry x="357" y="153" width="40" height="40" as="geometry" />
        </mxCell>
        <mxCell id="1Y4CLGfuSVdyvMHoktrW-8" style="edgeStyle=none;rounded=0;jumpStyle=none;orthogonalLoop=1;jettySize=auto;html=1;exitX=0.5;exitY=0;exitDx=0;exitDy=0;entryX=0;entryY=1;entryDx=0;entryDy=0;endArrow=none;endFill=0;strokeColor=#99CCFF;strokeWidth=3;" parent="1Y4CLGfuSVdyvMHoktrW-13" source="DF7dnALlfrQY_Nla23up-69" target="DF7dnALlfrQY_Nla23up-46" edge="1">
          <mxGeometry relative="1" as="geometry" />
        </mxCell>
        <mxCell id="DF7dnALlfrQY_Nla23up-69" value="" style="ellipse;whiteSpace=wrap;html=1;aspect=fixed;fillColor=#d5e8d4;strokeColor=#82b366;" parent="1Y4CLGfuSVdyvMHoktrW-13" vertex="1">
          <mxGeometry x="247" y="153" width="40" height="40" as="geometry" />
        </mxCell>
        <mxCell id="DF7dnALlfrQY_Nla23up-70" value="" style="group" parent="1Y4CLGfuSVdyvMHoktrW-13" vertex="1" connectable="0">
          <mxGeometry x="220" y="213" width="94" height="40" as="geometry" />
        </mxCell>
        <mxCell id="DF7dnALlfrQY_Nla23up-71" value="" style="ellipse;whiteSpace=wrap;html=1;aspect=fixed;fillColor=#d5e8d4;strokeColor=#82b366;" parent="DF7dnALlfrQY_Nla23up-70" vertex="1">
          <mxGeometry x="54" width="40" height="40" as="geometry" />
        </mxCell>
        <mxCell id="DF7dnALlfrQY_Nla23up-72" value="" style="ellipse;whiteSpace=wrap;html=1;aspect=fixed;fillColor=#d5e8d4;strokeColor=#82b366;" parent="DF7dnALlfrQY_Nla23up-70" vertex="1">
          <mxGeometry width="40" height="40" as="geometry" />
        </mxCell>
        <mxCell id="6ZMeeMUY5YUnnXwLF3Km-1" style="edgeStyle=none;rounded=0;jumpStyle=none;orthogonalLoop=1;jettySize=auto;html=1;exitX=0.5;exitY=0;exitDx=0;exitDy=0;entryX=1;entryY=1;entryDx=0;entryDy=0;endArrow=none;endFill=0;strokeColor=#99CCFF;strokeWidth=3;" parent="1Y4CLGfuSVdyvMHoktrW-13" source="DF7dnALlfrQY_Nla23up-41" target="DF7dnALlfrQY_Nla23up-45" edge="1">
          <mxGeometry relative="1" as="geometry" />
        </mxCell>
        <mxCell id="DF7dnALlfrQY_Nla23up-41" value="" style="ellipse;whiteSpace=wrap;html=1;aspect=fixed;fillColor=#d5e8d4;strokeColor=#82b366;" parent="1Y4CLGfuSVdyvMHoktrW-13" vertex="1">
          <mxGeometry x="54" y="213" width="40" height="40" as="geometry" />
        </mxCell>
        <mxCell id="DF7dnALlfrQY_Nla23up-42" value="" style="ellipse;whiteSpace=wrap;html=1;aspect=fixed;fillColor=#d5e8d4;strokeColor=#82b366;" parent="1Y4CLGfuSVdyvMHoktrW-13" vertex="1">
          <mxGeometry y="213" width="40" height="40" as="geometry" />
        </mxCell>
        <mxCell id="1Y4CLGfuSVdyvMHoktrW-2" style="edgeStyle=none;rounded=0;jumpStyle=none;orthogonalLoop=1;jettySize=auto;html=1;exitX=0.5;exitY=0;exitDx=0;exitDy=0;entryX=1;entryY=1;entryDx=0;entryDy=0;endArrow=none;endFill=0;strokeColor=#99CCFF;strokeWidth=3;" parent="1Y4CLGfuSVdyvMHoktrW-13" source="DF7dnALlfrQY_Nla23up-66" target="DF7dnALlfrQY_Nla23up-64" edge="1">
          <mxGeometry relative="1" as="geometry" />
        </mxCell>
        <mxCell id="DF7dnALlfrQY_Nla23up-66" value="" style="ellipse;whiteSpace=wrap;html=1;aspect=fixed;fillColor=#d5e8d4;strokeColor=#82b366;" parent="1Y4CLGfuSVdyvMHoktrW-13" vertex="1">
          <mxGeometry x="164" y="213" width="40" height="40" as="geometry" />
        </mxCell>
        <mxCell id="1Y4CLGfuSVdyvMHoktrW-1" style="edgeStyle=none;rounded=0;jumpStyle=none;orthogonalLoop=1;jettySize=auto;html=1;exitX=0.5;exitY=0;exitDx=0;exitDy=0;entryX=0;entryY=1;entryDx=0;entryDy=0;endArrow=none;endFill=0;strokeColor=#99CCFF;strokeWidth=3;" parent="1Y4CLGfuSVdyvMHoktrW-13" source="DF7dnALlfrQY_Nla23up-67" target="DF7dnALlfrQY_Nla23up-64" edge="1">
          <mxGeometry relative="1" as="geometry" />
        </mxCell>
        <mxCell id="DF7dnALlfrQY_Nla23up-67" value="" style="ellipse;whiteSpace=wrap;html=1;aspect=fixed;fillColor=#d5e8d4;strokeColor=#82b366;" parent="1Y4CLGfuSVdyvMHoktrW-13" vertex="1">
          <mxGeometry x="110" y="213" width="40" height="40" as="geometry" />
        </mxCell>
        <mxCell id="1Y4CLGfuSVdyvMHoktrW-6" style="edgeStyle=none;rounded=0;jumpStyle=none;orthogonalLoop=1;jettySize=auto;html=1;exitX=0.5;exitY=0;exitDx=0;exitDy=0;entryX=1;entryY=1;entryDx=0;entryDy=0;endArrow=none;endFill=0;strokeColor=#99CCFF;strokeWidth=3;" parent="1Y4CLGfuSVdyvMHoktrW-13" source="DF7dnALlfrQY_Nla23up-103" target="DF7dnALlfrQY_Nla23up-101" edge="1">
          <mxGeometry relative="1" as="geometry" />
        </mxCell>
        <mxCell id="DF7dnALlfrQY_Nla23up-103" value="" style="ellipse;whiteSpace=wrap;html=1;aspect=fixed;fillColor=#d5e8d4;strokeColor=#82b366;" parent="1Y4CLGfuSVdyvMHoktrW-13" vertex="1">
          <mxGeometry x="384" y="213" width="40" height="40" as="geometry" />
        </mxCell>
        <mxCell id="1Y4CLGfuSVdyvMHoktrW-5" style="edgeStyle=none;rounded=0;jumpStyle=none;orthogonalLoop=1;jettySize=auto;html=1;exitX=0.5;exitY=0;exitDx=0;exitDy=0;entryX=0;entryY=1;entryDx=0;entryDy=0;endArrow=none;endFill=0;strokeColor=#99CCFF;strokeWidth=3;" parent="1Y4CLGfuSVdyvMHoktrW-13" source="DF7dnALlfrQY_Nla23up-104" target="DF7dnALlfrQY_Nla23up-101" edge="1">
          <mxGeometry relative="1" as="geometry" />
        </mxCell>
        <mxCell id="DF7dnALlfrQY_Nla23up-104" value="" style="ellipse;whiteSpace=wrap;html=1;aspect=fixed;fillColor=#d5e8d4;strokeColor=#82b366;" parent="1Y4CLGfuSVdyvMHoktrW-13" vertex="1">
          <mxGeometry x="330" y="213" width="40" height="40" as="geometry" />
        </mxCell>
        <mxCell id="1Y4CLGfuSVdyvMHoktrW-3" style="edgeStyle=none;rounded=0;jumpStyle=none;orthogonalLoop=1;jettySize=auto;html=1;exitX=0.5;exitY=0;exitDx=0;exitDy=0;entryX=0;entryY=1;entryDx=0;entryDy=0;endArrow=none;endFill=0;strokeColor=#99CCFF;strokeWidth=3;" parent="1Y4CLGfuSVdyvMHoktrW-13" source="DF7dnALlfrQY_Nla23up-72" target="DF7dnALlfrQY_Nla23up-69" edge="1">
          <mxGeometry relative="1" as="geometry" />
        </mxCell>
        <mxCell id="1Y4CLGfuSVdyvMHoktrW-4" style="edgeStyle=none;rounded=0;jumpStyle=none;orthogonalLoop=1;jettySize=auto;html=1;exitX=0.5;exitY=0;exitDx=0;exitDy=0;entryX=1;entryY=1;entryDx=0;entryDy=0;endArrow=none;endFill=0;strokeColor=#99CCFF;strokeWidth=3;" parent="1Y4CLGfuSVdyvMHoktrW-13" source="DF7dnALlfrQY_Nla23up-71" target="DF7dnALlfrQY_Nla23up-69" edge="1">
          <mxGeometry relative="1" as="geometry" />
        </mxCell>
        <mxCell id="1Y4CLGfuSVdyvMHoktrW-14" value="" style="group" parent="1" vertex="1" connectable="0">
          <mxGeometry x="90" y="500" width="424" height="253" as="geometry" />
        </mxCell>
        <mxCell id="1Y4CLGfuSVdyvMHoktrW-15" value="" style="ellipse;whiteSpace=wrap;html=1;aspect=fixed;fillColor=#d5e8d4;strokeColor=#82b366;" parent="1Y4CLGfuSVdyvMHoktrW-14" vertex="1">
          <mxGeometry x="192" width="40" height="40" as="geometry" />
        </mxCell>
        <mxCell id="1Y4CLGfuSVdyvMHoktrW-16" style="edgeStyle=none;rounded=0;jumpStyle=none;orthogonalLoop=1;jettySize=auto;html=1;exitX=0.5;exitY=0;exitDx=0;exitDy=0;entryX=1;entryY=1;entryDx=0;entryDy=0;endArrow=none;endFill=0;strokeColor=#99CCFF;strokeWidth=3;" parent="1Y4CLGfuSVdyvMHoktrW-14" source="1Y4CLGfuSVdyvMHoktrW-17" target="1Y4CLGfuSVdyvMHoktrW-15" edge="1">
          <mxGeometry relative="1" as="geometry" />
        </mxCell>
        <mxCell id="1Y4CLGfuSVdyvMHoktrW-17" value="" style="ellipse;whiteSpace=wrap;html=1;aspect=fixed;fillColor=#d5e8d4;strokeColor=#82b366;" parent="1Y4CLGfuSVdyvMHoktrW-14" vertex="1">
          <mxGeometry x="302" y="83" width="40" height="40" as="geometry" />
        </mxCell>
        <mxCell id="1Y4CLGfuSVdyvMHoktrW-18" style="edgeStyle=none;rounded=0;jumpStyle=none;orthogonalLoop=1;jettySize=auto;html=1;exitX=0.5;exitY=0;exitDx=0;exitDy=0;entryX=0;entryY=1;entryDx=0;entryDy=0;endArrow=none;endFill=0;strokeColor=#99CCFF;strokeWidth=3;" parent="1Y4CLGfuSVdyvMHoktrW-14" source="1Y4CLGfuSVdyvMHoktrW-19" target="1Y4CLGfuSVdyvMHoktrW-15" edge="1">
          <mxGeometry relative="1" as="geometry" />
        </mxCell>
        <mxCell id="1Y4CLGfuSVdyvMHoktrW-19" value="" style="ellipse;whiteSpace=wrap;html=1;aspect=fixed;fillColor=#d5e8d4;strokeColor=#82b366;" parent="1Y4CLGfuSVdyvMHoktrW-14" vertex="1">
          <mxGeometry x="82" y="83" width="40" height="40" as="geometry" />
        </mxCell>
        <mxCell id="1Y4CLGfuSVdyvMHoktrW-20" style="edgeStyle=none;rounded=0;jumpStyle=none;orthogonalLoop=1;jettySize=auto;html=1;exitX=0.5;exitY=0;exitDx=0;exitDy=0;entryX=0;entryY=1;entryDx=0;entryDy=0;endArrow=none;endFill=0;strokeColor=#99CCFF;strokeWidth=3;" parent="1Y4CLGfuSVdyvMHoktrW-14" source="1Y4CLGfuSVdyvMHoktrW-21" target="1Y4CLGfuSVdyvMHoktrW-19" edge="1">
          <mxGeometry relative="1" as="geometry" />
        </mxCell>
        <mxCell id="1Y4CLGfuSVdyvMHoktrW-21" value="" style="ellipse;whiteSpace=wrap;html=1;aspect=fixed;fillColor=#d5e8d4;strokeColor=#82b366;" parent="1Y4CLGfuSVdyvMHoktrW-14" vertex="1">
          <mxGeometry x="27" y="153" width="40" height="40" as="geometry" />
        </mxCell>
        <mxCell id="1Y4CLGfuSVdyvMHoktrW-22" style="rounded=0;orthogonalLoop=1;jettySize=auto;html=1;exitX=0.5;exitY=0;exitDx=0;exitDy=0;entryX=0;entryY=1;entryDx=0;entryDy=0;endArrow=none;endFill=0;jumpStyle=none;fillColor=#dae8fc;strokeWidth=3;strokeColor=#99CCFF;" parent="1Y4CLGfuSVdyvMHoktrW-14" source="1Y4CLGfuSVdyvMHoktrW-34" target="1Y4CLGfuSVdyvMHoktrW-21" edge="1">
          <mxGeometry y="153" as="geometry" />
        </mxCell>
        <mxCell id="1Y4CLGfuSVdyvMHoktrW-23" style="edgeStyle=none;rounded=0;jumpStyle=none;orthogonalLoop=1;jettySize=auto;html=1;exitX=0.5;exitY=0;exitDx=0;exitDy=0;entryX=1;entryY=1;entryDx=0;entryDy=0;endArrow=none;endFill=0;strokeColor=#99CCFF;strokeWidth=3;" parent="1Y4CLGfuSVdyvMHoktrW-14" source="1Y4CLGfuSVdyvMHoktrW-24" target="1Y4CLGfuSVdyvMHoktrW-19" edge="1">
          <mxGeometry relative="1" as="geometry" />
        </mxCell>
        <mxCell id="1Y4CLGfuSVdyvMHoktrW-24" value="" style="ellipse;whiteSpace=wrap;html=1;aspect=fixed;fillColor=#d5e8d4;strokeColor=#82b366;" parent="1Y4CLGfuSVdyvMHoktrW-14" vertex="1">
          <mxGeometry x="137" y="153" width="40" height="40" as="geometry" />
        </mxCell>
        <mxCell id="1Y4CLGfuSVdyvMHoktrW-25" style="edgeStyle=none;rounded=0;jumpStyle=none;orthogonalLoop=1;jettySize=auto;html=1;exitX=0.5;exitY=0;exitDx=0;exitDy=0;entryX=1;entryY=1;entryDx=0;entryDy=0;endArrow=none;endFill=0;strokeColor=#99CCFF;strokeWidth=3;" parent="1Y4CLGfuSVdyvMHoktrW-14" source="1Y4CLGfuSVdyvMHoktrW-26" target="1Y4CLGfuSVdyvMHoktrW-17" edge="1">
          <mxGeometry relative="1" as="geometry" />
        </mxCell>
        <mxCell id="1Y4CLGfuSVdyvMHoktrW-26" value="" style="ellipse;whiteSpace=wrap;html=1;aspect=fixed;fillColor=#d5e8d4;strokeColor=#82b366;" parent="1Y4CLGfuSVdyvMHoktrW-14" vertex="1">
          <mxGeometry x="357" y="153" width="40" height="40" as="geometry" />
        </mxCell>
        <mxCell id="1Y4CLGfuSVdyvMHoktrW-27" style="edgeStyle=none;rounded=0;jumpStyle=none;orthogonalLoop=1;jettySize=auto;html=1;exitX=0.5;exitY=0;exitDx=0;exitDy=0;entryX=0;entryY=1;entryDx=0;entryDy=0;endArrow=none;endFill=0;strokeColor=#99CCFF;strokeWidth=3;" parent="1Y4CLGfuSVdyvMHoktrW-14" source="1Y4CLGfuSVdyvMHoktrW-28" target="1Y4CLGfuSVdyvMHoktrW-17" edge="1">
          <mxGeometry relative="1" as="geometry" />
        </mxCell>
        <mxCell id="1Y4CLGfuSVdyvMHoktrW-28" value="" style="ellipse;whiteSpace=wrap;html=1;aspect=fixed;fillColor=#d5e8d4;strokeColor=#82b366;" parent="1Y4CLGfuSVdyvMHoktrW-14" vertex="1">
          <mxGeometry x="247" y="153" width="40" height="40" as="geometry" />
        </mxCell>
        <mxCell id="1Y4CLGfuSVdyvMHoktrW-29" value="" style="group" parent="1Y4CLGfuSVdyvMHoktrW-14" vertex="1" connectable="0">
          <mxGeometry x="220" y="213" width="94" height="40" as="geometry" />
        </mxCell>
        <mxCell id="1Y4CLGfuSVdyvMHoktrW-31" value="" style="ellipse;whiteSpace=wrap;html=1;aspect=fixed;fillColor=#d5e8d4;strokeColor=#82b366;" parent="1Y4CLGfuSVdyvMHoktrW-29" vertex="1">
          <mxGeometry width="40" height="40" as="geometry" />
        </mxCell>
        <mxCell id="1Y4CLGfuSVdyvMHoktrW-32" style="edgeStyle=none;rounded=0;jumpStyle=none;orthogonalLoop=1;jettySize=auto;html=1;exitX=0.5;exitY=0;exitDx=0;exitDy=0;entryX=1;entryY=1;entryDx=0;entryDy=0;endArrow=none;endFill=0;strokeColor=#99CCFF;strokeWidth=3;" parent="1Y4CLGfuSVdyvMHoktrW-14" source="1Y4CLGfuSVdyvMHoktrW-33" target="1Y4CLGfuSVdyvMHoktrW-21" edge="1">
          <mxGeometry relative="1" as="geometry" />
        </mxCell>
        <mxCell id="1Y4CLGfuSVdyvMHoktrW-33" value="" style="ellipse;whiteSpace=wrap;html=1;aspect=fixed;fillColor=#d5e8d4;strokeColor=#82b366;" parent="1Y4CLGfuSVdyvMHoktrW-14" vertex="1">
          <mxGeometry x="54" y="213" width="40" height="40" as="geometry" />
        </mxCell>
        <mxCell id="1Y4CLGfuSVdyvMHoktrW-34" value="" style="ellipse;whiteSpace=wrap;html=1;aspect=fixed;fillColor=#d5e8d4;strokeColor=#82b366;" parent="1Y4CLGfuSVdyvMHoktrW-14" vertex="1">
          <mxGeometry y="213" width="40" height="40" as="geometry" />
        </mxCell>
        <mxCell id="1Y4CLGfuSVdyvMHoktrW-35" style="edgeStyle=none;rounded=0;jumpStyle=none;orthogonalLoop=1;jettySize=auto;html=1;exitX=0.5;exitY=0;exitDx=0;exitDy=0;entryX=1;entryY=1;entryDx=0;entryDy=0;endArrow=none;endFill=0;strokeColor=#99CCFF;strokeWidth=3;" parent="1Y4CLGfuSVdyvMHoktrW-14" source="1Y4CLGfuSVdyvMHoktrW-36" target="1Y4CLGfuSVdyvMHoktrW-24" edge="1">
          <mxGeometry relative="1" as="geometry" />
        </mxCell>
        <mxCell id="1Y4CLGfuSVdyvMHoktrW-36" value="" style="ellipse;whiteSpace=wrap;html=1;aspect=fixed;fillColor=#d5e8d4;strokeColor=#82b366;" parent="1Y4CLGfuSVdyvMHoktrW-14" vertex="1">
          <mxGeometry x="164" y="213" width="40" height="40" as="geometry" />
        </mxCell>
        <mxCell id="1Y4CLGfuSVdyvMHoktrW-37" style="edgeStyle=none;rounded=0;jumpStyle=none;orthogonalLoop=1;jettySize=auto;html=1;exitX=0.5;exitY=0;exitDx=0;exitDy=0;entryX=0;entryY=1;entryDx=0;entryDy=0;endArrow=none;endFill=0;strokeColor=#99CCFF;strokeWidth=3;" parent="1Y4CLGfuSVdyvMHoktrW-14" source="1Y4CLGfuSVdyvMHoktrW-38" target="1Y4CLGfuSVdyvMHoktrW-24" edge="1">
          <mxGeometry relative="1" as="geometry" />
        </mxCell>
        <mxCell id="1Y4CLGfuSVdyvMHoktrW-38" value="" style="ellipse;whiteSpace=wrap;html=1;aspect=fixed;fillColor=#d5e8d4;strokeColor=#82b366;" parent="1Y4CLGfuSVdyvMHoktrW-14" vertex="1">
          <mxGeometry x="110" y="213" width="40" height="40" as="geometry" />
        </mxCell>
        <mxCell id="1Y4CLGfuSVdyvMHoktrW-43" style="edgeStyle=none;rounded=0;jumpStyle=none;orthogonalLoop=1;jettySize=auto;html=1;exitX=0.5;exitY=0;exitDx=0;exitDy=0;entryX=0;entryY=1;entryDx=0;entryDy=0;endArrow=none;endFill=0;strokeColor=#99CCFF;strokeWidth=3;" parent="1Y4CLGfuSVdyvMHoktrW-14" source="1Y4CLGfuSVdyvMHoktrW-31" target="1Y4CLGfuSVdyvMHoktrW-28" edge="1">
          <mxGeometry relative="1" as="geometry" />
        </mxCell>
        <mxCell id="1Y4CLGfuSVdyvMHoktrW-47" value="&lt;font style=&quot;font-size: 18px&quot;&gt;满二叉树&lt;br&gt;Full Binary Tree&lt;/font&gt;" style="text;html=1;strokeColor=none;fillColor=none;align=center;verticalAlign=middle;whiteSpace=wrap;rounded=0;" parent="1" vertex="1">
          <mxGeometry x="227" y="380" width="150" height="60" as="geometry" />
        </mxCell>
        <mxCell id="1Y4CLGfuSVdyvMHoktrW-48" value="&lt;font style=&quot;font-size: 18px&quot;&gt;完全二叉树&lt;br&gt;Complete Binary Tree&lt;/font&gt;" style="text;html=1;strokeColor=none;fillColor=none;align=center;verticalAlign=middle;whiteSpace=wrap;rounded=0;" parent="1" vertex="1">
          <mxGeometry x="190.5" y="770" width="223" height="50" as="geometry" />
        </mxCell>
        <mxCell id="1Y4CLGfuSVdyvMHoktrW-111" value="&lt;font style=&quot;font-size: 18px&quot;&gt;满但非完全二叉树&lt;br&gt;Full But Not Complete Tree&lt;/font&gt;" style="text;html=1;strokeColor=none;fillColor=none;align=center;verticalAlign=middle;whiteSpace=wrap;rounded=0;" parent="1" vertex="1">
          <mxGeometry x="740" y="380" width="248" height="60" as="geometry" />
        </mxCell>
        <mxCell id="1Y4CLGfuSVdyvMHoktrW-112" value="" style="group" parent="1" vertex="1" connectable="0">
          <mxGeometry x="657" y="110" width="315" height="253" as="geometry" />
        </mxCell>
        <mxCell id="1Y4CLGfuSVdyvMHoktrW-50" value="" style="ellipse;whiteSpace=wrap;html=1;aspect=fixed;fillColor=#d5e8d4;strokeColor=#82b366;" parent="1Y4CLGfuSVdyvMHoktrW-112" vertex="1">
          <mxGeometry x="165" width="40" height="40" as="geometry" />
        </mxCell>
        <mxCell id="1Y4CLGfuSVdyvMHoktrW-51" style="edgeStyle=none;rounded=0;jumpStyle=none;orthogonalLoop=1;jettySize=auto;html=1;exitX=0.5;exitY=0;exitDx=0;exitDy=0;entryX=1;entryY=1;entryDx=0;entryDy=0;endArrow=none;endFill=0;strokeColor=#99CCFF;strokeWidth=3;" parent="1Y4CLGfuSVdyvMHoktrW-112" source="1Y4CLGfuSVdyvMHoktrW-52" target="1Y4CLGfuSVdyvMHoktrW-50" edge="1">
          <mxGeometry x="-27" as="geometry" />
        </mxCell>
        <mxCell id="1Y4CLGfuSVdyvMHoktrW-52" value="" style="ellipse;whiteSpace=wrap;html=1;aspect=fixed;fillColor=#d5e8d4;strokeColor=#82b366;" parent="1Y4CLGfuSVdyvMHoktrW-112" vertex="1">
          <mxGeometry x="275" y="83" width="40" height="40" as="geometry" />
        </mxCell>
        <mxCell id="1Y4CLGfuSVdyvMHoktrW-53" style="edgeStyle=none;rounded=0;jumpStyle=none;orthogonalLoop=1;jettySize=auto;html=1;exitX=0.5;exitY=0;exitDx=0;exitDy=0;entryX=0;entryY=1;entryDx=0;entryDy=0;endArrow=none;endFill=0;strokeColor=#99CCFF;strokeWidth=3;" parent="1Y4CLGfuSVdyvMHoktrW-112" source="1Y4CLGfuSVdyvMHoktrW-54" target="1Y4CLGfuSVdyvMHoktrW-50" edge="1">
          <mxGeometry x="-27" as="geometry" />
        </mxCell>
        <mxCell id="1Y4CLGfuSVdyvMHoktrW-54" value="" style="ellipse;whiteSpace=wrap;html=1;aspect=fixed;fillColor=#d5e8d4;strokeColor=#82b366;" parent="1Y4CLGfuSVdyvMHoktrW-112" vertex="1">
          <mxGeometry x="55" y="83" width="40" height="40" as="geometry" />
        </mxCell>
        <mxCell id="1Y4CLGfuSVdyvMHoktrW-55" style="edgeStyle=none;rounded=0;jumpStyle=none;orthogonalLoop=1;jettySize=auto;html=1;exitX=0.5;exitY=0;exitDx=0;exitDy=0;entryX=0;entryY=1;entryDx=0;entryDy=0;endArrow=none;endFill=0;strokeColor=#99CCFF;strokeWidth=3;" parent="1Y4CLGfuSVdyvMHoktrW-112" source="1Y4CLGfuSVdyvMHoktrW-56" target="1Y4CLGfuSVdyvMHoktrW-54" edge="1">
          <mxGeometry x="-27" as="geometry" />
        </mxCell>
        <mxCell id="1Y4CLGfuSVdyvMHoktrW-56" value="" style="ellipse;whiteSpace=wrap;html=1;aspect=fixed;fillColor=#d5e8d4;strokeColor=#82b366;" parent="1Y4CLGfuSVdyvMHoktrW-112" vertex="1">
          <mxGeometry y="153" width="40" height="40" as="geometry" />
        </mxCell>
        <mxCell id="1Y4CLGfuSVdyvMHoktrW-58" style="edgeStyle=none;rounded=0;jumpStyle=none;orthogonalLoop=1;jettySize=auto;html=1;exitX=0.5;exitY=0;exitDx=0;exitDy=0;entryX=1;entryY=1;entryDx=0;entryDy=0;endArrow=none;endFill=0;strokeColor=#99CCFF;strokeWidth=3;" parent="1Y4CLGfuSVdyvMHoktrW-112" source="1Y4CLGfuSVdyvMHoktrW-59" target="1Y4CLGfuSVdyvMHoktrW-54" edge="1">
          <mxGeometry x="-27" as="geometry" />
        </mxCell>
        <mxCell id="1Y4CLGfuSVdyvMHoktrW-59" value="" style="ellipse;whiteSpace=wrap;html=1;aspect=fixed;fillColor=#d5e8d4;strokeColor=#82b366;" parent="1Y4CLGfuSVdyvMHoktrW-112" vertex="1">
          <mxGeometry x="110" y="153" width="40" height="40" as="geometry" />
        </mxCell>
        <mxCell id="1Y4CLGfuSVdyvMHoktrW-70" style="edgeStyle=none;rounded=0;jumpStyle=none;orthogonalLoop=1;jettySize=auto;html=1;exitX=0.5;exitY=0;exitDx=0;exitDy=0;entryX=1;entryY=1;entryDx=0;entryDy=0;endArrow=none;endFill=0;strokeColor=#99CCFF;strokeWidth=3;" parent="1Y4CLGfuSVdyvMHoktrW-112" source="1Y4CLGfuSVdyvMHoktrW-71" target="1Y4CLGfuSVdyvMHoktrW-59" edge="1">
          <mxGeometry x="-27" as="geometry" />
        </mxCell>
        <mxCell id="1Y4CLGfuSVdyvMHoktrW-71" value="" style="ellipse;whiteSpace=wrap;html=1;aspect=fixed;fillColor=#d5e8d4;strokeColor=#82b366;" parent="1Y4CLGfuSVdyvMHoktrW-112" vertex="1">
          <mxGeometry x="137" y="213" width="40" height="40" as="geometry" />
        </mxCell>
        <mxCell id="1Y4CLGfuSVdyvMHoktrW-72" style="edgeStyle=none;rounded=0;jumpStyle=none;orthogonalLoop=1;jettySize=auto;html=1;exitX=0.5;exitY=0;exitDx=0;exitDy=0;entryX=0;entryY=1;entryDx=0;entryDy=0;endArrow=none;endFill=0;strokeColor=#99CCFF;strokeWidth=3;" parent="1Y4CLGfuSVdyvMHoktrW-112" source="1Y4CLGfuSVdyvMHoktrW-73" target="1Y4CLGfuSVdyvMHoktrW-59" edge="1">
          <mxGeometry x="-27" as="geometry" />
        </mxCell>
        <mxCell id="1Y4CLGfuSVdyvMHoktrW-73" value="" style="ellipse;whiteSpace=wrap;html=1;aspect=fixed;fillColor=#d5e8d4;strokeColor=#82b366;" parent="1Y4CLGfuSVdyvMHoktrW-112" vertex="1">
          <mxGeometry x="83" y="213" width="40" height="40" as="geometry" />
        </mxCell>
        <mxCell id="1Y4CLGfuSVdyvMHoktrW-113" value="&lt;font style=&quot;font-size: 18px&quot;&gt;完全但非满二叉树&lt;br&gt;Complete But Not Full Tree&lt;/font&gt;" style="text;html=1;strokeColor=none;fillColor=none;align=center;verticalAlign=middle;whiteSpace=wrap;rounded=0;" parent="1" vertex="1">
          <mxGeometry x="718" y="770" width="248" height="60" as="geometry" />
        </mxCell>
        <mxCell id="1Y4CLGfuSVdyvMHoktrW-81" value="" style="ellipse;whiteSpace=wrap;html=1;aspect=fixed;fillColor=#d5e8d4;strokeColor=#82b366;" parent="1" vertex="1">
          <mxGeometry x="822" y="500" width="40" height="40" as="geometry" />
        </mxCell>
        <mxCell id="1Y4CLGfuSVdyvMHoktrW-82" style="edgeStyle=none;rounded=0;jumpStyle=none;orthogonalLoop=1;jettySize=auto;html=1;exitX=0.5;exitY=0;exitDx=0;exitDy=0;entryX=1;entryY=1;entryDx=0;entryDy=0;endArrow=none;endFill=0;strokeColor=#99CCFF;strokeWidth=3;" parent="1" source="1Y4CLGfuSVdyvMHoktrW-83" target="1Y4CLGfuSVdyvMHoktrW-81" edge="1">
          <mxGeometry x="630" y="500" as="geometry" />
        </mxCell>
        <mxCell id="1Y4CLGfuSVdyvMHoktrW-83" value="" style="ellipse;whiteSpace=wrap;html=1;aspect=fixed;fillColor=#d5e8d4;strokeColor=#82b366;" parent="1" vertex="1">
          <mxGeometry x="932" y="583" width="40" height="40" as="geometry" />
        </mxCell>
        <mxCell id="1Y4CLGfuSVdyvMHoktrW-84" style="edgeStyle=none;rounded=0;jumpStyle=none;orthogonalLoop=1;jettySize=auto;html=1;exitX=0.5;exitY=0;exitDx=0;exitDy=0;entryX=0;entryY=1;entryDx=0;entryDy=0;endArrow=none;endFill=0;strokeColor=#99CCFF;strokeWidth=3;" parent="1" source="1Y4CLGfuSVdyvMHoktrW-85" target="1Y4CLGfuSVdyvMHoktrW-81" edge="1">
          <mxGeometry x="630" y="500" as="geometry" />
        </mxCell>
        <mxCell id="1Y4CLGfuSVdyvMHoktrW-85" value="" style="ellipse;whiteSpace=wrap;html=1;aspect=fixed;fillColor=#d5e8d4;strokeColor=#82b366;" parent="1" vertex="1">
          <mxGeometry x="712" y="583" width="40" height="40" as="geometry" />
        </mxCell>
        <mxCell id="1Y4CLGfuSVdyvMHoktrW-86" style="edgeStyle=none;rounded=0;jumpStyle=none;orthogonalLoop=1;jettySize=auto;html=1;exitX=0.5;exitY=0;exitDx=0;exitDy=0;entryX=0;entryY=1;entryDx=0;entryDy=0;endArrow=none;endFill=0;strokeColor=#99CCFF;strokeWidth=3;" parent="1" source="1Y4CLGfuSVdyvMHoktrW-87" target="1Y4CLGfuSVdyvMHoktrW-85" edge="1">
          <mxGeometry x="630" y="500" as="geometry" />
        </mxCell>
        <mxCell id="1Y4CLGfuSVdyvMHoktrW-87" value="" style="ellipse;whiteSpace=wrap;html=1;aspect=fixed;fillColor=#d5e8d4;strokeColor=#82b366;" parent="1" vertex="1">
          <mxGeometry x="657" y="653" width="40" height="40" as="geometry" />
        </mxCell>
        <mxCell id="1Y4CLGfuSVdyvMHoktrW-88" style="rounded=0;orthogonalLoop=1;jettySize=auto;html=1;exitX=0.5;exitY=0;exitDx=0;exitDy=0;entryX=0;entryY=1;entryDx=0;entryDy=0;endArrow=none;endFill=0;jumpStyle=none;fillColor=#dae8fc;strokeWidth=3;strokeColor=#99CCFF;" parent="1" source="1Y4CLGfuSVdyvMHoktrW-100" target="1Y4CLGfuSVdyvMHoktrW-87" edge="1">
          <mxGeometry x="630" y="653" as="geometry" />
        </mxCell>
        <mxCell id="1Y4CLGfuSVdyvMHoktrW-89" style="edgeStyle=none;rounded=0;jumpStyle=none;orthogonalLoop=1;jettySize=auto;html=1;exitX=0.5;exitY=0;exitDx=0;exitDy=0;entryX=1;entryY=1;entryDx=0;entryDy=0;endArrow=none;endFill=0;strokeColor=#99CCFF;strokeWidth=3;" parent="1" source="1Y4CLGfuSVdyvMHoktrW-90" target="1Y4CLGfuSVdyvMHoktrW-85" edge="1">
          <mxGeometry x="630" y="500" as="geometry" />
        </mxCell>
        <mxCell id="1Y4CLGfuSVdyvMHoktrW-90" value="" style="ellipse;whiteSpace=wrap;html=1;aspect=fixed;fillColor=#d5e8d4;strokeColor=#82b366;" parent="1" vertex="1">
          <mxGeometry x="767" y="653" width="40" height="40" as="geometry" />
        </mxCell>
        <mxCell id="1Y4CLGfuSVdyvMHoktrW-91" style="edgeStyle=none;rounded=0;jumpStyle=none;orthogonalLoop=1;jettySize=auto;html=1;exitX=0.5;exitY=0;exitDx=0;exitDy=0;entryX=1;entryY=1;entryDx=0;entryDy=0;endArrow=none;endFill=0;strokeColor=#99CCFF;strokeWidth=3;" parent="1" source="1Y4CLGfuSVdyvMHoktrW-92" target="1Y4CLGfuSVdyvMHoktrW-83" edge="1">
          <mxGeometry x="630" y="500" as="geometry" />
        </mxCell>
        <mxCell id="1Y4CLGfuSVdyvMHoktrW-92" value="" style="ellipse;whiteSpace=wrap;html=1;aspect=fixed;fillColor=#d5e8d4;strokeColor=#82b366;" parent="1" vertex="1">
          <mxGeometry x="987" y="653" width="40" height="40" as="geometry" />
        </mxCell>
        <mxCell id="1Y4CLGfuSVdyvMHoktrW-93" style="edgeStyle=none;rounded=0;jumpStyle=none;orthogonalLoop=1;jettySize=auto;html=1;exitX=0.5;exitY=0;exitDx=0;exitDy=0;entryX=0;entryY=1;entryDx=0;entryDy=0;endArrow=none;endFill=0;strokeColor=#99CCFF;strokeWidth=3;" parent="1" source="1Y4CLGfuSVdyvMHoktrW-94" target="1Y4CLGfuSVdyvMHoktrW-83" edge="1">
          <mxGeometry x="630" y="500" as="geometry" />
        </mxCell>
        <mxCell id="1Y4CLGfuSVdyvMHoktrW-94" value="" style="ellipse;whiteSpace=wrap;html=1;aspect=fixed;fillColor=#d5e8d4;strokeColor=#82b366;" parent="1" vertex="1">
          <mxGeometry x="877" y="653" width="40" height="40" as="geometry" />
        </mxCell>
        <mxCell id="1Y4CLGfuSVdyvMHoktrW-98" style="edgeStyle=none;rounded=0;jumpStyle=none;orthogonalLoop=1;jettySize=auto;html=1;exitX=0.5;exitY=0;exitDx=0;exitDy=0;entryX=1;entryY=1;entryDx=0;entryDy=0;endArrow=none;endFill=0;strokeColor=#99CCFF;strokeWidth=3;" parent="1" source="1Y4CLGfuSVdyvMHoktrW-99" target="1Y4CLGfuSVdyvMHoktrW-87" edge="1">
          <mxGeometry x="630" y="500" as="geometry" />
        </mxCell>
        <mxCell id="1Y4CLGfuSVdyvMHoktrW-99" value="" style="ellipse;whiteSpace=wrap;html=1;aspect=fixed;fillColor=#d5e8d4;strokeColor=#82b366;" parent="1" vertex="1">
          <mxGeometry x="684" y="713" width="40" height="40" as="geometry" />
        </mxCell>
        <mxCell id="1Y4CLGfuSVdyvMHoktrW-100" value="" style="ellipse;whiteSpace=wrap;html=1;aspect=fixed;fillColor=#d5e8d4;strokeColor=#82b366;" parent="1" vertex="1">
          <mxGeometry x="630" y="713" width="40" height="40" as="geometry" />
        </mxCell>
        <mxCell id="1Y4CLGfuSVdyvMHoktrW-101" style="edgeStyle=none;rounded=0;jumpStyle=none;orthogonalLoop=1;jettySize=auto;html=1;exitX=0.5;exitY=0;exitDx=0;exitDy=0;entryX=1;entryY=1;entryDx=0;entryDy=0;endArrow=none;endFill=0;strokeColor=#99CCFF;strokeWidth=3;" parent="1" source="1Y4CLGfuSVdyvMHoktrW-102" target="1Y4CLGfuSVdyvMHoktrW-90" edge="1">
          <mxGeometry x="630" y="500" as="geometry" />
        </mxCell>
        <mxCell id="1Y4CLGfuSVdyvMHoktrW-102" value="" style="ellipse;whiteSpace=wrap;html=1;aspect=fixed;fillColor=#d5e8d4;strokeColor=#82b366;" parent="1" vertex="1">
          <mxGeometry x="794" y="713" width="40" height="40" as="geometry" />
        </mxCell>
        <mxCell id="1Y4CLGfuSVdyvMHoktrW-103" style="edgeStyle=none;rounded=0;jumpStyle=none;orthogonalLoop=1;jettySize=auto;html=1;exitX=0.5;exitY=0;exitDx=0;exitDy=0;entryX=0;entryY=1;entryDx=0;entryDy=0;endArrow=none;endFill=0;strokeColor=#99CCFF;strokeWidth=3;" parent="1" source="1Y4CLGfuSVdyvMHoktrW-104" target="1Y4CLGfuSVdyvMHoktrW-90" edge="1">
          <mxGeometry x="630" y="500" as="geometry" />
        </mxCell>
        <mxCell id="1Y4CLGfuSVdyvMHoktrW-104" value="" style="ellipse;whiteSpace=wrap;html=1;aspect=fixed;fillColor=#d5e8d4;strokeColor=#82b366;" parent="1" vertex="1">
          <mxGeometry x="740" y="713" width="40" height="40" as="geometry" />
        </mxCell>
        <mxCell id="1Y4CLGfuSVdyvMHoktrW-109" style="edgeStyle=none;rounded=0;jumpStyle=none;orthogonalLoop=1;jettySize=auto;html=1;exitX=0.5;exitY=0;exitDx=0;exitDy=0;entryX=0;entryY=1;entryDx=0;entryDy=0;endArrow=none;endFill=0;strokeColor=#99CCFF;strokeWidth=3;" parent="1" source="1Y4CLGfuSVdyvMHoktrW-97" target="1Y4CLGfuSVdyvMHoktrW-94" edge="1">
          <mxGeometry x="630" y="500" as="geometry" />
        </mxCell>
        <mxCell id="1Y4CLGfuSVdyvMHoktrW-97" value="" style="ellipse;whiteSpace=wrap;html=1;aspect=fixed;fillColor=#d5e8d4;strokeColor=#82b366;" parent="1" vertex="1">
          <mxGeometry x="850" y="713" width="40" height="40" as="geometry" />
        </mxCell>
        <mxCell id="BHEF2kK8dIQRtaPVzrEZ-1" style="rounded=0;orthogonalLoop=1;jettySize=auto;html=1;exitX=0.5;exitY=0;exitDx=0;exitDy=0;entryX=0;entryY=1;entryDx=0;entryDy=0;endArrow=none;endFill=0;jumpStyle=none;fillColor=#dae8fc;strokeWidth=3;strokeColor=#99CCFF;dashed=1;dashPattern=1 1;" parent="1" source="BHEF2kK8dIQRtaPVzrEZ-4" edge="1">
          <mxGeometry x="540" y="153" as="geometry">
            <mxPoint x="662.8578643762694" y="297.1421356237306" as="targetPoint" />
          </mxGeometry>
        </mxCell>
        <mxCell id="BHEF2kK8dIQRtaPVzrEZ-2" style="edgeStyle=none;rounded=0;jumpStyle=none;orthogonalLoop=1;jettySize=auto;html=1;exitX=0.5;exitY=0;exitDx=0;exitDy=0;entryX=1;entryY=1;entryDx=0;entryDy=0;endArrow=none;endFill=0;strokeColor=#99CCFF;strokeWidth=3;dashed=1;dashPattern=1 1;" parent="1" source="BHEF2kK8dIQRtaPVzrEZ-3" edge="1">
          <mxGeometry relative="1" as="geometry">
            <mxPoint x="691.1421356237313" y="297.14213562373106" as="targetPoint" />
          </mxGeometry>
        </mxCell>
        <mxCell id="BHEF2kK8dIQRtaPVzrEZ-3" value="" style="ellipse;whiteSpace=wrap;html=1;aspect=fixed;dashed=1;" parent="1" vertex="1">
          <mxGeometry x="684" y="323" width="40" height="40" as="geometry" />
        </mxCell>
        <mxCell id="BHEF2kK8dIQRtaPVzrEZ-4" value="" style="ellipse;whiteSpace=wrap;html=1;aspect=fixed;dashed=1;" parent="1" vertex="1">
          <mxGeometry x="630" y="323" width="40" height="40" as="geometry" />
        </mxCell>
        <mxCell id="BHEF2kK8dIQRtaPVzrEZ-5" value="" style="ellipse;whiteSpace=wrap;html=1;aspect=fixed;dashed=1;" parent="1" vertex="1">
          <mxGeometry x="903" y="714" width="40" height="40" as="geometry" />
        </mxCell>
        <mxCell id="BHEF2kK8dIQRtaPVzrEZ-6" style="edgeStyle=none;rounded=0;jumpStyle=none;orthogonalLoop=1;jettySize=auto;html=1;exitX=0.5;exitY=0;exitDx=0;exitDy=0;entryX=1;entryY=1;entryDx=0;entryDy=0;endArrow=none;endFill=0;strokeColor=#99CCFF;strokeWidth=3;dashed=1;dashPattern=1 1;" parent="1" source="BHEF2kK8dIQRtaPVzrEZ-5" edge="1">
          <mxGeometry relative="1" as="geometry">
            <mxPoint x="910.1421356237313" y="688.1421356237311" as="targetPoint" />
          </mxGeometry>
        </mxCell>
        <mxCell id="BHEF2kK8dIQRtaPVzrEZ-43" value="&lt;span style=&quot;font-size: 18px&quot;&gt;PreorderTraversal (Root-&amp;gt;Left-&amp;gt;Right): 1 2 4 5 7 8 3 6&lt;/span&gt;&lt;span style=&quot;font-size: 18px&quot;&gt;&lt;br&gt;&lt;/span&gt;&lt;span style=&quot;font-size: 18px&quot;&gt;InorderTraversal (Left-&amp;gt;Root-&amp;gt;Right): 4 2 7 5 8 1 3 6&lt;/span&gt;&lt;span style=&quot;font-size: 18px&quot;&gt;&lt;br&gt;&lt;/span&gt;&lt;span style=&quot;font-size: 18px&quot;&gt;PostorderTraversal (Left-&amp;gt;Right-&amp;gt;Root): 4 7 8 5 2 6 3 1&lt;/span&gt;&lt;span style=&quot;font-size: 18px&quot;&gt;&lt;br&gt;&lt;/span&gt;&lt;span style=&quot;font-size: 18px&quot;&gt;LevelOrderTraversal: 1 2&amp;nbsp;3 4 5 6 7 8&lt;/span&gt;&lt;span style=&quot;font-size: 18px&quot;&gt;&lt;br&gt;&lt;/span&gt;" style="text;html=1;strokeColor=none;fillColor=none;align=left;verticalAlign=middle;whiteSpace=wrap;rounded=0;" parent="1" vertex="1">
          <mxGeometry x="80" y="1160" width="570" height="110" as="geometry" />
        </mxCell>
        <mxCell id="qb7TmPaxPkG04XtxjynS-1" value="" style="group" parent="1" vertex="1" connectable="0">
          <mxGeometry x="1110" y="140" width="424" height="253" as="geometry" />
        </mxCell>
        <mxCell id="qb7TmPaxPkG04XtxjynS-2" value="&lt;font style=&quot;font-size: 18px&quot;&gt;2&lt;/font&gt;" style="ellipse;whiteSpace=wrap;html=1;aspect=fixed;fillColor=#d5e8d4;strokeColor=#82b366;" parent="qb7TmPaxPkG04XtxjynS-1" vertex="1">
          <mxGeometry x="192" width="40" height="40" as="geometry" />
        </mxCell>
        <mxCell id="qb7TmPaxPkG04XtxjynS-3" style="edgeStyle=none;rounded=0;jumpStyle=none;orthogonalLoop=1;jettySize=auto;html=1;exitX=0.5;exitY=0;exitDx=0;exitDy=0;entryX=1;entryY=1;entryDx=0;entryDy=0;endArrow=none;endFill=0;strokeColor=#99CCFF;strokeWidth=3;" parent="qb7TmPaxPkG04XtxjynS-1" source="qb7TmPaxPkG04XtxjynS-4" target="qb7TmPaxPkG04XtxjynS-2" edge="1">
          <mxGeometry relative="1" as="geometry" />
        </mxCell>
        <mxCell id="qb7TmPaxPkG04XtxjynS-4" value="&lt;font style=&quot;font-size: 18px&quot;&gt;4&lt;/font&gt;" style="ellipse;whiteSpace=wrap;html=1;aspect=fixed;fillColor=#d5e8d4;strokeColor=#82b366;" parent="qb7TmPaxPkG04XtxjynS-1" vertex="1">
          <mxGeometry x="302" y="83" width="40" height="40" as="geometry" />
        </mxCell>
        <mxCell id="qb7TmPaxPkG04XtxjynS-5" style="edgeStyle=none;rounded=0;jumpStyle=none;orthogonalLoop=1;jettySize=auto;html=1;exitX=0.5;exitY=0;exitDx=0;exitDy=0;entryX=0;entryY=1;entryDx=0;entryDy=0;endArrow=none;endFill=0;strokeColor=#99CCFF;strokeWidth=3;" parent="qb7TmPaxPkG04XtxjynS-1" source="qb7TmPaxPkG04XtxjynS-6" target="qb7TmPaxPkG04XtxjynS-2" edge="1">
          <mxGeometry relative="1" as="geometry" />
        </mxCell>
        <mxCell id="qb7TmPaxPkG04XtxjynS-6" value="&lt;font style=&quot;font-size: 18px&quot;&gt;7&lt;/font&gt;" style="ellipse;whiteSpace=wrap;html=1;aspect=fixed;fillColor=#d5e8d4;strokeColor=#82b366;" parent="qb7TmPaxPkG04XtxjynS-1" vertex="1">
          <mxGeometry x="82" y="83" width="40" height="40" as="geometry" />
        </mxCell>
        <mxCell id="qb7TmPaxPkG04XtxjynS-7" style="edgeStyle=none;rounded=0;jumpStyle=none;orthogonalLoop=1;jettySize=auto;html=1;exitX=0.5;exitY=0;exitDx=0;exitDy=0;entryX=0;entryY=1;entryDx=0;entryDy=0;endArrow=none;endFill=0;strokeColor=#99CCFF;strokeWidth=3;" parent="qb7TmPaxPkG04XtxjynS-1" source="qb7TmPaxPkG04XtxjynS-8" target="qb7TmPaxPkG04XtxjynS-6" edge="1">
          <mxGeometry relative="1" as="geometry" />
        </mxCell>
        <mxCell id="qb7TmPaxPkG04XtxjynS-8" value="&lt;font style=&quot;font-size: 18px&quot;&gt;8&lt;/font&gt;" style="ellipse;whiteSpace=wrap;html=1;aspect=fixed;fillColor=#d5e8d4;strokeColor=#82b366;" parent="qb7TmPaxPkG04XtxjynS-1" vertex="1">
          <mxGeometry x="27" y="153" width="40" height="40" as="geometry" />
        </mxCell>
        <mxCell id="qb7TmPaxPkG04XtxjynS-9" style="rounded=0;orthogonalLoop=1;jettySize=auto;html=1;exitX=0.5;exitY=0;exitDx=0;exitDy=0;entryX=0;entryY=1;entryDx=0;entryDy=0;endArrow=none;endFill=0;jumpStyle=none;fillColor=#dae8fc;strokeWidth=3;strokeColor=#99CCFF;" parent="qb7TmPaxPkG04XtxjynS-1" source="qb7TmPaxPkG04XtxjynS-21" target="qb7TmPaxPkG04XtxjynS-8" edge="1">
          <mxGeometry y="153" as="geometry" />
        </mxCell>
        <mxCell id="qb7TmPaxPkG04XtxjynS-10" style="edgeStyle=none;rounded=0;jumpStyle=none;orthogonalLoop=1;jettySize=auto;html=1;exitX=0.5;exitY=0;exitDx=0;exitDy=0;entryX=1;entryY=1;entryDx=0;entryDy=0;endArrow=none;endFill=0;strokeColor=#99CCFF;strokeWidth=3;" parent="qb7TmPaxPkG04XtxjynS-1" source="qb7TmPaxPkG04XtxjynS-11" target="qb7TmPaxPkG04XtxjynS-6" edge="1">
          <mxGeometry relative="1" as="geometry" />
        </mxCell>
        <mxCell id="qb7TmPaxPkG04XtxjynS-11" value="&lt;font style=&quot;font-size: 18px&quot;&gt;15&lt;/font&gt;" style="ellipse;whiteSpace=wrap;html=1;aspect=fixed;fillColor=#d5e8d4;strokeColor=#82b366;" parent="qb7TmPaxPkG04XtxjynS-1" vertex="1">
          <mxGeometry x="137" y="153" width="40" height="40" as="geometry" />
        </mxCell>
        <mxCell id="qb7TmPaxPkG04XtxjynS-12" style="edgeStyle=none;rounded=0;jumpStyle=none;orthogonalLoop=1;jettySize=auto;html=1;exitX=0.5;exitY=0;exitDx=0;exitDy=0;entryX=1;entryY=1;entryDx=0;entryDy=0;endArrow=none;endFill=0;strokeColor=#99CCFF;strokeWidth=3;" parent="qb7TmPaxPkG04XtxjynS-1" source="qb7TmPaxPkG04XtxjynS-13" target="qb7TmPaxPkG04XtxjynS-4" edge="1">
          <mxGeometry relative="1" as="geometry" />
        </mxCell>
        <mxCell id="qb7TmPaxPkG04XtxjynS-13" value="&lt;font style=&quot;font-size: 18px&quot;&gt;10&lt;/font&gt;" style="ellipse;whiteSpace=wrap;html=1;aspect=fixed;fillColor=#d5e8d4;strokeColor=#82b366;" parent="qb7TmPaxPkG04XtxjynS-1" vertex="1">
          <mxGeometry x="357" y="153" width="40" height="40" as="geometry" />
        </mxCell>
        <mxCell id="qb7TmPaxPkG04XtxjynS-14" style="edgeStyle=none;rounded=0;jumpStyle=none;orthogonalLoop=1;jettySize=auto;html=1;exitX=0.5;exitY=0;exitDx=0;exitDy=0;entryX=0;entryY=1;entryDx=0;entryDy=0;endArrow=none;endFill=0;strokeColor=#99CCFF;strokeWidth=3;" parent="qb7TmPaxPkG04XtxjynS-1" source="qb7TmPaxPkG04XtxjynS-15" target="qb7TmPaxPkG04XtxjynS-4" edge="1">
          <mxGeometry relative="1" as="geometry" />
        </mxCell>
        <mxCell id="qb7TmPaxPkG04XtxjynS-15" value="&lt;font style=&quot;font-size: 18px&quot;&gt;20&lt;/font&gt;" style="ellipse;whiteSpace=wrap;html=1;aspect=fixed;fillColor=#d5e8d4;strokeColor=#82b366;" parent="qb7TmPaxPkG04XtxjynS-1" vertex="1">
          <mxGeometry x="247" y="153" width="40" height="40" as="geometry" />
        </mxCell>
        <mxCell id="qb7TmPaxPkG04XtxjynS-19" style="edgeStyle=none;rounded=0;jumpStyle=none;orthogonalLoop=1;jettySize=auto;html=1;exitX=0.5;exitY=0;exitDx=0;exitDy=0;entryX=1;entryY=1;entryDx=0;entryDy=0;endArrow=none;endFill=0;strokeColor=#99CCFF;strokeWidth=3;" parent="qb7TmPaxPkG04XtxjynS-1" source="qb7TmPaxPkG04XtxjynS-20" target="qb7TmPaxPkG04XtxjynS-8" edge="1">
          <mxGeometry relative="1" as="geometry" />
        </mxCell>
        <mxCell id="qb7TmPaxPkG04XtxjynS-20" value="&lt;font style=&quot;font-size: 18px&quot;&gt;12&lt;/font&gt;" style="ellipse;whiteSpace=wrap;html=1;aspect=fixed;fillColor=#d5e8d4;strokeColor=#82b366;" parent="qb7TmPaxPkG04XtxjynS-1" vertex="1">
          <mxGeometry x="54" y="213" width="40" height="40" as="geometry" />
        </mxCell>
        <mxCell id="qb7TmPaxPkG04XtxjynS-21" value="&lt;font style=&quot;font-size: 18px&quot;&gt;22&lt;/font&gt;" style="ellipse;whiteSpace=wrap;html=1;aspect=fixed;fillColor=#d5e8d4;strokeColor=#82b366;" parent="qb7TmPaxPkG04XtxjynS-1" vertex="1">
          <mxGeometry y="213" width="40" height="40" as="geometry" />
        </mxCell>
        <mxCell id="qb7TmPaxPkG04XtxjynS-33" value="0" style="text;html=1;strokeColor=none;fillColor=none;align=center;verticalAlign=middle;whiteSpace=wrap;rounded=0;" parent="qb7TmPaxPkG04XtxjynS-1" vertex="1">
          <mxGeometry x="240" y="10" width="40" height="20" as="geometry" />
        </mxCell>
        <mxCell id="qb7TmPaxPkG04XtxjynS-34" value="1" style="text;html=1;strokeColor=none;fillColor=none;align=center;verticalAlign=middle;whiteSpace=wrap;rounded=0;" parent="qb7TmPaxPkG04XtxjynS-1" vertex="1">
          <mxGeometry x="122" y="93" width="40" height="20" as="geometry" />
        </mxCell>
        <mxCell id="qb7TmPaxPkG04XtxjynS-35" value="2" style="text;html=1;strokeColor=none;fillColor=none;align=center;verticalAlign=middle;whiteSpace=wrap;rounded=0;" parent="qb7TmPaxPkG04XtxjynS-1" vertex="1">
          <mxGeometry x="342" y="93" width="40" height="20" as="geometry" />
        </mxCell>
        <mxCell id="qb7TmPaxPkG04XtxjynS-36" value="3" style="text;html=1;strokeColor=none;fillColor=none;align=center;verticalAlign=middle;whiteSpace=wrap;rounded=0;" parent="qb7TmPaxPkG04XtxjynS-1" vertex="1">
          <mxGeometry x="60" y="163" width="40" height="20" as="geometry" />
        </mxCell>
        <mxCell id="qb7TmPaxPkG04XtxjynS-37" value="4" style="text;html=1;strokeColor=none;fillColor=none;align=center;verticalAlign=middle;whiteSpace=wrap;rounded=0;" parent="qb7TmPaxPkG04XtxjynS-1" vertex="1">
          <mxGeometry x="173" y="163" width="40" height="20" as="geometry" />
        </mxCell>
        <mxCell id="qb7TmPaxPkG04XtxjynS-41" value="8" style="text;html=1;strokeColor=none;fillColor=none;align=center;verticalAlign=middle;whiteSpace=wrap;rounded=0;" parent="qb7TmPaxPkG04XtxjynS-1" vertex="1">
          <mxGeometry x="89" y="223" width="40" height="20" as="geometry" />
        </mxCell>
        <mxCell id="qb7TmPaxPkG04XtxjynS-32" value="&lt;font style=&quot;font-size: 18px&quot;&gt;Min-Heap&lt;/font&gt;" style="text;html=1;strokeColor=none;fillColor=none;align=center;verticalAlign=middle;whiteSpace=wrap;rounded=0;" parent="1" vertex="1">
          <mxGeometry x="1210" y="410" width="248" height="30" as="geometry" />
        </mxCell>
        <mxCell id="qb7TmPaxPkG04XtxjynS-38" value="5" style="text;html=1;strokeColor=none;fillColor=none;align=center;verticalAlign=middle;whiteSpace=wrap;rounded=0;" parent="1" vertex="1">
          <mxGeometry x="1393" y="303" width="40" height="20" as="geometry" />
        </mxCell>
        <mxCell id="qb7TmPaxPkG04XtxjynS-39" value="6" style="text;html=1;strokeColor=none;fillColor=none;align=center;verticalAlign=middle;whiteSpace=wrap;rounded=0;" parent="1" vertex="1">
          <mxGeometry x="1500" y="303" width="40" height="20" as="geometry" />
        </mxCell>
        <mxCell id="qb7TmPaxPkG04XtxjynS-40" value="7" style="text;html=1;strokeColor=none;fillColor=none;align=center;verticalAlign=middle;whiteSpace=wrap;rounded=0;" parent="1" vertex="1">
          <mxGeometry x="1078" y="363" width="40" height="20" as="geometry" />
        </mxCell>
        <mxCell id="qb7TmPaxPkG04XtxjynS-42" value="" style="group" parent="1" vertex="1" connectable="0">
          <mxGeometry x="1140" y="450" width="424" height="253" as="geometry" />
        </mxCell>
        <mxCell id="qb7TmPaxPkG04XtxjynS-43" value="&lt;font style=&quot;font-size: 18px&quot;&gt;2&lt;/font&gt;" style="ellipse;whiteSpace=wrap;html=1;aspect=fixed;fillColor=#d5e8d4;strokeColor=#82b366;" parent="qb7TmPaxPkG04XtxjynS-42" vertex="1">
          <mxGeometry x="192" width="40" height="40" as="geometry" />
        </mxCell>
        <mxCell id="qb7TmPaxPkG04XtxjynS-44" style="edgeStyle=none;rounded=0;jumpStyle=none;orthogonalLoop=1;jettySize=auto;html=1;exitX=0.5;exitY=0;exitDx=0;exitDy=0;entryX=1;entryY=1;entryDx=0;entryDy=0;endArrow=none;endFill=0;strokeColor=#99CCFF;strokeWidth=3;" parent="qb7TmPaxPkG04XtxjynS-42" source="qb7TmPaxPkG04XtxjynS-45" target="qb7TmPaxPkG04XtxjynS-43" edge="1">
          <mxGeometry relative="1" as="geometry" />
        </mxCell>
        <mxCell id="qb7TmPaxPkG04XtxjynS-45" value="&lt;font style=&quot;font-size: 18px&quot;&gt;4&lt;/font&gt;" style="ellipse;whiteSpace=wrap;html=1;aspect=fixed;fillColor=#d5e8d4;strokeColor=#82b366;" parent="qb7TmPaxPkG04XtxjynS-42" vertex="1">
          <mxGeometry x="302" y="83" width="40" height="40" as="geometry" />
        </mxCell>
        <mxCell id="qb7TmPaxPkG04XtxjynS-46" style="edgeStyle=none;rounded=0;jumpStyle=none;orthogonalLoop=1;jettySize=auto;html=1;exitX=0.5;exitY=0;exitDx=0;exitDy=0;entryX=0;entryY=1;entryDx=0;entryDy=0;endArrow=none;endFill=0;strokeColor=#99CCFF;strokeWidth=3;" parent="qb7TmPaxPkG04XtxjynS-42" source="qb7TmPaxPkG04XtxjynS-47" target="qb7TmPaxPkG04XtxjynS-43" edge="1">
          <mxGeometry relative="1" as="geometry" />
        </mxCell>
        <mxCell id="qb7TmPaxPkG04XtxjynS-47" value="&lt;font style=&quot;font-size: 18px&quot;&gt;7&lt;/font&gt;" style="ellipse;whiteSpace=wrap;html=1;aspect=fixed;fillColor=#d5e8d4;strokeColor=#82b366;" parent="qb7TmPaxPkG04XtxjynS-42" vertex="1">
          <mxGeometry x="82" y="83" width="40" height="40" as="geometry" />
        </mxCell>
        <mxCell id="qb7TmPaxPkG04XtxjynS-48" style="edgeStyle=none;rounded=0;jumpStyle=none;orthogonalLoop=1;jettySize=auto;html=1;exitX=0.5;exitY=0;exitDx=0;exitDy=0;entryX=0;entryY=1;entryDx=0;entryDy=0;endArrow=none;endFill=0;strokeColor=#99CCFF;strokeWidth=3;" parent="qb7TmPaxPkG04XtxjynS-42" source="qb7TmPaxPkG04XtxjynS-49" target="qb7TmPaxPkG04XtxjynS-47" edge="1">
          <mxGeometry relative="1" as="geometry" />
        </mxCell>
        <mxCell id="qb7TmPaxPkG04XtxjynS-49" value="&lt;font style=&quot;font-size: 18px&quot;&gt;8&lt;/font&gt;" style="ellipse;whiteSpace=wrap;html=1;aspect=fixed;fillColor=#d5e8d4;strokeColor=#82b366;" parent="qb7TmPaxPkG04XtxjynS-42" vertex="1">
          <mxGeometry x="27" y="153" width="40" height="40" as="geometry" />
        </mxCell>
        <mxCell id="qb7TmPaxPkG04XtxjynS-50" style="rounded=0;orthogonalLoop=1;jettySize=auto;html=1;exitX=0.5;exitY=0;exitDx=0;exitDy=0;entryX=0;entryY=1;entryDx=0;entryDy=0;endArrow=none;endFill=0;jumpStyle=none;fillColor=#dae8fc;strokeWidth=3;strokeColor=#99CCFF;" parent="qb7TmPaxPkG04XtxjynS-42" source="qb7TmPaxPkG04XtxjynS-59" target="qb7TmPaxPkG04XtxjynS-49" edge="1">
          <mxGeometry y="153" as="geometry" />
        </mxCell>
        <mxCell id="qb7TmPaxPkG04XtxjynS-51" style="edgeStyle=none;rounded=0;jumpStyle=none;orthogonalLoop=1;jettySize=auto;html=1;exitX=0.5;exitY=0;exitDx=0;exitDy=0;entryX=1;entryY=1;entryDx=0;entryDy=0;endArrow=none;endFill=0;strokeColor=#99CCFF;strokeWidth=3;" parent="qb7TmPaxPkG04XtxjynS-42" source="qb7TmPaxPkG04XtxjynS-52" target="qb7TmPaxPkG04XtxjynS-47" edge="1">
          <mxGeometry relative="1" as="geometry" />
        </mxCell>
        <mxCell id="qb7TmPaxPkG04XtxjynS-52" value="&lt;font style=&quot;font-size: 18px&quot;&gt;15&lt;/font&gt;" style="ellipse;whiteSpace=wrap;html=1;aspect=fixed;fillColor=#d5e8d4;strokeColor=#82b366;" parent="qb7TmPaxPkG04XtxjynS-42" vertex="1">
          <mxGeometry x="137" y="153" width="40" height="40" as="geometry" />
        </mxCell>
        <mxCell id="qb7TmPaxPkG04XtxjynS-53" style="edgeStyle=none;rounded=0;jumpStyle=none;orthogonalLoop=1;jettySize=auto;html=1;exitX=0.5;exitY=0;exitDx=0;exitDy=0;entryX=1;entryY=1;entryDx=0;entryDy=0;endArrow=none;endFill=0;strokeColor=#99CCFF;strokeWidth=3;" parent="qb7TmPaxPkG04XtxjynS-42" source="qb7TmPaxPkG04XtxjynS-54" target="qb7TmPaxPkG04XtxjynS-45" edge="1">
          <mxGeometry relative="1" as="geometry" />
        </mxCell>
        <mxCell id="qb7TmPaxPkG04XtxjynS-54" value="&lt;font style=&quot;font-size: 18px&quot;&gt;10&lt;/font&gt;" style="ellipse;whiteSpace=wrap;html=1;aspect=fixed;fillColor=#d5e8d4;strokeColor=#82b366;" parent="qb7TmPaxPkG04XtxjynS-42" vertex="1">
          <mxGeometry x="357" y="153" width="40" height="40" as="geometry" />
        </mxCell>
        <mxCell id="qb7TmPaxPkG04XtxjynS-55" style="edgeStyle=none;rounded=0;jumpStyle=none;orthogonalLoop=1;jettySize=auto;html=1;exitX=0.5;exitY=0;exitDx=0;exitDy=0;entryX=0;entryY=1;entryDx=0;entryDy=0;endArrow=none;endFill=0;strokeColor=#99CCFF;strokeWidth=3;" parent="qb7TmPaxPkG04XtxjynS-42" source="qb7TmPaxPkG04XtxjynS-56" target="qb7TmPaxPkG04XtxjynS-45" edge="1">
          <mxGeometry relative="1" as="geometry" />
        </mxCell>
        <mxCell id="qb7TmPaxPkG04XtxjynS-56" value="&lt;font style=&quot;font-size: 18px&quot;&gt;20&lt;/font&gt;" style="ellipse;whiteSpace=wrap;html=1;aspect=fixed;fillColor=#d5e8d4;strokeColor=#82b366;" parent="qb7TmPaxPkG04XtxjynS-42" vertex="1">
          <mxGeometry x="247" y="153" width="40" height="40" as="geometry" />
        </mxCell>
        <mxCell id="qb7TmPaxPkG04XtxjynS-57" style="edgeStyle=none;rounded=0;jumpStyle=none;orthogonalLoop=1;jettySize=auto;html=1;exitX=0.5;exitY=0;exitDx=0;exitDy=0;entryX=1;entryY=1;entryDx=0;entryDy=0;endArrow=none;endFill=0;strokeColor=#99CCFF;strokeWidth=3;" parent="qb7TmPaxPkG04XtxjynS-42" source="qb7TmPaxPkG04XtxjynS-58" target="qb7TmPaxPkG04XtxjynS-49" edge="1">
          <mxGeometry relative="1" as="geometry" />
        </mxCell>
        <mxCell id="qb7TmPaxPkG04XtxjynS-58" value="&lt;font style=&quot;font-size: 18px&quot;&gt;12&lt;/font&gt;" style="ellipse;whiteSpace=wrap;html=1;aspect=fixed;fillColor=#d5e8d4;strokeColor=#82b366;" parent="qb7TmPaxPkG04XtxjynS-42" vertex="1">
          <mxGeometry x="54" y="213" width="40" height="40" as="geometry" />
        </mxCell>
        <mxCell id="qb7TmPaxPkG04XtxjynS-59" value="&lt;font style=&quot;font-size: 18px&quot;&gt;22&lt;/font&gt;" style="ellipse;whiteSpace=wrap;html=1;aspect=fixed;fillColor=#d5e8d4;strokeColor=#82b366;" parent="qb7TmPaxPkG04XtxjynS-42" vertex="1">
          <mxGeometry y="213" width="40" height="40" as="geometry" />
        </mxCell>
        <mxCell id="qb7TmPaxPkG04XtxjynS-60" value="0" style="text;html=1;strokeColor=none;fillColor=none;align=center;verticalAlign=middle;whiteSpace=wrap;rounded=0;" parent="qb7TmPaxPkG04XtxjynS-42" vertex="1">
          <mxGeometry x="240" y="10" width="40" height="20" as="geometry" />
        </mxCell>
        <mxCell id="qb7TmPaxPkG04XtxjynS-61" value="1" style="text;html=1;strokeColor=none;fillColor=none;align=center;verticalAlign=middle;whiteSpace=wrap;rounded=0;" parent="qb7TmPaxPkG04XtxjynS-42" vertex="1">
          <mxGeometry x="122" y="93" width="40" height="20" as="geometry" />
        </mxCell>
        <mxCell id="qb7TmPaxPkG04XtxjynS-62" value="2" style="text;html=1;strokeColor=none;fillColor=none;align=center;verticalAlign=middle;whiteSpace=wrap;rounded=0;" parent="qb7TmPaxPkG04XtxjynS-42" vertex="1">
          <mxGeometry x="342" y="93" width="40" height="20" as="geometry" />
        </mxCell>
        <mxCell id="qb7TmPaxPkG04XtxjynS-63" value="3" style="text;html=1;strokeColor=none;fillColor=none;align=center;verticalAlign=middle;whiteSpace=wrap;rounded=0;" parent="qb7TmPaxPkG04XtxjynS-42" vertex="1">
          <mxGeometry x="60" y="163" width="40" height="20" as="geometry" />
        </mxCell>
        <mxCell id="qb7TmPaxPkG04XtxjynS-64" value="4" style="text;html=1;strokeColor=none;fillColor=none;align=center;verticalAlign=middle;whiteSpace=wrap;rounded=0;" parent="qb7TmPaxPkG04XtxjynS-42" vertex="1">
          <mxGeometry x="173" y="163" width="40" height="20" as="geometry" />
        </mxCell>
        <mxCell id="qb7TmPaxPkG04XtxjynS-65" value="8" style="text;html=1;strokeColor=none;fillColor=none;align=center;verticalAlign=middle;whiteSpace=wrap;rounded=0;" parent="qb7TmPaxPkG04XtxjynS-42" vertex="1">
          <mxGeometry x="89" y="223" width="40" height="20" as="geometry" />
        </mxCell>
        <mxCell id="qc3atoFF0dB7BFC949ch-37" value="&lt;font style=&quot;font-size: 24px&quot; face=&quot;Lucida Console&quot;&gt;A&lt;/font&gt;" style="ellipse;whiteSpace=wrap;html=1;aspect=fixed;fillColor=#d5e8d4;strokeColor=#82b366;" parent="1" vertex="1">
          <mxGeometry x="842" y="880" width="40" height="40" as="geometry" />
        </mxCell>
        <mxCell id="qc3atoFF0dB7BFC949ch-38" style="edgeStyle=none;rounded=0;jumpStyle=none;orthogonalLoop=1;jettySize=auto;html=1;exitX=0.5;exitY=0;exitDx=0;exitDy=0;entryX=1;entryY=1;entryDx=0;entryDy=0;endArrow=none;endFill=0;strokeColor=#99CCFF;strokeWidth=3;" parent="1" source="qc3atoFF0dB7BFC949ch-39" target="qc3atoFF0dB7BFC949ch-37" edge="1">
          <mxGeometry x="650" y="880" as="geometry" />
        </mxCell>
        <mxCell id="qc3atoFF0dB7BFC949ch-39" value="&lt;font style=&quot;font-size: 24px&quot; face=&quot;Lucida Console&quot;&gt;C&lt;/font&gt;" style="ellipse;whiteSpace=wrap;html=1;aspect=fixed;fillColor=#d5e8d4;strokeColor=#82b366;" parent="1" vertex="1">
          <mxGeometry x="952" y="963" width="40" height="40" as="geometry" />
        </mxCell>
        <mxCell id="qc3atoFF0dB7BFC949ch-40" style="edgeStyle=none;rounded=0;jumpStyle=none;orthogonalLoop=1;jettySize=auto;html=1;exitX=0.5;exitY=0;exitDx=0;exitDy=0;entryX=0;entryY=1;entryDx=0;entryDy=0;endArrow=none;endFill=0;strokeColor=#99CCFF;strokeWidth=3;" parent="1" source="qc3atoFF0dB7BFC949ch-41" target="qc3atoFF0dB7BFC949ch-37" edge="1">
          <mxGeometry x="650" y="880" as="geometry" />
        </mxCell>
        <mxCell id="qc3atoFF0dB7BFC949ch-41" value="&lt;font style=&quot;font-size: 24px&quot; face=&quot;Lucida Console&quot;&gt;B&lt;/font&gt;" style="ellipse;whiteSpace=wrap;html=1;aspect=fixed;fillColor=#d5e8d4;strokeColor=#82b366;" parent="1" vertex="1">
          <mxGeometry x="732" y="963" width="40" height="40" as="geometry" />
        </mxCell>
        <mxCell id="qc3atoFF0dB7BFC949ch-42" style="edgeStyle=none;rounded=0;jumpStyle=none;orthogonalLoop=1;jettySize=auto;html=1;exitX=0.5;exitY=0;exitDx=0;exitDy=0;entryX=0;entryY=1;entryDx=0;entryDy=0;endArrow=none;endFill=0;strokeColor=#99CCFF;strokeWidth=3;" parent="1" source="qc3atoFF0dB7BFC949ch-43" target="qc3atoFF0dB7BFC949ch-41" edge="1">
          <mxGeometry x="650" y="880" as="geometry" />
        </mxCell>
        <mxCell id="qc3atoFF0dB7BFC949ch-43" value="&lt;font style=&quot;font-size: 24px&quot; face=&quot;Lucida Console&quot;&gt;D&lt;/font&gt;" style="ellipse;whiteSpace=wrap;html=1;aspect=fixed;fillColor=#d5e8d4;strokeColor=#82b366;" parent="1" vertex="1">
          <mxGeometry x="677" y="1033" width="40" height="40" as="geometry" />
        </mxCell>
        <mxCell id="qc3atoFF0dB7BFC949ch-44" style="rounded=0;orthogonalLoop=1;jettySize=auto;html=1;exitX=0.5;exitY=0;exitDx=0;exitDy=0;entryX=0;entryY=1;entryDx=0;entryDy=0;endArrow=none;endFill=0;jumpStyle=none;fillColor=#dae8fc;strokeWidth=3;strokeColor=#99CCFF;" parent="1" source="qc3atoFF0dB7BFC949ch-56" target="qc3atoFF0dB7BFC949ch-43" edge="1">
          <mxGeometry x="650" y="1033" as="geometry" />
        </mxCell>
        <mxCell id="qc3atoFF0dB7BFC949ch-45" style="edgeStyle=none;rounded=0;jumpStyle=none;orthogonalLoop=1;jettySize=auto;html=1;exitX=0.5;exitY=0;exitDx=0;exitDy=0;entryX=1;entryY=1;entryDx=0;entryDy=0;endArrow=none;endFill=0;strokeColor=#99CCFF;strokeWidth=3;" parent="1" source="qc3atoFF0dB7BFC949ch-46" target="qc3atoFF0dB7BFC949ch-41" edge="1">
          <mxGeometry x="650" y="880" as="geometry" />
        </mxCell>
        <mxCell id="qc3atoFF0dB7BFC949ch-46" value="&lt;font style=&quot;font-size: 24px&quot; face=&quot;Lucida Console&quot;&gt;E&lt;/font&gt;" style="ellipse;whiteSpace=wrap;html=1;aspect=fixed;fillColor=#d5e8d4;strokeColor=#82b366;" parent="1" vertex="1">
          <mxGeometry x="787" y="1033" width="40" height="40" as="geometry" />
        </mxCell>
        <mxCell id="qc3atoFF0dB7BFC949ch-47" style="edgeStyle=none;rounded=0;jumpStyle=none;orthogonalLoop=1;jettySize=auto;html=1;exitX=0.5;exitY=0;exitDx=0;exitDy=0;entryX=1;entryY=1;entryDx=0;entryDy=0;endArrow=none;endFill=0;strokeColor=#99CCFF;strokeWidth=3;" parent="1" source="qc3atoFF0dB7BFC949ch-48" target="qc3atoFF0dB7BFC949ch-39" edge="1">
          <mxGeometry x="650" y="880" as="geometry" />
        </mxCell>
        <mxCell id="qc3atoFF0dB7BFC949ch-48" value="&lt;font style=&quot;font-size: 24px&quot; face=&quot;Lucida Console&quot;&gt;G&lt;/font&gt;" style="ellipse;whiteSpace=wrap;html=1;aspect=fixed;fillColor=#d5e8d4;strokeColor=#82b366;" parent="1" vertex="1">
          <mxGeometry x="1007" y="1033" width="40" height="40" as="geometry" />
        </mxCell>
        <mxCell id="qc3atoFF0dB7BFC949ch-49" style="edgeStyle=none;rounded=0;jumpStyle=none;orthogonalLoop=1;jettySize=auto;html=1;exitX=0.5;exitY=0;exitDx=0;exitDy=0;entryX=0;entryY=1;entryDx=0;entryDy=0;endArrow=none;endFill=0;strokeColor=#99CCFF;strokeWidth=3;" parent="1" source="qc3atoFF0dB7BFC949ch-50" target="qc3atoFF0dB7BFC949ch-39" edge="1">
          <mxGeometry x="650" y="880" as="geometry" />
        </mxCell>
        <mxCell id="qc3atoFF0dB7BFC949ch-50" value="&lt;font style=&quot;font-size: 24px&quot; face=&quot;Lucida Console&quot;&gt;F&lt;/font&gt;" style="ellipse;whiteSpace=wrap;html=1;aspect=fixed;fillColor=#d5e8d4;strokeColor=#82b366;" parent="1" vertex="1">
          <mxGeometry x="897" y="1033" width="40" height="40" as="geometry" />
        </mxCell>
        <mxCell id="qc3atoFF0dB7BFC949ch-51" value="" style="group" parent="1" vertex="1" connectable="0">
          <mxGeometry x="870" y="1093" width="94" height="40" as="geometry" />
        </mxCell>
        <mxCell id="qc3atoFF0dB7BFC949ch-52" value="&lt;font style=&quot;font-size: 24px&quot; face=&quot;Lucida Console&quot;&gt;M&lt;/font&gt;" style="ellipse;whiteSpace=wrap;html=1;aspect=fixed;fillColor=#d5e8d4;strokeColor=#82b366;" parent="qc3atoFF0dB7BFC949ch-51" vertex="1">
          <mxGeometry x="54" width="40" height="40" as="geometry" />
        </mxCell>
        <mxCell id="qc3atoFF0dB7BFC949ch-53" value="&lt;font style=&quot;font-size: 24px&quot; face=&quot;Lucida Console&quot;&gt;L&lt;/font&gt;" style="ellipse;whiteSpace=wrap;html=1;aspect=fixed;fillColor=#d5e8d4;strokeColor=#82b366;" parent="qc3atoFF0dB7BFC949ch-51" vertex="1">
          <mxGeometry width="40" height="40" as="geometry" />
        </mxCell>
        <mxCell id="qc3atoFF0dB7BFC949ch-54" style="edgeStyle=none;rounded=0;jumpStyle=none;orthogonalLoop=1;jettySize=auto;html=1;exitX=0.5;exitY=0;exitDx=0;exitDy=0;entryX=1;entryY=1;entryDx=0;entryDy=0;endArrow=none;endFill=0;strokeColor=#99CCFF;strokeWidth=3;" parent="1" source="qc3atoFF0dB7BFC949ch-55" target="qc3atoFF0dB7BFC949ch-43" edge="1">
          <mxGeometry x="650" y="880" as="geometry" />
        </mxCell>
        <mxCell id="qc3atoFF0dB7BFC949ch-55" value="&lt;font style=&quot;font-size: 24px&quot; face=&quot;Lucida Console&quot;&gt;I&lt;/font&gt;" style="ellipse;whiteSpace=wrap;html=1;aspect=fixed;fillColor=#d5e8d4;strokeColor=#82b366;" parent="1" vertex="1">
          <mxGeometry x="704" y="1093" width="40" height="40" as="geometry" />
        </mxCell>
        <mxCell id="qc3atoFF0dB7BFC949ch-56" value="&lt;font style=&quot;font-size: 24px&quot; face=&quot;Lucida Console&quot;&gt;H&lt;/font&gt;" style="ellipse;whiteSpace=wrap;html=1;aspect=fixed;fillColor=#d5e8d4;strokeColor=#82b366;" parent="1" vertex="1">
          <mxGeometry x="650" y="1093" width="40" height="40" as="geometry" />
        </mxCell>
        <mxCell id="qc3atoFF0dB7BFC949ch-57" style="edgeStyle=none;rounded=0;jumpStyle=none;orthogonalLoop=1;jettySize=auto;html=1;exitX=0.5;exitY=0;exitDx=0;exitDy=0;entryX=1;entryY=1;entryDx=0;entryDy=0;endArrow=none;endFill=0;strokeColor=#99CCFF;strokeWidth=3;" parent="1" source="qc3atoFF0dB7BFC949ch-58" target="qc3atoFF0dB7BFC949ch-46" edge="1">
          <mxGeometry x="650" y="880" as="geometry" />
        </mxCell>
        <mxCell id="qc3atoFF0dB7BFC949ch-58" value="&lt;font style=&quot;font-size: 24px&quot; face=&quot;Lucida Console&quot;&gt;K&lt;/font&gt;" style="ellipse;whiteSpace=wrap;html=1;aspect=fixed;fillColor=#d5e8d4;strokeColor=#82b366;" parent="1" vertex="1">
          <mxGeometry x="814" y="1093" width="40" height="40" as="geometry" />
        </mxCell>
        <mxCell id="qc3atoFF0dB7BFC949ch-59" style="edgeStyle=none;rounded=0;jumpStyle=none;orthogonalLoop=1;jettySize=auto;html=1;exitX=0.5;exitY=0;exitDx=0;exitDy=0;entryX=0;entryY=1;entryDx=0;entryDy=0;endArrow=none;endFill=0;strokeColor=#99CCFF;strokeWidth=3;" parent="1" source="qc3atoFF0dB7BFC949ch-60" target="qc3atoFF0dB7BFC949ch-46" edge="1">
          <mxGeometry x="650" y="880" as="geometry" />
        </mxCell>
        <mxCell id="qc3atoFF0dB7BFC949ch-60" value="&lt;font style=&quot;font-size: 24px&quot; face=&quot;Lucida Console&quot;&gt;J&lt;/font&gt;" style="ellipse;whiteSpace=wrap;html=1;aspect=fixed;fillColor=#d5e8d4;strokeColor=#82b366;" parent="1" vertex="1">
          <mxGeometry x="760" y="1093" width="40" height="40" as="geometry" />
        </mxCell>
        <mxCell id="qc3atoFF0dB7BFC949ch-65" style="edgeStyle=none;rounded=0;jumpStyle=none;orthogonalLoop=1;jettySize=auto;html=1;exitX=0.5;exitY=0;exitDx=0;exitDy=0;entryX=0;entryY=1;entryDx=0;entryDy=0;endArrow=none;endFill=0;strokeColor=#99CCFF;strokeWidth=3;" parent="1" source="qc3atoFF0dB7BFC949ch-53" target="qc3atoFF0dB7BFC949ch-50" edge="1">
          <mxGeometry x="650" y="880" as="geometry" />
        </mxCell>
        <mxCell id="qc3atoFF0dB7BFC949ch-66" style="edgeStyle=none;rounded=0;jumpStyle=none;orthogonalLoop=1;jettySize=auto;html=1;exitX=0.5;exitY=0;exitDx=0;exitDy=0;entryX=1;entryY=1;entryDx=0;entryDy=0;endArrow=none;endFill=0;strokeColor=#99CCFF;strokeWidth=3;" parent="1" source="qc3atoFF0dB7BFC949ch-52" target="qc3atoFF0dB7BFC949ch-50" edge="1">
          <mxGeometry x="650" y="880" as="geometry" />
        </mxCell>
        <mxCell id="qc3atoFF0dB7BFC949ch-68" value="" style="endArrow=none;dashed=1;html=1;" parent="1" edge="1">
          <mxGeometry x="650" y="880" width="50" height="50" as="geometry">
            <mxPoint x="896" y="899.8" as="sourcePoint" />
            <mxPoint x="1120" y="900" as="targetPoint" />
          </mxGeometry>
        </mxCell>
        <mxCell id="qc3atoFF0dB7BFC949ch-69" value="" style="endArrow=none;dashed=1;html=1;" parent="1" edge="1">
          <mxGeometry x="650" y="880" width="50" height="50" as="geometry">
            <mxPoint x="610" y="900" as="sourcePoint" />
            <mxPoint x="827" y="899.5799999999999" as="targetPoint" />
          </mxGeometry>
        </mxCell>
        <mxCell id="qc3atoFF0dB7BFC949ch-70" value="" style="endArrow=none;dashed=1;html=1;" parent="1" edge="1">
          <mxGeometry x="650" y="880" width="50" height="50" as="geometry">
            <mxPoint x="610" y="983" as="sourcePoint" />
            <mxPoint x="717" y="982.7599999999999" as="targetPoint" />
          </mxGeometry>
        </mxCell>
        <mxCell id="qc3atoFF0dB7BFC949ch-71" value="" style="endArrow=none;dashed=1;html=1;" parent="1" edge="1">
          <mxGeometry x="599" y="949.95" width="50" height="50" as="geometry">
            <mxPoint x="610" y="1053" as="sourcePoint" />
            <mxPoint x="666" y="1052.7099999999998" as="targetPoint" />
          </mxGeometry>
        </mxCell>
        <mxCell id="qc3atoFF0dB7BFC949ch-72" value="" style="endArrow=none;dashed=1;html=1;" parent="1" edge="1">
          <mxGeometry x="573" y="1009.95" width="50" height="50" as="geometry">
            <mxPoint x="610" y="1113" as="sourcePoint" />
            <mxPoint x="640" y="1112.7099999999998" as="targetPoint" />
          </mxGeometry>
        </mxCell>
        <mxCell id="qc3atoFF0dB7BFC949ch-73" value="" style="endArrow=none;dashed=1;html=1;" parent="1" edge="1">
          <mxGeometry x="1051" y="949.95" width="50" height="50" as="geometry">
            <mxPoint x="1062" y="1053" as="sourcePoint" />
            <mxPoint x="1120" y="1053" as="targetPoint" />
          </mxGeometry>
        </mxCell>
        <mxCell id="qc3atoFF0dB7BFC949ch-74" value="" style="endArrow=none;dashed=1;html=1;" parent="1" edge="1">
          <mxGeometry x="761" y="962.91" width="50" height="50" as="geometry">
            <mxPoint x="1007" y="982.7099999999999" as="sourcePoint" />
            <mxPoint x="1120" y="983" as="targetPoint" />
          </mxGeometry>
        </mxCell>
        <mxCell id="qc3atoFF0dB7BFC949ch-77" style="edgeStyle=none;rounded=0;jumpStyle=none;orthogonalLoop=1;jettySize=auto;html=1;exitX=0.5;exitY=0;exitDx=0;exitDy=0;entryX=1;entryY=1;entryDx=0;entryDy=0;endArrow=none;endFill=0;strokeColor=#99CCFF;strokeWidth=3;" parent="1" source="qc3atoFF0dB7BFC949ch-78" target="qc3atoFF0dB7BFC949ch-48" edge="1">
          <mxGeometry relative="1" as="geometry" />
        </mxCell>
        <mxCell id="qc3atoFF0dB7BFC949ch-78" value="&lt;font style=&quot;font-size: 24px&quot; face=&quot;Lucida Console&quot;&gt;O&lt;/font&gt;" style="ellipse;whiteSpace=wrap;html=1;aspect=fixed;fillColor=#d5e8d4;strokeColor=#82b366;" parent="1" vertex="1">
          <mxGeometry x="1035" y="1093" width="40" height="40" as="geometry" />
        </mxCell>
        <mxCell id="qc3atoFF0dB7BFC949ch-79" style="edgeStyle=none;rounded=0;jumpStyle=none;orthogonalLoop=1;jettySize=auto;html=1;exitX=0.5;exitY=0;exitDx=0;exitDy=0;endArrow=none;endFill=0;strokeColor=#99CCFF;strokeWidth=3;entryX=0;entryY=1;entryDx=0;entryDy=0;" parent="1" source="qc3atoFF0dB7BFC949ch-80" target="qc3atoFF0dB7BFC949ch-48" edge="1">
          <mxGeometry relative="1" as="geometry" />
        </mxCell>
        <mxCell id="qc3atoFF0dB7BFC949ch-80" value="&lt;font style=&quot;font-size: 24px&quot; face=&quot;Lucida Console&quot;&gt;N&lt;/font&gt;" style="ellipse;whiteSpace=wrap;html=1;aspect=fixed;fillColor=#d5e8d4;strokeColor=#82b366;" parent="1" vertex="1">
          <mxGeometry x="982" y="1093" width="40" height="40" as="geometry" />
        </mxCell>
        <mxCell id="qc3atoFF0dB7BFC949ch-81" value="" style="endArrow=none;dashed=1;html=1;" parent="1" edge="1">
          <mxGeometry x="1053" y="1010" width="50" height="50" as="geometry">
            <mxPoint x="1090" y="1113.05" as="sourcePoint" />
            <mxPoint x="1120" y="1112.7599999999998" as="targetPoint" />
          </mxGeometry>
        </mxCell>
        <mxCell id="qc3atoFF0dB7BFC949ch-82" value="&lt;font style=&quot;font-size: 18px&quot; face=&quot;Lucida Console&quot;&gt;Level 1&lt;/font&gt;" style="text;html=1;strokeColor=none;fillColor=none;align=center;verticalAlign=middle;whiteSpace=wrap;rounded=0;" parent="1" vertex="1">
          <mxGeometry x="1127" y="890" width="80" height="20" as="geometry" />
        </mxCell>
        <mxCell id="qc3atoFF0dB7BFC949ch-83" value="&lt;font style=&quot;font-size: 18px&quot; face=&quot;Lucida Console&quot;&gt;Level 2&lt;/font&gt;" style="text;html=1;strokeColor=none;fillColor=none;align=center;verticalAlign=middle;whiteSpace=wrap;rounded=0;" parent="1" vertex="1">
          <mxGeometry x="1127" y="973" width="80" height="20" as="geometry" />
        </mxCell>
        <mxCell id="qc3atoFF0dB7BFC949ch-84" value="&lt;font style=&quot;font-size: 18px&quot; face=&quot;Lucida Console&quot;&gt;Level 3&lt;br&gt;&lt;/font&gt;" style="text;html=1;strokeColor=none;fillColor=none;align=center;verticalAlign=middle;whiteSpace=wrap;rounded=0;" parent="1" vertex="1">
          <mxGeometry x="1127" y="1043" width="80" height="20" as="geometry" />
        </mxCell>
        <mxCell id="qc3atoFF0dB7BFC949ch-85" value="&lt;font style=&quot;font-size: 18px&quot; face=&quot;Lucida Console&quot;&gt;Level 4&lt;br&gt;&lt;/font&gt;" style="text;html=1;strokeColor=none;fillColor=none;align=center;verticalAlign=middle;whiteSpace=wrap;rounded=0;" parent="1" vertex="1">
          <mxGeometry x="1127" y="1103" width="80" height="20" as="geometry" />
        </mxCell>
        <mxCell id="qc3atoFF0dB7BFC949ch-86" value="&lt;font style=&quot;font-size: 18px&quot; face=&quot;Lucida Console&quot;&gt;Depth 0&lt;br&gt;&lt;/font&gt;" style="text;html=1;strokeColor=none;fillColor=none;align=center;verticalAlign=middle;whiteSpace=wrap;rounded=0;" parent="1" vertex="1">
          <mxGeometry x="530" y="890" width="80" height="20" as="geometry" />
        </mxCell>
        <mxCell id="qc3atoFF0dB7BFC949ch-87" value="&lt;font style=&quot;font-size: 18px&quot; face=&quot;Lucida Console&quot;&gt;Depth 1&lt;br&gt;&lt;/font&gt;" style="text;html=1;strokeColor=none;fillColor=none;align=center;verticalAlign=middle;whiteSpace=wrap;rounded=0;" parent="1" vertex="1">
          <mxGeometry x="530" y="973" width="80" height="20" as="geometry" />
        </mxCell>
        <mxCell id="qc3atoFF0dB7BFC949ch-88" value="&lt;font style=&quot;font-size: 18px&quot; face=&quot;Lucida Console&quot;&gt;Depth 2&lt;br&gt;&lt;/font&gt;" style="text;html=1;strokeColor=none;fillColor=none;align=center;verticalAlign=middle;whiteSpace=wrap;rounded=0;" parent="1" vertex="1">
          <mxGeometry x="530" y="1043" width="80" height="20" as="geometry" />
        </mxCell>
        <mxCell id="qc3atoFF0dB7BFC949ch-89" value="&lt;font style=&quot;font-size: 18px&quot; face=&quot;Lucida Console&quot;&gt;Depth 3&lt;br&gt;&lt;/font&gt;" style="text;html=1;strokeColor=none;fillColor=none;align=center;verticalAlign=middle;whiteSpace=wrap;rounded=0;" parent="1" vertex="1">
          <mxGeometry x="530" y="1103" width="80" height="20" as="geometry" />
        </mxCell>
        <mxCell id="qc3atoFF0dB7BFC949ch-90" value="&lt;font style=&quot;font-size: 24px&quot; face=&quot;Lucida Console&quot;&gt;1&lt;/font&gt;" style="ellipse;whiteSpace=wrap;html=1;aspect=fixed;fillColor=#d5e8d4;strokeColor=#82b366;" parent="1" vertex="1">
          <mxGeometry x="265" y="880" width="40" height="40" as="geometry" />
        </mxCell>
        <mxCell id="qc3atoFF0dB7BFC949ch-91" style="edgeStyle=none;rounded=0;jumpStyle=none;orthogonalLoop=1;jettySize=auto;html=1;exitX=0.5;exitY=0;exitDx=0;exitDy=0;entryX=1;entryY=1;entryDx=0;entryDy=0;endArrow=none;endFill=0;strokeColor=#99CCFF;strokeWidth=3;" parent="1" source="qc3atoFF0dB7BFC949ch-92" target="qc3atoFF0dB7BFC949ch-90" edge="1">
          <mxGeometry x="73" y="880" as="geometry" />
        </mxCell>
        <mxCell id="qc3atoFF0dB7BFC949ch-92" value="&lt;font style=&quot;font-size: 24px&quot; face=&quot;Lucida Console&quot;&gt;3&lt;/font&gt;" style="ellipse;whiteSpace=wrap;html=1;aspect=fixed;fillColor=#d5e8d4;strokeColor=#82b366;" parent="1" vertex="1">
          <mxGeometry x="375" y="963" width="40" height="40" as="geometry" />
        </mxCell>
        <mxCell id="qc3atoFF0dB7BFC949ch-93" style="edgeStyle=none;rounded=0;jumpStyle=none;orthogonalLoop=1;jettySize=auto;html=1;exitX=0.5;exitY=0;exitDx=0;exitDy=0;entryX=0;entryY=1;entryDx=0;entryDy=0;endArrow=none;endFill=0;strokeColor=#99CCFF;strokeWidth=3;" parent="1" source="qc3atoFF0dB7BFC949ch-94" target="qc3atoFF0dB7BFC949ch-90" edge="1">
          <mxGeometry x="73" y="880" as="geometry" />
        </mxCell>
        <mxCell id="qc3atoFF0dB7BFC949ch-94" value="&lt;font style=&quot;font-size: 24px&quot; face=&quot;Lucida Console&quot;&gt;2&lt;/font&gt;" style="ellipse;whiteSpace=wrap;html=1;aspect=fixed;fillColor=#d5e8d4;strokeColor=#82b366;" parent="1" vertex="1">
          <mxGeometry x="155" y="963" width="40" height="40" as="geometry" />
        </mxCell>
        <mxCell id="qc3atoFF0dB7BFC949ch-95" style="edgeStyle=none;rounded=0;jumpStyle=none;orthogonalLoop=1;jettySize=auto;html=1;exitX=0.5;exitY=0;exitDx=0;exitDy=0;entryX=0;entryY=1;entryDx=0;entryDy=0;endArrow=none;endFill=0;strokeColor=#99CCFF;strokeWidth=3;" parent="1" source="qc3atoFF0dB7BFC949ch-96" target="qc3atoFF0dB7BFC949ch-94" edge="1">
          <mxGeometry x="73" y="880" as="geometry" />
        </mxCell>
        <mxCell id="qc3atoFF0dB7BFC949ch-96" value="&lt;font style=&quot;font-size: 24px&quot; face=&quot;Lucida Console&quot;&gt;4&lt;/font&gt;" style="ellipse;whiteSpace=wrap;html=1;aspect=fixed;fillColor=#d5e8d4;strokeColor=#82b366;" parent="1" vertex="1">
          <mxGeometry x="100" y="1033" width="40" height="40" as="geometry" />
        </mxCell>
        <mxCell id="qc3atoFF0dB7BFC949ch-98" style="edgeStyle=none;rounded=0;jumpStyle=none;orthogonalLoop=1;jettySize=auto;html=1;exitX=0.5;exitY=0;exitDx=0;exitDy=0;entryX=1;entryY=1;entryDx=0;entryDy=0;endArrow=none;endFill=0;strokeColor=#99CCFF;strokeWidth=3;" parent="1" source="qc3atoFF0dB7BFC949ch-99" target="qc3atoFF0dB7BFC949ch-94" edge="1">
          <mxGeometry x="73" y="880" as="geometry" />
        </mxCell>
        <mxCell id="qc3atoFF0dB7BFC949ch-99" value="&lt;font style=&quot;font-size: 24px&quot; face=&quot;Lucida Console&quot;&gt;5&lt;/font&gt;" style="ellipse;whiteSpace=wrap;html=1;aspect=fixed;fillColor=#d5e8d4;strokeColor=#82b366;" parent="1" vertex="1">
          <mxGeometry x="210" y="1033" width="40" height="40" as="geometry" />
        </mxCell>
        <mxCell id="qc3atoFF0dB7BFC949ch-100" style="edgeStyle=none;rounded=0;jumpStyle=none;orthogonalLoop=1;jettySize=auto;html=1;exitX=0.5;exitY=0;exitDx=0;exitDy=0;entryX=1;entryY=1;entryDx=0;entryDy=0;endArrow=none;endFill=0;strokeColor=#99CCFF;strokeWidth=3;" parent="1" source="qc3atoFF0dB7BFC949ch-101" target="qc3atoFF0dB7BFC949ch-92" edge="1">
          <mxGeometry x="73" y="880" as="geometry" />
        </mxCell>
        <mxCell id="qc3atoFF0dB7BFC949ch-101" value="&lt;font style=&quot;font-size: 24px&quot; face=&quot;Lucida Console&quot;&gt;6&lt;/font&gt;" style="ellipse;whiteSpace=wrap;html=1;aspect=fixed;fillColor=#d5e8d4;strokeColor=#82b366;" parent="1" vertex="1">
          <mxGeometry x="430" y="1033" width="40" height="40" as="geometry" />
        </mxCell>
        <mxCell id="qc3atoFF0dB7BFC949ch-110" style="edgeStyle=none;rounded=0;jumpStyle=none;orthogonalLoop=1;jettySize=auto;html=1;exitX=0.5;exitY=0;exitDx=0;exitDy=0;entryX=1;entryY=1;entryDx=0;entryDy=0;endArrow=none;endFill=0;strokeColor=#99CCFF;strokeWidth=3;" parent="1" source="qc3atoFF0dB7BFC949ch-111" target="qc3atoFF0dB7BFC949ch-99" edge="1">
          <mxGeometry x="73" y="880" as="geometry" />
        </mxCell>
        <mxCell id="qc3atoFF0dB7BFC949ch-111" value="&lt;font style=&quot;font-size: 24px&quot; face=&quot;Lucida Console&quot;&gt;8&lt;/font&gt;" style="ellipse;whiteSpace=wrap;html=1;aspect=fixed;fillColor=#d5e8d4;strokeColor=#82b366;" parent="1" vertex="1">
          <mxGeometry x="237" y="1093" width="40" height="40" as="geometry" />
        </mxCell>
        <mxCell id="qc3atoFF0dB7BFC949ch-112" style="edgeStyle=none;rounded=0;jumpStyle=none;orthogonalLoop=1;jettySize=auto;html=1;exitX=0.5;exitY=0;exitDx=0;exitDy=0;entryX=0;entryY=1;entryDx=0;entryDy=0;endArrow=none;endFill=0;strokeColor=#99CCFF;strokeWidth=3;" parent="1" source="qc3atoFF0dB7BFC949ch-113" target="qc3atoFF0dB7BFC949ch-99" edge="1">
          <mxGeometry x="73" y="880" as="geometry" />
        </mxCell>
        <mxCell id="qc3atoFF0dB7BFC949ch-113" value="&lt;font style=&quot;font-size: 24px&quot; face=&quot;Lucida Console&quot;&gt;7&lt;/font&gt;" style="ellipse;whiteSpace=wrap;html=1;aspect=fixed;fillColor=#d5e8d4;strokeColor=#82b366;" parent="1" vertex="1">
          <mxGeometry x="183" y="1093" width="40" height="40" as="geometry" />
        </mxCell>
        <mxCell id="qc3atoFF0dB7BFC949ch-169" style="edgeStyle=none;rounded=0;jumpStyle=none;orthogonalLoop=1;jettySize=auto;html=1;exitX=0.769;exitY=0.07;exitDx=0;exitDy=0;endArrow=none;endFill=0;strokeColor=#99CCFF;strokeWidth=1;exitPerimeter=0;entryX=0.257;entryY=0.939;entryDx=0;entryDy=0;entryPerimeter=0;" parent="1" source="qc3atoFF0dB7BFC949ch-170" target="qc3atoFF0dB7BFC949ch-168" edge="1">
          <mxGeometry x="86" y="1322" as="geometry">
            <mxPoint x="251" y="1354" as="targetPoint" />
          </mxGeometry>
        </mxCell>
        <mxCell id="qc3atoFF0dB7BFC949ch-171" style="edgeStyle=none;rounded=0;jumpStyle=none;orthogonalLoop=1;jettySize=auto;html=1;exitX=0.769;exitY=0.077;exitDx=0;exitDy=0;endArrow=none;endFill=0;strokeColor=#99CCFF;strokeWidth=1;exitPerimeter=0;entryX=0.27;entryY=0.95;entryDx=0;entryDy=0;entryPerimeter=0;" parent="1" source="qc3atoFF0dB7BFC949ch-172" target="qc3atoFF0dB7BFC949ch-170" edge="1">
          <mxGeometry x="86" y="1322" as="geometry">
            <mxPoint x="207" y="1444" as="targetPoint" />
          </mxGeometry>
        </mxCell>
        <mxCell id="qc3atoFF0dB7BFC949ch-176" style="edgeStyle=none;rounded=0;jumpStyle=none;orthogonalLoop=1;jettySize=auto;html=1;endArrow=none;endFill=0;strokeColor=#99CCFF;strokeWidth=3;" parent="1" edge="1">
          <mxGeometry x="1452" y="1307.5" as="geometry">
            <mxPoint x="1496" y="1523.5" as="sourcePoint" />
            <mxPoint x="1634" y="1277.5" as="targetPoint" />
          </mxGeometry>
        </mxCell>
        <mxCell id="qc3atoFF0dB7BFC949ch-179" style="edgeStyle=none;rounded=0;jumpStyle=none;orthogonalLoop=1;jettySize=auto;html=1;exitX=0.746;exitY=0.94;exitDx=0;exitDy=0;endArrow=none;endFill=0;strokeColor=#99CCFF;strokeWidth=1;exitPerimeter=0;entryX=0.27;entryY=0.086;entryDx=0;entryDy=0;entryPerimeter=0;" parent="1" source="qc3atoFF0dB7BFC949ch-180" target="qc3atoFF0dB7BFC949ch-178" edge="1">
          <mxGeometry x="125" y="1778" as="geometry">
            <mxPoint x="290" y="1810" as="targetPoint" />
          </mxGeometry>
        </mxCell>
        <mxCell id="qc3atoFF0dB7BFC949ch-180" value="&lt;font style=&quot;font-size: 24px&quot; face=&quot;Lucida Console&quot;&gt;B&lt;/font&gt;" style="ellipse;whiteSpace=wrap;html=1;aspect=fixed;fillColor=#d5e8d4;strokeColor=#82b366;direction=east;" parent="1" vertex="1">
          <mxGeometry x="177" y="1749" width="40" height="40" as="geometry" />
        </mxCell>
        <mxCell id="qc3atoFF0dB7BFC949ch-181" style="edgeStyle=none;rounded=0;jumpStyle=none;orthogonalLoop=1;jettySize=auto;html=1;endArrow=none;endFill=0;strokeColor=#99CCFF;strokeWidth=1;entryX=0.249;entryY=0.077;entryDx=0;entryDy=0;entryPerimeter=0;exitX=0.749;exitY=0.938;exitDx=0;exitDy=0;exitPerimeter=0;" parent="1" source="qc3atoFF0dB7BFC949ch-182" target="qc3atoFF0dB7BFC949ch-180" edge="1">
          <mxGeometry x="125" y="1778" as="geometry">
            <mxPoint x="246" y="1900" as="targetPoint" />
            <mxPoint x="158" y="1696" as="sourcePoint" />
          </mxGeometry>
        </mxCell>
        <mxCell id="qc3atoFF0dB7BFC949ch-182" value="&lt;font style=&quot;font-size: 24px&quot; face=&quot;Lucida Console&quot;&gt;A&lt;/font&gt;" style="ellipse;whiteSpace=wrap;html=1;aspect=fixed;fillColor=#d5e8d4;strokeColor=#82b366;direction=east;" parent="1" vertex="1">
          <mxGeometry x="126" y="1660" width="40" height="40" as="geometry" />
        </mxCell>
        <mxCell id="qc3atoFF0dB7BFC949ch-178" value="&lt;font style=&quot;font-size: 24px&quot; face=&quot;Lucida Console&quot;&gt;C&lt;/font&gt;" style="ellipse;whiteSpace=wrap;html=1;aspect=fixed;fillColor=#d5e8d4;strokeColor=#82b366;direction=east;" parent="1" vertex="1">
          <mxGeometry x="232" y="1846" width="40" height="40" as="geometry" />
        </mxCell>
        <mxCell id="qc3atoFF0dB7BFC949ch-188" style="edgeStyle=none;rounded=0;jumpStyle=none;orthogonalLoop=1;jettySize=auto;html=1;endArrow=none;endFill=0;strokeColor=#99CCFF;strokeWidth=3;" parent="1" edge="1">
          <mxGeometry x="1626" y="1577" as="geometry">
            <mxPoint x="1610" y="1970" as="sourcePoint" />
            <mxPoint x="1420" y="1640" as="targetPoint" />
          </mxGeometry>
        </mxCell>
        <mxCell id="qc3atoFF0dB7BFC949ch-192" style="edgeStyle=none;rounded=0;jumpStyle=none;orthogonalLoop=1;jettySize=auto;html=1;exitX=0;exitY=0;exitDx=15;exitDy=0;endArrow=none;endFill=0;strokeColor=#99CCFF;strokeWidth=1;exitPerimeter=0;entryX=0.304;entryY=0.955;entryDx=0;entryDy=0;entryPerimeter=0;" parent="1" source="qc3atoFF0dB7BFC949ch-191" target="qc3atoFF0dB7BFC949ch-172" edge="1">
          <mxGeometry x="37.19999999999999" y="1411" as="geometry">
            <mxPoint x="128.95999999999998" y="1585.08" as="sourcePoint" />
            <mxPoint x="157.99999999999972" y="1532.9999999999998" as="targetPoint" />
          </mxGeometry>
        </mxCell>
        <mxCell id="qc3atoFF0dB7BFC949ch-193" style="edgeStyle=none;rounded=0;jumpStyle=none;orthogonalLoop=1;jettySize=auto;html=1;endArrow=none;endFill=0;strokeColor=#99CCFF;strokeWidth=1;entryX=0;entryY=0;entryDx=15;entryDy=0;entryPerimeter=0;exitX=0.65;exitY=0.975;exitDx=0;exitDy=0;exitPerimeter=0;" parent="1" source="qc3atoFF0dB7BFC949ch-172" target="qc3atoFF0dB7BFC949ch-194" edge="1">
          <mxGeometry x="91.16000000000003" y="1523.4" as="geometry">
            <mxPoint x="208.96000000000004" y="1594.8400000000001" as="targetPoint" />
            <mxPoint x="173" y="1532" as="sourcePoint" />
          </mxGeometry>
        </mxCell>
        <mxCell id="qc3atoFF0dB7BFC949ch-198" value="" style="verticalLabelPosition=bottom;verticalAlign=top;html=1;shape=mxgraph.basic.acute_triangle;dx=0.5;fillColor=#ffe6cc;strokeColor=#d79b00;" parent="1" vertex="1">
          <mxGeometry x="227" y="1474" width="30" height="50" as="geometry" />
        </mxCell>
        <mxCell id="qc3atoFF0dB7BFC949ch-199" value="&lt;font face=&quot;Lucida Console&quot;&gt;T3&lt;/font&gt;" style="text;html=1;strokeColor=none;fillColor=none;align=center;verticalAlign=middle;whiteSpace=wrap;rounded=0;" parent="1" vertex="1">
          <mxGeometry x="222" y="1504" width="40" height="20" as="geometry" />
        </mxCell>
        <mxCell id="qc3atoFF0dB7BFC949ch-202" value="" style="verticalLabelPosition=bottom;verticalAlign=top;html=1;shape=mxgraph.basic.acute_triangle;dx=0.5;fillColor=#ffe6cc;strokeColor=#d79b00;" parent="1" vertex="1">
          <mxGeometry x="279" y="1388" width="30" height="50" as="geometry" />
        </mxCell>
        <mxCell id="qc3atoFF0dB7BFC949ch-203" value="&lt;font face=&quot;Lucida Console&quot;&gt;T4&lt;/font&gt;" style="text;html=1;strokeColor=none;fillColor=none;align=center;verticalAlign=middle;whiteSpace=wrap;rounded=0;" parent="1" vertex="1">
          <mxGeometry x="274" y="1418" width="40" height="20" as="geometry" />
        </mxCell>
        <mxCell id="qc3atoFF0dB7BFC949ch-168" value="&lt;font style=&quot;font-size: 24px&quot; face=&quot;Lucida Console&quot;&gt;C&lt;/font&gt;" style="ellipse;whiteSpace=wrap;html=1;aspect=fixed;fillColor=#d5e8d4;strokeColor=#82b366;" parent="1" vertex="1">
          <mxGeometry x="245" y="1320" width="40" height="40" as="geometry" />
        </mxCell>
        <mxCell id="qc3atoFF0dB7BFC949ch-170" value="&lt;font style=&quot;font-size: 24px&quot; face=&quot;Lucida Console&quot;&gt;B&lt;/font&gt;" style="ellipse;whiteSpace=wrap;html=1;aspect=fixed;fillColor=#d5e8d4;strokeColor=#82b366;" parent="1" vertex="1">
          <mxGeometry x="196" y="1406" width="40" height="40" as="geometry" />
        </mxCell>
        <mxCell id="qc3atoFF0dB7BFC949ch-172" value="&lt;font style=&quot;font-size: 24px&quot; face=&quot;Lucida Console&quot;&gt;A&lt;/font&gt;" style="ellipse;whiteSpace=wrap;html=1;aspect=fixed;fillColor=#d5e8d4;strokeColor=#82b366;" parent="1" vertex="1">
          <mxGeometry x="147" y="1493" width="40" height="40" as="geometry" />
        </mxCell>
        <mxCell id="qc3atoFF0dB7BFC949ch-194" value="" style="verticalLabelPosition=bottom;verticalAlign=top;html=1;shape=mxgraph.basic.acute_triangle;dx=0.5;fillColor=#ffe6cc;strokeColor=#d79b00;" parent="1" vertex="1">
          <mxGeometry x="177" y="1562" width="30" height="50" as="geometry" />
        </mxCell>
        <mxCell id="qc3atoFF0dB7BFC949ch-196" value="&lt;font face=&quot;Lucida Console&quot;&gt;T2&lt;/font&gt;" style="text;html=1;strokeColor=none;fillColor=none;align=center;verticalAlign=middle;whiteSpace=wrap;rounded=0;" parent="1" vertex="1">
          <mxGeometry x="172" y="1592" width="40" height="20" as="geometry" />
        </mxCell>
        <mxCell id="qc3atoFF0dB7BFC949ch-191" value="" style="verticalLabelPosition=bottom;verticalAlign=top;html=1;shape=mxgraph.basic.acute_triangle;dx=0.5;fillColor=#ffe6cc;strokeColor=#d79b00;" parent="1" vertex="1">
          <mxGeometry x="127" y="1562" width="30" height="50" as="geometry" />
        </mxCell>
        <mxCell id="qc3atoFF0dB7BFC949ch-195" value="&lt;font face=&quot;Lucida Console&quot;&gt;T1&lt;/font&gt;" style="text;html=1;strokeColor=none;fillColor=none;align=center;verticalAlign=middle;whiteSpace=wrap;rounded=0;" parent="1" vertex="1">
          <mxGeometry x="123" y="1592" width="40" height="20" as="geometry" />
        </mxCell>
        <mxCell id="qc3atoFF0dB7BFC949ch-208" style="edgeStyle=none;rounded=0;jumpStyle=none;orthogonalLoop=1;jettySize=auto;html=1;endArrow=none;endFill=0;strokeColor=#99CCFF;strokeWidth=1;entryX=0;entryY=0;entryDx=15;entryDy=0;entryPerimeter=0;exitX=0.726;exitY=0.909;exitDx=0;exitDy=0;exitPerimeter=0;" parent="1" source="qc3atoFF0dB7BFC949ch-218" target="qc3atoFF0dB7BFC949ch-216" edge="1">
          <mxGeometry x="505.16" y="1477.4" as="geometry">
            <mxPoint x="622.96" y="1548.8400000000001" as="targetPoint" />
            <mxPoint x="586.9999999999998" y="1486" as="sourcePoint" />
          </mxGeometry>
        </mxCell>
        <mxCell id="qc3atoFF0dB7BFC949ch-209" style="edgeStyle=none;rounded=0;jumpStyle=none;orthogonalLoop=1;jettySize=auto;html=1;endArrow=none;endFill=0;strokeColor=#99CCFF;strokeWidth=1;exitX=0.689;exitY=0.97;exitDx=0;exitDy=0;exitPerimeter=0;entryX=0.274;entryY=0.069;entryDx=0;entryDy=0;entryPerimeter=0;" parent="1" source="qc3atoFF0dB7BFC949ch-219" target="qc3atoFF0dB7BFC949ch-218" edge="1">
          <mxGeometry x="462.16" y="1389.4" as="geometry">
            <mxPoint x="575" y="1446" as="targetPoint" />
            <mxPoint x="544" y="1398" as="sourcePoint" />
          </mxGeometry>
        </mxCell>
        <mxCell id="qc3atoFF0dB7BFC949ch-211" style="edgeStyle=none;rounded=0;jumpStyle=none;orthogonalLoop=1;jettySize=auto;html=1;exitX=0.769;exitY=0.077;exitDx=0;exitDy=0;endArrow=none;endFill=0;strokeColor=#99CCFF;strokeWidth=1;exitPerimeter=0;entryX=0.27;entryY=0.95;entryDx=0;entryDy=0;entryPerimeter=0;" parent="1" source="qc3atoFF0dB7BFC949ch-220" target="qc3atoFF0dB7BFC949ch-219" edge="1">
          <mxGeometry x="407" y="1276" as="geometry">
            <mxPoint x="528" y="1398" as="targetPoint" />
          </mxGeometry>
        </mxCell>
        <mxCell id="qc3atoFF0dB7BFC949ch-212" style="edgeStyle=none;rounded=0;jumpStyle=none;orthogonalLoop=1;jettySize=auto;html=1;exitX=0;exitY=0;exitDx=15;exitDy=0;endArrow=none;endFill=0;strokeColor=#99CCFF;strokeWidth=1;exitPerimeter=0;entryX=0.304;entryY=0.955;entryDx=0;entryDy=0;entryPerimeter=0;" parent="1" source="qc3atoFF0dB7BFC949ch-223" target="qc3atoFF0dB7BFC949ch-220" edge="1">
          <mxGeometry x="358.2" y="1365" as="geometry">
            <mxPoint x="449.96" y="1539.08" as="sourcePoint" />
            <mxPoint x="478.9999999999997" y="1486.9999999999998" as="targetPoint" />
          </mxGeometry>
        </mxCell>
        <mxCell id="qc3atoFF0dB7BFC949ch-213" style="edgeStyle=none;rounded=0;jumpStyle=none;orthogonalLoop=1;jettySize=auto;html=1;endArrow=none;endFill=0;strokeColor=#99CCFF;strokeWidth=1;entryX=0;entryY=0;entryDx=15;entryDy=0;entryPerimeter=0;exitX=0.65;exitY=0.975;exitDx=0;exitDy=0;exitPerimeter=0;" parent="1" source="qc3atoFF0dB7BFC949ch-220" target="qc3atoFF0dB7BFC949ch-221" edge="1">
          <mxGeometry x="412.16" y="1477.4" as="geometry">
            <mxPoint x="529.96" y="1548.8400000000001" as="targetPoint" />
            <mxPoint x="494" y="1486" as="sourcePoint" />
          </mxGeometry>
        </mxCell>
        <mxCell id="qc3atoFF0dB7BFC949ch-216" value="" style="verticalLabelPosition=bottom;verticalAlign=top;html=1;shape=mxgraph.basic.acute_triangle;dx=0.5;fillColor=#ffe6cc;strokeColor=#d79b00;" parent="1" vertex="1">
          <mxGeometry x="597" y="1516" width="30" height="50" as="geometry" />
        </mxCell>
        <mxCell id="qc3atoFF0dB7BFC949ch-217" value="&lt;font face=&quot;Lucida Console&quot;&gt;T4&lt;/font&gt;" style="text;html=1;strokeColor=none;fillColor=none;align=center;verticalAlign=middle;whiteSpace=wrap;rounded=0;" parent="1" vertex="1">
          <mxGeometry x="592" y="1546" width="40" height="20" as="geometry" />
        </mxCell>
        <mxCell id="qc3atoFF0dB7BFC949ch-218" value="&lt;font style=&quot;font-size: 24px&quot; face=&quot;Lucida Console&quot;&gt;C&lt;/font&gt;" style="ellipse;whiteSpace=wrap;html=1;aspect=fixed;fillColor=#d5e8d4;strokeColor=#82b366;" parent="1" vertex="1">
          <mxGeometry x="566" y="1447" width="40" height="40" as="geometry" />
        </mxCell>
        <mxCell id="qc3atoFF0dB7BFC949ch-219" value="&lt;font style=&quot;font-size: 24px&quot; face=&quot;Lucida Console&quot;&gt;B&lt;/font&gt;" style="ellipse;whiteSpace=wrap;html=1;aspect=fixed;fillColor=#d5e8d4;strokeColor=#82b366;" parent="1" vertex="1">
          <mxGeometry x="517" y="1360" width="40" height="40" as="geometry" />
        </mxCell>
        <mxCell id="qc3atoFF0dB7BFC949ch-220" value="&lt;font style=&quot;font-size: 24px&quot; face=&quot;Lucida Console&quot;&gt;A&lt;/font&gt;" style="ellipse;whiteSpace=wrap;html=1;aspect=fixed;fillColor=#d5e8d4;strokeColor=#82b366;" parent="1" vertex="1">
          <mxGeometry x="468" y="1447" width="40" height="40" as="geometry" />
        </mxCell>
        <mxCell id="qc3atoFF0dB7BFC949ch-221" value="" style="verticalLabelPosition=bottom;verticalAlign=top;html=1;shape=mxgraph.basic.acute_triangle;dx=0.5;fillColor=#ffe6cc;strokeColor=#d79b00;" parent="1" vertex="1">
          <mxGeometry x="498" y="1516" width="30" height="50" as="geometry" />
        </mxCell>
        <mxCell id="qc3atoFF0dB7BFC949ch-222" value="&lt;font face=&quot;Lucida Console&quot;&gt;T2&lt;/font&gt;" style="text;html=1;strokeColor=none;fillColor=none;align=center;verticalAlign=middle;whiteSpace=wrap;rounded=0;" parent="1" vertex="1">
          <mxGeometry x="493" y="1546" width="40" height="20" as="geometry" />
        </mxCell>
        <mxCell id="qc3atoFF0dB7BFC949ch-223" value="" style="verticalLabelPosition=bottom;verticalAlign=top;html=1;shape=mxgraph.basic.acute_triangle;dx=0.5;fillColor=#ffe6cc;strokeColor=#d79b00;" parent="1" vertex="1">
          <mxGeometry x="448" y="1516" width="30" height="50" as="geometry" />
        </mxCell>
        <mxCell id="qc3atoFF0dB7BFC949ch-224" value="&lt;font face=&quot;Lucida Console&quot;&gt;T1&lt;/font&gt;" style="text;html=1;strokeColor=none;fillColor=none;align=center;verticalAlign=middle;whiteSpace=wrap;rounded=0;" parent="1" vertex="1">
          <mxGeometry x="444" y="1546" width="40" height="20" as="geometry" />
        </mxCell>
        <mxCell id="qc3atoFF0dB7BFC949ch-225" value="" style="shape=flexArrow;endArrow=classic;html=1;strokeWidth=1;" parent="1" edge="1">
          <mxGeometry width="50" height="50" relative="1" as="geometry">
            <mxPoint x="330" y="1466" as="sourcePoint" />
            <mxPoint x="440" y="1466" as="targetPoint" />
          </mxGeometry>
        </mxCell>
        <mxCell id="qc3atoFF0dB7BFC949ch-226" value="B.right = C" style="text;html=1;strokeColor=none;fillColor=none;align=center;verticalAlign=middle;whiteSpace=wrap;rounded=0;" parent="1" vertex="1">
          <mxGeometry x="347" y="1440" width="60" height="20" as="geometry" />
        </mxCell>
        <mxCell id="qc3atoFF0dB7BFC949ch-229" style="edgeStyle=none;rounded=0;jumpStyle=none;orthogonalLoop=1;jettySize=auto;html=1;endArrow=none;endFill=0;strokeColor=#99CCFF;strokeWidth=1;entryX=0;entryY=0;entryDx=15;entryDy=0;entryPerimeter=0;exitX=0.726;exitY=0.909;exitDx=0;exitDy=0;exitPerimeter=0;" parent="1" source="qc3atoFF0dB7BFC949ch-236" target="qc3atoFF0dB7BFC949ch-234" edge="1">
          <mxGeometry x="811.1600000000001" y="1477.4" as="geometry">
            <mxPoint x="928.96" y="1548.8400000000001" as="targetPoint" />
            <mxPoint x="892.9999999999998" y="1486" as="sourcePoint" />
          </mxGeometry>
        </mxCell>
        <mxCell id="qc3atoFF0dB7BFC949ch-230" style="edgeStyle=none;rounded=0;jumpStyle=none;orthogonalLoop=1;jettySize=auto;html=1;endArrow=none;endFill=0;strokeColor=#99CCFF;strokeWidth=1;exitX=0.689;exitY=0.97;exitDx=0;exitDy=0;exitPerimeter=0;entryX=0.274;entryY=0.069;entryDx=0;entryDy=0;entryPerimeter=0;" parent="1" source="qc3atoFF0dB7BFC949ch-237" target="qc3atoFF0dB7BFC949ch-236" edge="1">
          <mxGeometry x="768.1600000000001" y="1389.4" as="geometry">
            <mxPoint x="881" y="1446" as="targetPoint" />
            <mxPoint x="850" y="1398" as="sourcePoint" />
          </mxGeometry>
        </mxCell>
        <mxCell id="qc3atoFF0dB7BFC949ch-231" style="edgeStyle=none;rounded=0;jumpStyle=none;orthogonalLoop=1;jettySize=auto;html=1;exitX=0.769;exitY=0.077;exitDx=0;exitDy=0;endArrow=none;endFill=0;strokeColor=#99CCFF;strokeWidth=1;exitPerimeter=0;entryX=0.27;entryY=0.95;entryDx=0;entryDy=0;entryPerimeter=0;" parent="1" source="qc3atoFF0dB7BFC949ch-238" target="qc3atoFF0dB7BFC949ch-237" edge="1">
          <mxGeometry x="713" y="1276" as="geometry">
            <mxPoint x="834" y="1398" as="targetPoint" />
          </mxGeometry>
        </mxCell>
        <mxCell id="qc3atoFF0dB7BFC949ch-232" style="edgeStyle=none;rounded=0;jumpStyle=none;orthogonalLoop=1;jettySize=auto;html=1;exitX=0;exitY=0;exitDx=15;exitDy=0;endArrow=none;endFill=0;strokeColor=#99CCFF;strokeWidth=1;exitPerimeter=0;entryX=0.304;entryY=0.955;entryDx=0;entryDy=0;entryPerimeter=0;" parent="1" source="qc3atoFF0dB7BFC949ch-241" target="qc3atoFF0dB7BFC949ch-238" edge="1">
          <mxGeometry x="664.2" y="1365" as="geometry">
            <mxPoint x="755.96" y="1539.08" as="sourcePoint" />
            <mxPoint x="784.9999999999998" y="1486.9999999999998" as="targetPoint" />
          </mxGeometry>
        </mxCell>
        <mxCell id="qc3atoFF0dB7BFC949ch-233" style="edgeStyle=none;rounded=0;jumpStyle=none;orthogonalLoop=1;jettySize=auto;html=1;endArrow=none;endFill=0;strokeColor=#99CCFF;strokeWidth=1;entryX=0;entryY=0;entryDx=15;entryDy=0;entryPerimeter=0;exitX=0.65;exitY=0.975;exitDx=0;exitDy=0;exitPerimeter=0;" parent="1" source="qc3atoFF0dB7BFC949ch-238" target="qc3atoFF0dB7BFC949ch-239" edge="1">
          <mxGeometry x="718.1600000000001" y="1477.4" as="geometry">
            <mxPoint x="835.96" y="1548.8400000000001" as="targetPoint" />
            <mxPoint x="800" y="1486" as="sourcePoint" />
          </mxGeometry>
        </mxCell>
        <mxCell id="qc3atoFF0dB7BFC949ch-234" value="" style="verticalLabelPosition=bottom;verticalAlign=top;html=1;shape=mxgraph.basic.acute_triangle;dx=0.5;fillColor=#ffe6cc;strokeColor=#d79b00;" parent="1" vertex="1">
          <mxGeometry x="903" y="1516" width="30" height="50" as="geometry" />
        </mxCell>
        <mxCell id="qc3atoFF0dB7BFC949ch-235" value="&lt;font face=&quot;Lucida Console&quot;&gt;T4&lt;/font&gt;" style="text;html=1;strokeColor=none;fillColor=none;align=center;verticalAlign=middle;whiteSpace=wrap;rounded=0;" parent="1" vertex="1">
          <mxGeometry x="898" y="1546" width="40" height="20" as="geometry" />
        </mxCell>
        <mxCell id="qc3atoFF0dB7BFC949ch-236" value="&lt;font style=&quot;font-size: 24px&quot; face=&quot;Lucida Console&quot;&gt;C&lt;/font&gt;" style="ellipse;whiteSpace=wrap;html=1;aspect=fixed;fillColor=#d5e8d4;strokeColor=#82b366;" parent="1" vertex="1">
          <mxGeometry x="872" y="1447" width="40" height="40" as="geometry" />
        </mxCell>
        <mxCell id="qc3atoFF0dB7BFC949ch-237" value="&lt;font style=&quot;font-size: 24px&quot; face=&quot;Lucida Console&quot;&gt;B&lt;/font&gt;" style="ellipse;whiteSpace=wrap;html=1;aspect=fixed;fillColor=#d5e8d4;strokeColor=#82b366;" parent="1" vertex="1">
          <mxGeometry x="823" y="1360" width="40" height="40" as="geometry" />
        </mxCell>
        <mxCell id="qc3atoFF0dB7BFC949ch-238" value="&lt;font style=&quot;font-size: 24px&quot; face=&quot;Lucida Console&quot;&gt;A&lt;/font&gt;" style="ellipse;whiteSpace=wrap;html=1;aspect=fixed;fillColor=#d5e8d4;strokeColor=#82b366;" parent="1" vertex="1">
          <mxGeometry x="774" y="1447" width="40" height="40" as="geometry" />
        </mxCell>
        <mxCell id="qc3atoFF0dB7BFC949ch-239" value="" style="verticalLabelPosition=bottom;verticalAlign=top;html=1;shape=mxgraph.basic.acute_triangle;dx=0.5;fillColor=#ffe6cc;strokeColor=#d79b00;" parent="1" vertex="1">
          <mxGeometry x="804" y="1516" width="30" height="50" as="geometry" />
        </mxCell>
        <mxCell id="qc3atoFF0dB7BFC949ch-240" value="&lt;font face=&quot;Lucida Console&quot;&gt;T2&lt;/font&gt;" style="text;html=1;strokeColor=none;fillColor=none;align=center;verticalAlign=middle;whiteSpace=wrap;rounded=0;" parent="1" vertex="1">
          <mxGeometry x="799" y="1546" width="40" height="20" as="geometry" />
        </mxCell>
        <mxCell id="qc3atoFF0dB7BFC949ch-241" value="" style="verticalLabelPosition=bottom;verticalAlign=top;html=1;shape=mxgraph.basic.acute_triangle;dx=0.5;fillColor=#ffe6cc;strokeColor=#d79b00;" parent="1" vertex="1">
          <mxGeometry x="754" y="1516" width="30" height="50" as="geometry" />
        </mxCell>
        <mxCell id="qc3atoFF0dB7BFC949ch-242" value="&lt;font face=&quot;Lucida Console&quot;&gt;T1&lt;/font&gt;" style="text;html=1;strokeColor=none;fillColor=none;align=center;verticalAlign=middle;whiteSpace=wrap;rounded=0;" parent="1" vertex="1">
          <mxGeometry x="750" y="1546" width="40" height="20" as="geometry" />
        </mxCell>
        <mxCell id="qc3atoFF0dB7BFC949ch-243" value="C.left = T3" style="text;html=1;strokeColor=none;fillColor=none;align=center;verticalAlign=middle;whiteSpace=wrap;rounded=0;" parent="1" vertex="1">
          <mxGeometry x="654" y="1441" width="60" height="20" as="geometry" />
        </mxCell>
        <mxCell id="qc3atoFF0dB7BFC949ch-244" value="" style="shape=flexArrow;endArrow=classic;html=1;strokeWidth=1;" parent="1" edge="1">
          <mxGeometry width="50" height="50" relative="1" as="geometry">
            <mxPoint x="639" y="1466.5" as="sourcePoint" />
            <mxPoint x="749" y="1466.5" as="targetPoint" />
          </mxGeometry>
        </mxCell>
        <mxCell id="qc3atoFF0dB7BFC949ch-246" value="" style="verticalLabelPosition=bottom;verticalAlign=top;html=1;shape=mxgraph.basic.acute_triangle;dx=0.5;fillColor=#ffe6cc;strokeColor=#d79b00;" parent="1" vertex="1">
          <mxGeometry x="851" y="1516" width="30" height="50" as="geometry" />
        </mxCell>
        <mxCell id="qc3atoFF0dB7BFC949ch-247" value="&lt;font face=&quot;Lucida Console&quot;&gt;T3&lt;/font&gt;" style="text;html=1;strokeColor=none;fillColor=none;align=center;verticalAlign=middle;whiteSpace=wrap;rounded=0;" parent="1" vertex="1">
          <mxGeometry x="847" y="1546" width="40" height="20" as="geometry" />
        </mxCell>
        <mxCell id="qc3atoFF0dB7BFC949ch-252" value="" style="verticalLabelPosition=bottom;verticalAlign=top;html=1;shape=mxgraph.basic.acute_triangle;dx=0.5;fillColor=#ffe6cc;strokeColor=#d79b00;" parent="1" vertex="1">
          <mxGeometry x="263" y="1914.8" width="30" height="50" as="geometry" />
        </mxCell>
        <mxCell id="qc3atoFF0dB7BFC949ch-253" value="&lt;font face=&quot;Lucida Console&quot;&gt;T2&lt;/font&gt;" style="text;html=1;strokeColor=none;fillColor=none;align=center;verticalAlign=middle;whiteSpace=wrap;rounded=0;" parent="1" vertex="1">
          <mxGeometry x="258" y="1944.8" width="40" height="20" as="geometry" />
        </mxCell>
        <mxCell id="qc3atoFF0dB7BFC949ch-254" value="" style="verticalLabelPosition=bottom;verticalAlign=top;html=1;shape=mxgraph.basic.acute_triangle;dx=0.5;fillColor=#ffe6cc;strokeColor=#d79b00;" parent="1" vertex="1">
          <mxGeometry x="213" y="1914.8" width="30" height="50" as="geometry" />
        </mxCell>
        <mxCell id="qc3atoFF0dB7BFC949ch-255" value="&lt;font face=&quot;Lucida Console&quot;&gt;T1&lt;/font&gt;" style="text;html=1;strokeColor=none;fillColor=none;align=center;verticalAlign=middle;whiteSpace=wrap;rounded=0;" parent="1" vertex="1">
          <mxGeometry x="209" y="1944.8" width="40" height="20" as="geometry" />
        </mxCell>
        <mxCell id="qc3atoFF0dB7BFC949ch-257" value="" style="verticalLabelPosition=bottom;verticalAlign=top;html=1;shape=mxgraph.basic.acute_triangle;dx=0.5;fillColor=#ffe6cc;strokeColor=#d79b00;" parent="1" vertex="1">
          <mxGeometry x="106" y="1728.8" width="30" height="50" as="geometry" />
        </mxCell>
        <mxCell id="qc3atoFF0dB7BFC949ch-258" value="&lt;font face=&quot;Lucida Console&quot;&gt;T4&lt;/font&gt;" style="text;html=1;strokeColor=none;fillColor=none;align=center;verticalAlign=middle;whiteSpace=wrap;rounded=0;" parent="1" vertex="1">
          <mxGeometry x="102" y="1758.8" width="40" height="20" as="geometry" />
        </mxCell>
        <mxCell id="qc3atoFF0dB7BFC949ch-261" value="" style="verticalLabelPosition=bottom;verticalAlign=top;html=1;shape=mxgraph.basic.acute_triangle;dx=0.5;fillColor=#ffe6cc;strokeColor=#d79b00;" parent="1" vertex="1">
          <mxGeometry x="156" y="1817.8" width="30" height="50" as="geometry" />
        </mxCell>
        <mxCell id="qc3atoFF0dB7BFC949ch-262" value="&lt;font face=&quot;Lucida Console&quot;&gt;T3&lt;/font&gt;" style="text;html=1;strokeColor=none;fillColor=none;align=center;verticalAlign=middle;whiteSpace=wrap;rounded=0;" parent="1" vertex="1">
          <mxGeometry x="152" y="1847.8" width="40" height="20" as="geometry" />
        </mxCell>
        <mxCell id="qc3atoFF0dB7BFC949ch-264" value="" style="shape=flexArrow;endArrow=classic;html=1;strokeWidth=1;" parent="1" edge="1">
          <mxGeometry width="50" height="50" relative="1" as="geometry">
            <mxPoint x="329" y="1804.8" as="sourcePoint" />
            <mxPoint x="439" y="1804.8" as="targetPoint" />
          </mxGeometry>
        </mxCell>
        <mxCell id="qc3atoFF0dB7BFC949ch-265" value="B.left = A" style="text;html=1;strokeColor=none;fillColor=none;align=center;verticalAlign=middle;whiteSpace=wrap;rounded=0;" parent="1" vertex="1">
          <mxGeometry x="346" y="1778.8" width="60" height="20" as="geometry" />
        </mxCell>
        <mxCell id="qc3atoFF0dB7BFC949ch-280" style="edgeStyle=none;rounded=0;jumpStyle=none;orthogonalLoop=1;jettySize=auto;html=1;exitX=0;exitY=0;exitDx=15;exitDy=0;endArrow=none;endFill=0;strokeColor=#99CCFF;strokeWidth=1;exitPerimeter=0;entryX=0.286;entryY=0.935;entryDx=0;entryDy=0;entryPerimeter=0;" parent="1" source="qc3atoFF0dB7BFC949ch-295" target="qc3atoFF0dB7BFC949ch-288" edge="1">
          <mxGeometry x="460.20000000000005" y="1705" as="geometry">
            <mxPoint x="551.96" y="1879.08" as="sourcePoint" />
            <mxPoint x="582.1599999999999" y="1825.1999999999998" as="targetPoint" />
          </mxGeometry>
        </mxCell>
        <mxCell id="qc3atoFF0dB7BFC949ch-281" style="edgeStyle=none;rounded=0;jumpStyle=none;orthogonalLoop=1;jettySize=auto;html=1;endArrow=none;endFill=0;strokeColor=#99CCFF;strokeWidth=1;entryX=0;entryY=0;entryDx=15;entryDy=0;entryPerimeter=0;exitX=0.726;exitY=0.909;exitDx=0;exitDy=0;exitPerimeter=0;" parent="1" source="qc3atoFF0dB7BFC949ch-288" target="qc3atoFF0dB7BFC949ch-286" edge="1">
          <mxGeometry x="510.1600000000001" y="1817.4" as="geometry">
            <mxPoint x="627.96" y="1888.8400000000001" as="targetPoint" />
            <mxPoint x="591.9999999999998" y="1826" as="sourcePoint" />
          </mxGeometry>
        </mxCell>
        <mxCell id="qc3atoFF0dB7BFC949ch-282" style="edgeStyle=none;rounded=0;jumpStyle=none;orthogonalLoop=1;jettySize=auto;html=1;endArrow=none;endFill=0;strokeColor=#99CCFF;strokeWidth=1;exitX=0.689;exitY=0.97;exitDx=0;exitDy=0;exitPerimeter=0;entryX=0.274;entryY=0.069;entryDx=0;entryDy=0;entryPerimeter=0;" parent="1" source="qc3atoFF0dB7BFC949ch-289" target="qc3atoFF0dB7BFC949ch-288" edge="1">
          <mxGeometry x="467.1600000000001" y="1729.4" as="geometry">
            <mxPoint x="580" y="1786" as="targetPoint" />
            <mxPoint x="549" y="1738" as="sourcePoint" />
          </mxGeometry>
        </mxCell>
        <mxCell id="qc3atoFF0dB7BFC949ch-283" style="edgeStyle=none;rounded=0;jumpStyle=none;orthogonalLoop=1;jettySize=auto;html=1;exitX=0.769;exitY=0.077;exitDx=0;exitDy=0;endArrow=none;endFill=0;strokeColor=#99CCFF;strokeWidth=1;exitPerimeter=0;entryX=0.27;entryY=0.95;entryDx=0;entryDy=0;entryPerimeter=0;" parent="1" source="qc3atoFF0dB7BFC949ch-290" target="qc3atoFF0dB7BFC949ch-289" edge="1">
          <mxGeometry x="412" y="1616" as="geometry">
            <mxPoint x="533" y="1738" as="targetPoint" />
          </mxGeometry>
        </mxCell>
        <mxCell id="qc3atoFF0dB7BFC949ch-284" style="edgeStyle=none;rounded=0;jumpStyle=none;orthogonalLoop=1;jettySize=auto;html=1;exitX=0;exitY=0;exitDx=15;exitDy=0;endArrow=none;endFill=0;strokeColor=#99CCFF;strokeWidth=1;exitPerimeter=0;entryX=0.304;entryY=0.955;entryDx=0;entryDy=0;entryPerimeter=0;" parent="1" source="qc3atoFF0dB7BFC949ch-293" target="qc3atoFF0dB7BFC949ch-290" edge="1">
          <mxGeometry x="363.20000000000005" y="1705" as="geometry">
            <mxPoint x="454.96000000000004" y="1879.08" as="sourcePoint" />
            <mxPoint x="483.9999999999998" y="1826.9999999999998" as="targetPoint" />
          </mxGeometry>
        </mxCell>
        <mxCell id="qc3atoFF0dB7BFC949ch-286" value="" style="verticalLabelPosition=bottom;verticalAlign=top;html=1;shape=mxgraph.basic.acute_triangle;dx=0.5;fillColor=#ffe6cc;strokeColor=#d79b00;" parent="1" vertex="1">
          <mxGeometry x="602" y="1856" width="30" height="50" as="geometry" />
        </mxCell>
        <mxCell id="qc3atoFF0dB7BFC949ch-287" value="&lt;font face=&quot;Lucida Console&quot;&gt;T2&lt;/font&gt;" style="text;html=1;strokeColor=none;fillColor=none;align=center;verticalAlign=middle;whiteSpace=wrap;rounded=0;" parent="1" vertex="1">
          <mxGeometry x="597" y="1886" width="40" height="20" as="geometry" />
        </mxCell>
        <mxCell id="qc3atoFF0dB7BFC949ch-288" value="&lt;font style=&quot;font-size: 24px&quot; face=&quot;Lucida Console&quot;&gt;C&lt;/font&gt;" style="ellipse;whiteSpace=wrap;html=1;aspect=fixed;fillColor=#d5e8d4;strokeColor=#82b366;" parent="1" vertex="1">
          <mxGeometry x="571" y="1787" width="40" height="40" as="geometry" />
        </mxCell>
        <mxCell id="qc3atoFF0dB7BFC949ch-289" value="&lt;font style=&quot;font-size: 24px&quot; face=&quot;Lucida Console&quot;&gt;B&lt;/font&gt;" style="ellipse;whiteSpace=wrap;html=1;aspect=fixed;fillColor=#d5e8d4;strokeColor=#82b366;" parent="1" vertex="1">
          <mxGeometry x="522" y="1700" width="40" height="40" as="geometry" />
        </mxCell>
        <mxCell id="qc3atoFF0dB7BFC949ch-290" value="&lt;font style=&quot;font-size: 24px&quot; face=&quot;Lucida Console&quot;&gt;A&lt;/font&gt;" style="ellipse;whiteSpace=wrap;html=1;aspect=fixed;fillColor=#d5e8d4;strokeColor=#82b366;" parent="1" vertex="1">
          <mxGeometry x="473" y="1787" width="40" height="40" as="geometry" />
        </mxCell>
        <mxCell id="qc3atoFF0dB7BFC949ch-293" value="" style="verticalLabelPosition=bottom;verticalAlign=top;html=1;shape=mxgraph.basic.acute_triangle;dx=0.5;fillColor=#ffe6cc;strokeColor=#d79b00;" parent="1" vertex="1">
          <mxGeometry x="453" y="1856" width="30" height="50" as="geometry" />
        </mxCell>
        <mxCell id="qc3atoFF0dB7BFC949ch-294" value="&lt;font face=&quot;Lucida Console&quot;&gt;T4&lt;/font&gt;" style="text;html=1;strokeColor=none;fillColor=none;align=center;verticalAlign=middle;whiteSpace=wrap;rounded=0;" parent="1" vertex="1">
          <mxGeometry x="449" y="1886" width="40" height="20" as="geometry" />
        </mxCell>
        <mxCell id="qc3atoFF0dB7BFC949ch-295" value="" style="verticalLabelPosition=bottom;verticalAlign=top;html=1;shape=mxgraph.basic.acute_triangle;dx=0.5;fillColor=#ffe6cc;strokeColor=#d79b00;" parent="1" vertex="1">
          <mxGeometry x="550" y="1856" width="30" height="50" as="geometry" />
        </mxCell>
        <mxCell id="qc3atoFF0dB7BFC949ch-296" value="&lt;font face=&quot;Lucida Console&quot;&gt;T1&lt;/font&gt;" style="text;html=1;strokeColor=none;fillColor=none;align=center;verticalAlign=middle;whiteSpace=wrap;rounded=0;" parent="1" vertex="1">
          <mxGeometry x="546" y="1886" width="40" height="20" as="geometry" />
        </mxCell>
        <mxCell id="qc3atoFF0dB7BFC949ch-297" style="edgeStyle=none;rounded=0;jumpStyle=none;orthogonalLoop=1;jettySize=auto;html=1;exitX=0;exitY=0;exitDx=15;exitDy=0;endArrow=none;endFill=0;strokeColor=#99CCFF;strokeWidth=1;exitPerimeter=0;entryX=0.286;entryY=0.935;entryDx=0;entryDy=0;entryPerimeter=0;" parent="1" source="qc3atoFF0dB7BFC949ch-312" target="qc3atoFF0dB7BFC949ch-305" edge="1">
          <mxGeometry x="782.2" y="1705" as="geometry">
            <mxPoint x="873.96" y="1879.08" as="sourcePoint" />
            <mxPoint x="904.1599999999999" y="1825.1999999999998" as="targetPoint" />
          </mxGeometry>
        </mxCell>
        <mxCell id="qc3atoFF0dB7BFC949ch-298" style="edgeStyle=none;rounded=0;jumpStyle=none;orthogonalLoop=1;jettySize=auto;html=1;endArrow=none;endFill=0;strokeColor=#99CCFF;strokeWidth=1;entryX=0;entryY=0;entryDx=15;entryDy=0;entryPerimeter=0;exitX=0.726;exitY=0.909;exitDx=0;exitDy=0;exitPerimeter=0;" parent="1" source="qc3atoFF0dB7BFC949ch-305" target="qc3atoFF0dB7BFC949ch-303" edge="1">
          <mxGeometry x="832.1600000000001" y="1817.4" as="geometry">
            <mxPoint x="949.96" y="1888.8400000000001" as="targetPoint" />
            <mxPoint x="913.9999999999998" y="1826" as="sourcePoint" />
          </mxGeometry>
        </mxCell>
        <mxCell id="qc3atoFF0dB7BFC949ch-299" style="edgeStyle=none;rounded=0;jumpStyle=none;orthogonalLoop=1;jettySize=auto;html=1;endArrow=none;endFill=0;strokeColor=#99CCFF;strokeWidth=1;exitX=0.689;exitY=0.97;exitDx=0;exitDy=0;exitPerimeter=0;entryX=0.274;entryY=0.069;entryDx=0;entryDy=0;entryPerimeter=0;" parent="1" source="qc3atoFF0dB7BFC949ch-306" target="qc3atoFF0dB7BFC949ch-305" edge="1">
          <mxGeometry x="789.1600000000001" y="1729.4" as="geometry">
            <mxPoint x="902" y="1786" as="targetPoint" />
            <mxPoint x="871" y="1738" as="sourcePoint" />
          </mxGeometry>
        </mxCell>
        <mxCell id="qc3atoFF0dB7BFC949ch-300" style="edgeStyle=none;rounded=0;jumpStyle=none;orthogonalLoop=1;jettySize=auto;html=1;exitX=0.769;exitY=0.077;exitDx=0;exitDy=0;endArrow=none;endFill=0;strokeColor=#99CCFF;strokeWidth=1;exitPerimeter=0;entryX=0.27;entryY=0.95;entryDx=0;entryDy=0;entryPerimeter=0;" parent="1" source="qc3atoFF0dB7BFC949ch-307" target="qc3atoFF0dB7BFC949ch-306" edge="1">
          <mxGeometry x="734" y="1616" as="geometry">
            <mxPoint x="855" y="1738" as="targetPoint" />
          </mxGeometry>
        </mxCell>
        <mxCell id="qc3atoFF0dB7BFC949ch-301" style="edgeStyle=none;rounded=0;jumpStyle=none;orthogonalLoop=1;jettySize=auto;html=1;exitX=0;exitY=0;exitDx=15;exitDy=0;endArrow=none;endFill=0;strokeColor=#99CCFF;strokeWidth=1;exitPerimeter=0;entryX=0.304;entryY=0.955;entryDx=0;entryDy=0;entryPerimeter=0;" parent="1" source="qc3atoFF0dB7BFC949ch-310" target="qc3atoFF0dB7BFC949ch-307" edge="1">
          <mxGeometry x="685.2" y="1705" as="geometry">
            <mxPoint x="776.96" y="1879.08" as="sourcePoint" />
            <mxPoint x="805.9999999999998" y="1826.9999999999998" as="targetPoint" />
          </mxGeometry>
        </mxCell>
        <mxCell id="qc3atoFF0dB7BFC949ch-302" style="edgeStyle=none;rounded=0;jumpStyle=none;orthogonalLoop=1;jettySize=auto;html=1;endArrow=none;endFill=0;strokeColor=#99CCFF;strokeWidth=1;entryX=0;entryY=0;entryDx=15;entryDy=0;entryPerimeter=0;exitX=0.65;exitY=0.975;exitDx=0;exitDy=0;exitPerimeter=0;" parent="1" source="qc3atoFF0dB7BFC949ch-307" target="qc3atoFF0dB7BFC949ch-308" edge="1">
          <mxGeometry x="739.1600000000001" y="1817.4" as="geometry">
            <mxPoint x="856.96" y="1888.8400000000001" as="targetPoint" />
            <mxPoint x="821" y="1826" as="sourcePoint" />
          </mxGeometry>
        </mxCell>
        <mxCell id="qc3atoFF0dB7BFC949ch-303" value="" style="verticalLabelPosition=bottom;verticalAlign=top;html=1;shape=mxgraph.basic.acute_triangle;dx=0.5;fillColor=#ffe6cc;strokeColor=#d79b00;" parent="1" vertex="1">
          <mxGeometry x="924" y="1856" width="30" height="50" as="geometry" />
        </mxCell>
        <mxCell id="qc3atoFF0dB7BFC949ch-304" value="&lt;font face=&quot;Lucida Console&quot;&gt;T2&lt;/font&gt;" style="text;html=1;strokeColor=none;fillColor=none;align=center;verticalAlign=middle;whiteSpace=wrap;rounded=0;" parent="1" vertex="1">
          <mxGeometry x="919" y="1886" width="40" height="20" as="geometry" />
        </mxCell>
        <mxCell id="qc3atoFF0dB7BFC949ch-305" value="&lt;font style=&quot;font-size: 24px&quot; face=&quot;Lucida Console&quot;&gt;C&lt;/font&gt;" style="ellipse;whiteSpace=wrap;html=1;aspect=fixed;fillColor=#d5e8d4;strokeColor=#82b366;" parent="1" vertex="1">
          <mxGeometry x="893" y="1787" width="40" height="40" as="geometry" />
        </mxCell>
        <mxCell id="qc3atoFF0dB7BFC949ch-306" value="&lt;font style=&quot;font-size: 24px&quot; face=&quot;Lucida Console&quot;&gt;B&lt;/font&gt;" style="ellipse;whiteSpace=wrap;html=1;aspect=fixed;fillColor=#d5e8d4;strokeColor=#82b366;" parent="1" vertex="1">
          <mxGeometry x="844" y="1700" width="40" height="40" as="geometry" />
        </mxCell>
        <mxCell id="qc3atoFF0dB7BFC949ch-307" value="&lt;font style=&quot;font-size: 24px&quot; face=&quot;Lucida Console&quot;&gt;A&lt;/font&gt;" style="ellipse;whiteSpace=wrap;html=1;aspect=fixed;fillColor=#d5e8d4;strokeColor=#82b366;" parent="1" vertex="1">
          <mxGeometry x="795" y="1787" width="40" height="40" as="geometry" />
        </mxCell>
        <mxCell id="qc3atoFF0dB7BFC949ch-308" value="" style="verticalLabelPosition=bottom;verticalAlign=top;html=1;shape=mxgraph.basic.acute_triangle;dx=0.5;fillColor=#ffe6cc;strokeColor=#d79b00;" parent="1" vertex="1">
          <mxGeometry x="825" y="1856" width="30" height="50" as="geometry" />
        </mxCell>
        <mxCell id="qc3atoFF0dB7BFC949ch-309" value="&lt;font face=&quot;Lucida Console&quot;&gt;T3&lt;/font&gt;" style="text;html=1;strokeColor=none;fillColor=none;align=center;verticalAlign=middle;whiteSpace=wrap;rounded=0;" parent="1" vertex="1">
          <mxGeometry x="820" y="1886" width="40" height="20" as="geometry" />
        </mxCell>
        <mxCell id="qc3atoFF0dB7BFC949ch-310" value="" style="verticalLabelPosition=bottom;verticalAlign=top;html=1;shape=mxgraph.basic.acute_triangle;dx=0.5;fillColor=#ffe6cc;strokeColor=#d79b00;" parent="1" vertex="1">
          <mxGeometry x="775" y="1856" width="30" height="50" as="geometry" />
        </mxCell>
        <mxCell id="qc3atoFF0dB7BFC949ch-311" value="&lt;font face=&quot;Lucida Console&quot;&gt;T4&lt;/font&gt;" style="text;html=1;strokeColor=none;fillColor=none;align=center;verticalAlign=middle;whiteSpace=wrap;rounded=0;" parent="1" vertex="1">
          <mxGeometry x="771" y="1886" width="40" height="20" as="geometry" />
        </mxCell>
        <mxCell id="qc3atoFF0dB7BFC949ch-312" value="" style="verticalLabelPosition=bottom;verticalAlign=top;html=1;shape=mxgraph.basic.acute_triangle;dx=0.5;fillColor=#ffe6cc;strokeColor=#d79b00;" parent="1" vertex="1">
          <mxGeometry x="872" y="1856" width="30" height="50" as="geometry" />
        </mxCell>
        <mxCell id="qc3atoFF0dB7BFC949ch-313" value="&lt;font face=&quot;Lucida Console&quot;&gt;T1&lt;/font&gt;" style="text;html=1;strokeColor=none;fillColor=none;align=center;verticalAlign=middle;whiteSpace=wrap;rounded=0;" parent="1" vertex="1">
          <mxGeometry x="868" y="1886" width="40" height="20" as="geometry" />
        </mxCell>
        <mxCell id="qc3atoFF0dB7BFC949ch-314" value="A.right = T3" style="text;html=1;strokeColor=none;fillColor=none;align=center;verticalAlign=middle;whiteSpace=wrap;rounded=0;" parent="1" vertex="1">
          <mxGeometry x="656" y="1778.8" width="79" height="20" as="geometry" />
        </mxCell>
        <mxCell id="qc3atoFF0dB7BFC949ch-315" value="" style="shape=flexArrow;endArrow=classic;html=1;strokeWidth=1;" parent="1" edge="1">
          <mxGeometry width="50" height="50" relative="1" as="geometry">
            <mxPoint x="651" y="1804.3" as="sourcePoint" />
            <mxPoint x="761" y="1804.3" as="targetPoint" />
          </mxGeometry>
        </mxCell>
        <mxCell id="qc3atoFF0dB7BFC949ch-316" style="edgeStyle=none;rounded=0;jumpStyle=none;orthogonalLoop=1;jettySize=auto;html=1;exitX=0;exitY=0;exitDx=15;exitDy=0;endArrow=none;endFill=0;strokeColor=#99CCFF;strokeWidth=1;exitPerimeter=0;entryX=0.277;entryY=0.954;entryDx=0;entryDy=0;entryPerimeter=0;" parent="1" source="qc3atoFF0dB7BFC949ch-331" target="qc3atoFF0dB7BFC949ch-321" edge="1">
          <mxGeometry x="413.2" y="2406.8" as="geometry">
            <mxPoint x="504.96000000000004" y="2580.88" as="sourcePoint" />
            <mxPoint x="535.1600000000001" y="2527" as="targetPoint" />
          </mxGeometry>
        </mxCell>
        <mxCell id="qc3atoFF0dB7BFC949ch-317" style="edgeStyle=none;rounded=0;jumpStyle=none;orthogonalLoop=1;jettySize=auto;html=1;exitX=0;exitY=0;exitDx=15;exitDy=0;endArrow=none;endFill=0;strokeColor=#99CCFF;strokeWidth=1;exitPerimeter=0;entryX=0.299;entryY=0.96;entryDx=0;entryDy=0;entryPerimeter=0;" parent="1" source="qc3atoFF0dB7BFC949ch-329" target="qc3atoFF0dB7BFC949ch-323" edge="1">
          <mxGeometry x="363.2" y="2317.8" as="geometry">
            <mxPoint x="454.96" y="2491.88" as="sourcePoint" />
            <mxPoint x="485.1600000000001" y="2438" as="targetPoint" />
          </mxGeometry>
        </mxCell>
        <mxCell id="qc3atoFF0dB7BFC949ch-318" style="edgeStyle=none;rounded=0;jumpStyle=none;orthogonalLoop=1;jettySize=auto;html=1;exitX=0;exitY=0;exitDx=15;exitDy=0;endArrow=none;endFill=0;strokeColor=#99CCFF;strokeWidth=1;exitPerimeter=0;entryX=0.323;entryY=0.964;entryDx=0;entryDy=0;entryPerimeter=0;" parent="1" source="qc3atoFF0dB7BFC949ch-327" target="qc3atoFF0dB7BFC949ch-324" edge="1">
          <mxGeometry x="470.2" y="2503.8" as="geometry">
            <mxPoint x="561.96" y="2677.88" as="sourcePoint" />
            <mxPoint x="592.1600000000001" y="2624" as="targetPoint" />
          </mxGeometry>
        </mxCell>
        <mxCell id="qc3atoFF0dB7BFC949ch-319" style="edgeStyle=none;rounded=0;jumpStyle=none;orthogonalLoop=1;jettySize=auto;html=1;endArrow=none;endFill=0;strokeColor=#99CCFF;strokeWidth=1;entryX=0;entryY=0;entryDx=15;entryDy=0;entryPerimeter=0;exitX=0.678;exitY=0.97;exitDx=0;exitDy=0;exitPerimeter=0;" parent="1" source="qc3atoFF0dB7BFC949ch-324" target="qc3atoFF0dB7BFC949ch-325" edge="1">
          <mxGeometry x="524.1600000000001" y="2616.2" as="geometry">
            <mxPoint x="641.96" y="2687.6400000000003" as="targetPoint" />
            <mxPoint x="606" y="2624.8" as="sourcePoint" />
          </mxGeometry>
        </mxCell>
        <mxCell id="qc3atoFF0dB7BFC949ch-320" style="edgeStyle=none;rounded=0;jumpStyle=none;orthogonalLoop=1;jettySize=auto;html=1;exitX=0.746;exitY=0.94;exitDx=0;exitDy=0;endArrow=none;endFill=0;strokeColor=#99CCFF;strokeWidth=1;exitPerimeter=0;entryX=0.27;entryY=0.086;entryDx=0;entryDy=0;entryPerimeter=0;" parent="1" source="qc3atoFF0dB7BFC949ch-321" target="qc3atoFF0dB7BFC949ch-324" edge="1">
          <mxGeometry x="472" y="2518" as="geometry">
            <mxPoint x="637" y="2550" as="targetPoint" />
          </mxGeometry>
        </mxCell>
        <mxCell id="qc3atoFF0dB7BFC949ch-321" value="&lt;font style=&quot;font-size: 24px&quot; face=&quot;Lucida Console&quot;&gt;B&lt;/font&gt;" style="ellipse;whiteSpace=wrap;html=1;aspect=fixed;fillColor=#d5e8d4;strokeColor=#82b366;direction=east;" parent="1" vertex="1">
          <mxGeometry x="524" y="2489" width="40" height="40" as="geometry" />
        </mxCell>
        <mxCell id="qc3atoFF0dB7BFC949ch-322" style="edgeStyle=none;rounded=0;jumpStyle=none;orthogonalLoop=1;jettySize=auto;html=1;endArrow=none;endFill=0;strokeColor=#99CCFF;strokeWidth=1;entryX=0.249;entryY=0.077;entryDx=0;entryDy=0;entryPerimeter=0;exitX=0.749;exitY=0.938;exitDx=0;exitDy=0;exitPerimeter=0;" parent="1" source="qc3atoFF0dB7BFC949ch-323" target="qc3atoFF0dB7BFC949ch-321" edge="1">
          <mxGeometry x="472" y="2518" as="geometry">
            <mxPoint x="593" y="2640" as="targetPoint" />
            <mxPoint x="505" y="2436" as="sourcePoint" />
          </mxGeometry>
        </mxCell>
        <mxCell id="qc3atoFF0dB7BFC949ch-323" value="&lt;font style=&quot;font-size: 24px&quot; face=&quot;Lucida Console&quot;&gt;A&lt;/font&gt;" style="ellipse;whiteSpace=wrap;html=1;aspect=fixed;fillColor=#d5e8d4;strokeColor=#82b366;direction=east;" parent="1" vertex="1">
          <mxGeometry x="473" y="2400" width="40" height="40" as="geometry" />
        </mxCell>
        <mxCell id="qc3atoFF0dB7BFC949ch-324" value="&lt;font style=&quot;font-size: 24px&quot; face=&quot;Lucida Console&quot;&gt;C&lt;/font&gt;" style="ellipse;whiteSpace=wrap;html=1;aspect=fixed;fillColor=#d5e8d4;strokeColor=#82b366;direction=east;" parent="1" vertex="1">
          <mxGeometry x="579" y="2586" width="40" height="40" as="geometry" />
        </mxCell>
        <mxCell id="qc3atoFF0dB7BFC949ch-325" value="" style="verticalLabelPosition=bottom;verticalAlign=top;html=1;shape=mxgraph.basic.acute_triangle;dx=0.5;fillColor=#ffe6cc;strokeColor=#d79b00;" parent="1" vertex="1">
          <mxGeometry x="610" y="2654.8" width="30" height="50" as="geometry" />
        </mxCell>
        <mxCell id="qc3atoFF0dB7BFC949ch-326" value="&lt;font face=&quot;Lucida Console&quot;&gt;T2&lt;/font&gt;" style="text;html=1;strokeColor=none;fillColor=none;align=center;verticalAlign=middle;whiteSpace=wrap;rounded=0;" parent="1" vertex="1">
          <mxGeometry x="605" y="2684.8" width="40" height="20" as="geometry" />
        </mxCell>
        <mxCell id="qc3atoFF0dB7BFC949ch-327" value="" style="verticalLabelPosition=bottom;verticalAlign=top;html=1;shape=mxgraph.basic.acute_triangle;dx=0.5;fillColor=#ffe6cc;strokeColor=#d79b00;" parent="1" vertex="1">
          <mxGeometry x="560" y="2654.8" width="30" height="50" as="geometry" />
        </mxCell>
        <mxCell id="qc3atoFF0dB7BFC949ch-328" value="&lt;font face=&quot;Lucida Console&quot;&gt;T1&lt;/font&gt;" style="text;html=1;strokeColor=none;fillColor=none;align=center;verticalAlign=middle;whiteSpace=wrap;rounded=0;" parent="1" vertex="1">
          <mxGeometry x="556" y="2684.8" width="40" height="20" as="geometry" />
        </mxCell>
        <mxCell id="qc3atoFF0dB7BFC949ch-329" value="" style="verticalLabelPosition=bottom;verticalAlign=top;html=1;shape=mxgraph.basic.acute_triangle;dx=0.5;fillColor=#ffe6cc;strokeColor=#d79b00;" parent="1" vertex="1">
          <mxGeometry x="453" y="2468.8" width="30" height="50" as="geometry" />
        </mxCell>
        <mxCell id="qc3atoFF0dB7BFC949ch-330" value="&lt;font face=&quot;Lucida Console&quot;&gt;T4&lt;/font&gt;" style="text;html=1;strokeColor=none;fillColor=none;align=center;verticalAlign=middle;whiteSpace=wrap;rounded=0;" parent="1" vertex="1">
          <mxGeometry x="449" y="2498.8" width="40" height="20" as="geometry" />
        </mxCell>
        <mxCell id="qc3atoFF0dB7BFC949ch-331" value="" style="verticalLabelPosition=bottom;verticalAlign=top;html=1;shape=mxgraph.basic.acute_triangle;dx=0.5;fillColor=#ffe6cc;strokeColor=#d79b00;" parent="1" vertex="1">
          <mxGeometry x="503" y="2557.8" width="30" height="50" as="geometry" />
        </mxCell>
        <mxCell id="qc3atoFF0dB7BFC949ch-332" value="&lt;font face=&quot;Lucida Console&quot;&gt;T3&lt;/font&gt;" style="text;html=1;strokeColor=none;fillColor=none;align=center;verticalAlign=middle;whiteSpace=wrap;rounded=0;" parent="1" vertex="1">
          <mxGeometry x="499" y="2587.8" width="40" height="20" as="geometry" />
        </mxCell>
        <mxCell id="qc3atoFF0dB7BFC949ch-333" style="edgeStyle=none;rounded=0;jumpStyle=none;orthogonalLoop=1;jettySize=auto;html=1;endArrow=none;endFill=0;strokeColor=#99CCFF;strokeWidth=1;entryX=0;entryY=0;entryDx=15;entryDy=0;entryPerimeter=0;exitX=0.726;exitY=0.909;exitDx=0;exitDy=0;exitPerimeter=0;" parent="1" source="qc3atoFF0dB7BFC949ch-343" target="qc3atoFF0dB7BFC949ch-341" edge="1">
          <mxGeometry x="514.1600000000001" y="2078.4" as="geometry">
            <mxPoint x="631.96" y="2149.84" as="targetPoint" />
            <mxPoint x="595.9999999999998" y="2087" as="sourcePoint" />
          </mxGeometry>
        </mxCell>
        <mxCell id="qc3atoFF0dB7BFC949ch-334" style="edgeStyle=none;rounded=0;jumpStyle=none;orthogonalLoop=1;jettySize=auto;html=1;endArrow=none;endFill=0;strokeColor=#99CCFF;strokeWidth=1;entryX=0;entryY=0;entryDx=15;entryDy=0;entryPerimeter=0;exitX=0.689;exitY=0.97;exitDx=0;exitDy=0;exitPerimeter=0;" parent="1" source="qc3atoFF0dB7BFC949ch-344" target="qc3atoFF0dB7BFC949ch-339" edge="1">
          <mxGeometry x="462.1600000000001" y="2164.4" as="geometry">
            <mxPoint x="563" y="2203" as="targetPoint" />
            <mxPoint x="544" y="2173" as="sourcePoint" />
          </mxGeometry>
        </mxCell>
        <mxCell id="qc3atoFF0dB7BFC949ch-335" style="edgeStyle=none;rounded=0;jumpStyle=none;orthogonalLoop=1;jettySize=auto;html=1;exitX=0.769;exitY=0.07;exitDx=0;exitDy=0;endArrow=none;endFill=0;strokeColor=#99CCFF;strokeWidth=1;exitPerimeter=0;entryX=0.257;entryY=0.939;entryDx=0;entryDy=0;entryPerimeter=0;" parent="1" source="qc3atoFF0dB7BFC949ch-344" target="qc3atoFF0dB7BFC949ch-343" edge="1">
          <mxGeometry x="407" y="2051" as="geometry">
            <mxPoint x="572" y="2083" as="targetPoint" />
          </mxGeometry>
        </mxCell>
        <mxCell id="qc3atoFF0dB7BFC949ch-336" style="edgeStyle=none;rounded=0;jumpStyle=none;orthogonalLoop=1;jettySize=auto;html=1;exitX=0.769;exitY=0.077;exitDx=0;exitDy=0;endArrow=none;endFill=0;strokeColor=#99CCFF;strokeWidth=1;exitPerimeter=0;entryX=0.27;entryY=0.95;entryDx=0;entryDy=0;entryPerimeter=0;" parent="1" source="qc3atoFF0dB7BFC949ch-345" target="qc3atoFF0dB7BFC949ch-344" edge="1">
          <mxGeometry x="407" y="2051" as="geometry">
            <mxPoint x="528" y="2173" as="targetPoint" />
          </mxGeometry>
        </mxCell>
        <mxCell id="qc3atoFF0dB7BFC949ch-337" style="edgeStyle=none;rounded=0;jumpStyle=none;orthogonalLoop=1;jettySize=auto;html=1;exitX=0;exitY=0;exitDx=15;exitDy=0;endArrow=none;endFill=0;strokeColor=#99CCFF;strokeWidth=1;exitPerimeter=0;entryX=0.304;entryY=0.955;entryDx=0;entryDy=0;entryPerimeter=0;" parent="1" source="qc3atoFF0dB7BFC949ch-348" target="qc3atoFF0dB7BFC949ch-345" edge="1">
          <mxGeometry x="358.20000000000005" y="2140" as="geometry">
            <mxPoint x="449.96000000000004" y="2314.08" as="sourcePoint" />
            <mxPoint x="478.9999999999998" y="2262" as="targetPoint" />
          </mxGeometry>
        </mxCell>
        <mxCell id="qc3atoFF0dB7BFC949ch-338" style="edgeStyle=none;rounded=0;jumpStyle=none;orthogonalLoop=1;jettySize=auto;html=1;endArrow=none;endFill=0;strokeColor=#99CCFF;strokeWidth=1;entryX=0;entryY=0;entryDx=15;entryDy=0;entryPerimeter=0;exitX=0.65;exitY=0.975;exitDx=0;exitDy=0;exitPerimeter=0;" parent="1" source="qc3atoFF0dB7BFC949ch-345" target="qc3atoFF0dB7BFC949ch-346" edge="1">
          <mxGeometry x="412.1600000000001" y="2252.4" as="geometry">
            <mxPoint x="529.96" y="2323.84" as="targetPoint" />
            <mxPoint x="494" y="2261" as="sourcePoint" />
          </mxGeometry>
        </mxCell>
        <mxCell id="qc3atoFF0dB7BFC949ch-339" value="" style="verticalLabelPosition=bottom;verticalAlign=top;html=1;shape=mxgraph.basic.acute_triangle;dx=0.5;fillColor=#ffe6cc;strokeColor=#d79b00;" parent="1" vertex="1">
          <mxGeometry x="548" y="2203" width="30" height="50" as="geometry" />
        </mxCell>
        <mxCell id="qc3atoFF0dB7BFC949ch-340" value="&lt;font face=&quot;Lucida Console&quot;&gt;T3&lt;/font&gt;" style="text;html=1;strokeColor=none;fillColor=none;align=center;verticalAlign=middle;whiteSpace=wrap;rounded=0;" parent="1" vertex="1">
          <mxGeometry x="543" y="2233" width="40" height="20" as="geometry" />
        </mxCell>
        <mxCell id="qc3atoFF0dB7BFC949ch-341" value="" style="verticalLabelPosition=bottom;verticalAlign=top;html=1;shape=mxgraph.basic.acute_triangle;dx=0.5;fillColor=#ffe6cc;strokeColor=#d79b00;" parent="1" vertex="1">
          <mxGeometry x="600" y="2117" width="30" height="50" as="geometry" />
        </mxCell>
        <mxCell id="qc3atoFF0dB7BFC949ch-342" value="&lt;font face=&quot;Lucida Console&quot;&gt;T4&lt;/font&gt;" style="text;html=1;strokeColor=none;fillColor=none;align=center;verticalAlign=middle;whiteSpace=wrap;rounded=0;" parent="1" vertex="1">
          <mxGeometry x="595" y="2147" width="40" height="20" as="geometry" />
        </mxCell>
        <mxCell id="qc3atoFF0dB7BFC949ch-343" value="&lt;font style=&quot;font-size: 24px&quot; face=&quot;Lucida Console&quot;&gt;C&lt;/font&gt;" style="ellipse;whiteSpace=wrap;html=1;aspect=fixed;fillColor=#d5e8d4;strokeColor=#82b366;" parent="1" vertex="1">
          <mxGeometry x="566" y="2049" width="40" height="40" as="geometry" />
        </mxCell>
        <mxCell id="qc3atoFF0dB7BFC949ch-344" value="&lt;font style=&quot;font-size: 24px&quot; face=&quot;Lucida Console&quot;&gt;B&lt;/font&gt;" style="ellipse;whiteSpace=wrap;html=1;aspect=fixed;fillColor=#d5e8d4;strokeColor=#82b366;" parent="1" vertex="1">
          <mxGeometry x="517" y="2135" width="40" height="40" as="geometry" />
        </mxCell>
        <mxCell id="qc3atoFF0dB7BFC949ch-345" value="&lt;font style=&quot;font-size: 24px&quot; face=&quot;Lucida Console&quot;&gt;A&lt;/font&gt;" style="ellipse;whiteSpace=wrap;html=1;aspect=fixed;fillColor=#d5e8d4;strokeColor=#82b366;" parent="1" vertex="1">
          <mxGeometry x="468" y="2222" width="40" height="40" as="geometry" />
        </mxCell>
        <mxCell id="qc3atoFF0dB7BFC949ch-346" value="" style="verticalLabelPosition=bottom;verticalAlign=top;html=1;shape=mxgraph.basic.acute_triangle;dx=0.5;fillColor=#ffe6cc;strokeColor=#d79b00;" parent="1" vertex="1">
          <mxGeometry x="498" y="2291" width="30" height="50" as="geometry" />
        </mxCell>
        <mxCell id="qc3atoFF0dB7BFC949ch-347" value="&lt;font face=&quot;Lucida Console&quot;&gt;T2&lt;/font&gt;" style="text;html=1;strokeColor=none;fillColor=none;align=center;verticalAlign=middle;whiteSpace=wrap;rounded=0;" parent="1" vertex="1">
          <mxGeometry x="493" y="2321" width="40" height="20" as="geometry" />
        </mxCell>
        <mxCell id="qc3atoFF0dB7BFC949ch-348" value="" style="verticalLabelPosition=bottom;verticalAlign=top;html=1;shape=mxgraph.basic.acute_triangle;dx=0.5;fillColor=#ffe6cc;strokeColor=#d79b00;" parent="1" vertex="1">
          <mxGeometry x="448" y="2291" width="30" height="50" as="geometry" />
        </mxCell>
        <mxCell id="qc3atoFF0dB7BFC949ch-349" value="&lt;font face=&quot;Lucida Console&quot;&gt;T1&lt;/font&gt;" style="text;html=1;strokeColor=none;fillColor=none;align=center;verticalAlign=middle;whiteSpace=wrap;rounded=0;" parent="1" vertex="1">
          <mxGeometry x="444" y="2321" width="40" height="20" as="geometry" />
        </mxCell>
        <mxCell id="qc3atoFF0dB7BFC949ch-350" style="edgeStyle=none;rounded=0;jumpStyle=none;orthogonalLoop=1;jettySize=auto;html=1;exitX=0;exitY=0;exitDx=15;exitDy=0;endArrow=none;endFill=0;strokeColor=#99CCFF;strokeWidth=1;exitPerimeter=0;entryX=0.286;entryY=0.935;entryDx=0;entryDy=0;entryPerimeter=0;" parent="1" source="qc3atoFF0dB7BFC949ch-365" target="qc3atoFF0dB7BFC949ch-358" edge="1">
          <mxGeometry x="785.2" y="2105" as="geometry">
            <mxPoint x="876.96" y="2279.08" as="sourcePoint" />
            <mxPoint x="907.1599999999999" y="2225.2" as="targetPoint" />
          </mxGeometry>
        </mxCell>
        <mxCell id="qc3atoFF0dB7BFC949ch-351" style="edgeStyle=none;rounded=0;jumpStyle=none;orthogonalLoop=1;jettySize=auto;html=1;endArrow=none;endFill=0;strokeColor=#99CCFF;strokeWidth=1;entryX=0;entryY=0;entryDx=15;entryDy=0;entryPerimeter=0;exitX=0.726;exitY=0.909;exitDx=0;exitDy=0;exitPerimeter=0;" parent="1" source="qc3atoFF0dB7BFC949ch-358" target="qc3atoFF0dB7BFC949ch-356" edge="1">
          <mxGeometry x="835.1600000000001" y="2217.4" as="geometry">
            <mxPoint x="952.96" y="2288.84" as="targetPoint" />
            <mxPoint x="916.9999999999998" y="2226" as="sourcePoint" />
          </mxGeometry>
        </mxCell>
        <mxCell id="qc3atoFF0dB7BFC949ch-352" style="edgeStyle=none;rounded=0;jumpStyle=none;orthogonalLoop=1;jettySize=auto;html=1;endArrow=none;endFill=0;strokeColor=#99CCFF;strokeWidth=1;exitX=0.689;exitY=0.97;exitDx=0;exitDy=0;exitPerimeter=0;entryX=0.274;entryY=0.069;entryDx=0;entryDy=0;entryPerimeter=0;" parent="1" source="qc3atoFF0dB7BFC949ch-359" target="qc3atoFF0dB7BFC949ch-358" edge="1">
          <mxGeometry x="792.1600000000001" y="2129.4" as="geometry">
            <mxPoint x="905" y="2186" as="targetPoint" />
            <mxPoint x="874" y="2138" as="sourcePoint" />
          </mxGeometry>
        </mxCell>
        <mxCell id="qc3atoFF0dB7BFC949ch-353" style="edgeStyle=none;rounded=0;jumpStyle=none;orthogonalLoop=1;jettySize=auto;html=1;exitX=0.769;exitY=0.077;exitDx=0;exitDy=0;endArrow=none;endFill=0;strokeColor=#99CCFF;strokeWidth=1;exitPerimeter=0;entryX=0.27;entryY=0.95;entryDx=0;entryDy=0;entryPerimeter=0;" parent="1" source="qc3atoFF0dB7BFC949ch-360" target="qc3atoFF0dB7BFC949ch-359" edge="1">
          <mxGeometry x="737" y="2016" as="geometry">
            <mxPoint x="858" y="2138" as="targetPoint" />
          </mxGeometry>
        </mxCell>
        <mxCell id="qc3atoFF0dB7BFC949ch-354" style="edgeStyle=none;rounded=0;jumpStyle=none;orthogonalLoop=1;jettySize=auto;html=1;exitX=0;exitY=0;exitDx=15;exitDy=0;endArrow=none;endFill=0;strokeColor=#99CCFF;strokeWidth=1;exitPerimeter=0;entryX=0.304;entryY=0.955;entryDx=0;entryDy=0;entryPerimeter=0;" parent="1" source="qc3atoFF0dB7BFC949ch-363" target="qc3atoFF0dB7BFC949ch-360" edge="1">
          <mxGeometry x="688.2" y="2105" as="geometry">
            <mxPoint x="779.96" y="2279.08" as="sourcePoint" />
            <mxPoint x="808.9999999999998" y="2227" as="targetPoint" />
          </mxGeometry>
        </mxCell>
        <mxCell id="qc3atoFF0dB7BFC949ch-355" style="edgeStyle=none;rounded=0;jumpStyle=none;orthogonalLoop=1;jettySize=auto;html=1;endArrow=none;endFill=0;strokeColor=#99CCFF;strokeWidth=1;entryX=0;entryY=0;entryDx=15;entryDy=0;entryPerimeter=0;exitX=0.65;exitY=0.975;exitDx=0;exitDy=0;exitPerimeter=0;" parent="1" source="qc3atoFF0dB7BFC949ch-360" target="qc3atoFF0dB7BFC949ch-361" edge="1">
          <mxGeometry x="742.1600000000001" y="2217.4" as="geometry">
            <mxPoint x="859.96" y="2288.84" as="targetPoint" />
            <mxPoint x="824" y="2226" as="sourcePoint" />
          </mxGeometry>
        </mxCell>
        <mxCell id="qc3atoFF0dB7BFC949ch-356" value="" style="verticalLabelPosition=bottom;verticalAlign=top;html=1;shape=mxgraph.basic.acute_triangle;dx=0.5;fillColor=#ffe6cc;strokeColor=#d79b00;" parent="1" vertex="1">
          <mxGeometry x="927" y="2256" width="30" height="50" as="geometry" />
        </mxCell>
        <mxCell id="qc3atoFF0dB7BFC949ch-357" value="&lt;font face=&quot;Lucida Console&quot;&gt;T4&lt;/font&gt;" style="text;html=1;strokeColor=none;fillColor=none;align=center;verticalAlign=middle;whiteSpace=wrap;rounded=0;" parent="1" vertex="1">
          <mxGeometry x="922" y="2286" width="40" height="20" as="geometry" />
        </mxCell>
        <mxCell id="qc3atoFF0dB7BFC949ch-358" value="&lt;font style=&quot;font-size: 24px&quot; face=&quot;Lucida Console&quot;&gt;C&lt;/font&gt;" style="ellipse;whiteSpace=wrap;html=1;aspect=fixed;fillColor=#d5e8d4;strokeColor=#82b366;" parent="1" vertex="1">
          <mxGeometry x="896" y="2187" width="40" height="40" as="geometry" />
        </mxCell>
        <mxCell id="qc3atoFF0dB7BFC949ch-359" value="&lt;font style=&quot;font-size: 24px&quot; face=&quot;Lucida Console&quot;&gt;B&lt;/font&gt;" style="ellipse;whiteSpace=wrap;html=1;aspect=fixed;fillColor=#d5e8d4;strokeColor=#82b366;" parent="1" vertex="1">
          <mxGeometry x="847" y="2100" width="40" height="40" as="geometry" />
        </mxCell>
        <mxCell id="qc3atoFF0dB7BFC949ch-360" value="&lt;font style=&quot;font-size: 24px&quot; face=&quot;Lucida Console&quot;&gt;A&lt;/font&gt;" style="ellipse;whiteSpace=wrap;html=1;aspect=fixed;fillColor=#d5e8d4;strokeColor=#82b366;" parent="1" vertex="1">
          <mxGeometry x="798" y="2187" width="40" height="40" as="geometry" />
        </mxCell>
        <mxCell id="qc3atoFF0dB7BFC949ch-361" value="" style="verticalLabelPosition=bottom;verticalAlign=top;html=1;shape=mxgraph.basic.acute_triangle;dx=0.5;fillColor=#ffe6cc;strokeColor=#d79b00;" parent="1" vertex="1">
          <mxGeometry x="828" y="2256" width="30" height="50" as="geometry" />
        </mxCell>
        <mxCell id="qc3atoFF0dB7BFC949ch-362" value="&lt;font face=&quot;Lucida Console&quot;&gt;T2&lt;/font&gt;" style="text;html=1;strokeColor=none;fillColor=none;align=center;verticalAlign=middle;whiteSpace=wrap;rounded=0;" parent="1" vertex="1">
          <mxGeometry x="823" y="2286" width="40" height="20" as="geometry" />
        </mxCell>
        <mxCell id="qc3atoFF0dB7BFC949ch-363" value="" style="verticalLabelPosition=bottom;verticalAlign=top;html=1;shape=mxgraph.basic.acute_triangle;dx=0.5;fillColor=#ffe6cc;strokeColor=#d79b00;" parent="1" vertex="1">
          <mxGeometry x="778" y="2256" width="30" height="50" as="geometry" />
        </mxCell>
        <mxCell id="qc3atoFF0dB7BFC949ch-364" value="&lt;font face=&quot;Lucida Console&quot;&gt;T1&lt;/font&gt;" style="text;html=1;strokeColor=none;fillColor=none;align=center;verticalAlign=middle;whiteSpace=wrap;rounded=0;" parent="1" vertex="1">
          <mxGeometry x="774" y="2286" width="40" height="20" as="geometry" />
        </mxCell>
        <mxCell id="qc3atoFF0dB7BFC949ch-365" value="" style="verticalLabelPosition=bottom;verticalAlign=top;html=1;shape=mxgraph.basic.acute_triangle;dx=0.5;fillColor=#ffe6cc;strokeColor=#d79b00;" parent="1" vertex="1">
          <mxGeometry x="875" y="2256" width="30" height="50" as="geometry" />
        </mxCell>
        <mxCell id="qc3atoFF0dB7BFC949ch-366" value="&lt;font face=&quot;Lucida Console&quot;&gt;T3&lt;/font&gt;" style="text;html=1;strokeColor=none;fillColor=none;align=center;verticalAlign=middle;whiteSpace=wrap;rounded=0;" parent="1" vertex="1">
          <mxGeometry x="871" y="2286" width="40" height="20" as="geometry" />
        </mxCell>
        <mxCell id="qc3atoFF0dB7BFC949ch-367" style="edgeStyle=none;rounded=0;jumpStyle=none;orthogonalLoop=1;jettySize=auto;html=1;endArrow=none;endFill=0;strokeColor=#99CCFF;strokeWidth=1;entryX=0;entryY=0;entryDx=15;entryDy=0;entryPerimeter=0;exitX=0.726;exitY=0.909;exitDx=0;exitDy=0;exitPerimeter=0;" parent="1" source="qc3atoFF0dB7BFC949ch-377" target="qc3atoFF0dB7BFC949ch-375" edge="1">
          <mxGeometry x="175.16000000000008" y="2078.6" as="geometry">
            <mxPoint x="292.96000000000004" y="2150.04" as="targetPoint" />
            <mxPoint x="256.9999999999998" y="2087.2" as="sourcePoint" />
          </mxGeometry>
        </mxCell>
        <mxCell id="qc3atoFF0dB7BFC949ch-368" style="edgeStyle=none;rounded=0;jumpStyle=none;orthogonalLoop=1;jettySize=auto;html=1;endArrow=none;endFill=0;strokeColor=#99CCFF;strokeWidth=1;entryX=0.269;entryY=0.069;entryDx=0;entryDy=0;entryPerimeter=0;exitX=0.689;exitY=0.97;exitDx=0;exitDy=0;exitPerimeter=0;" parent="1" source="qc3atoFF0dB7BFC949ch-378" target="qc3atoFF0dB7BFC949ch-385" edge="1">
          <mxGeometry x="123.16000000000008" y="2164.6" as="geometry">
            <mxPoint x="224" y="2203.2" as="targetPoint" />
            <mxPoint x="205" y="2173.2" as="sourcePoint" />
          </mxGeometry>
        </mxCell>
        <mxCell id="qc3atoFF0dB7BFC949ch-369" style="edgeStyle=none;rounded=0;jumpStyle=none;orthogonalLoop=1;jettySize=auto;html=1;exitX=0.769;exitY=0.07;exitDx=0;exitDy=0;endArrow=none;endFill=0;strokeColor=#99CCFF;strokeWidth=1;exitPerimeter=0;entryX=0.257;entryY=0.939;entryDx=0;entryDy=0;entryPerimeter=0;" parent="1" source="qc3atoFF0dB7BFC949ch-378" target="qc3atoFF0dB7BFC949ch-377" edge="1">
          <mxGeometry x="68" y="2051.2" as="geometry">
            <mxPoint x="233" y="2083.2" as="targetPoint" />
          </mxGeometry>
        </mxCell>
        <mxCell id="qc3atoFF0dB7BFC949ch-371" style="edgeStyle=none;rounded=0;jumpStyle=none;orthogonalLoop=1;jettySize=auto;html=1;exitX=0;exitY=0;exitDx=15;exitDy=0;endArrow=none;endFill=0;strokeColor=#99CCFF;strokeWidth=1;exitPerimeter=0;entryX=0.304;entryY=0.955;entryDx=0;entryDy=0;entryPerimeter=0;" parent="1" source="qc3atoFF0dB7BFC949ch-382" edge="1">
          <mxGeometry x="67.20000000000005" y="2053" as="geometry">
            <mxPoint x="158.96000000000004" y="2227.08" as="sourcePoint" />
            <mxPoint x="189.15999999999997" y="2173.2" as="targetPoint" />
          </mxGeometry>
        </mxCell>
        <mxCell id="qc3atoFF0dB7BFC949ch-375" value="" style="verticalLabelPosition=bottom;verticalAlign=top;html=1;shape=mxgraph.basic.acute_triangle;dx=0.5;fillColor=#ffe6cc;strokeColor=#d79b00;" parent="1" vertex="1">
          <mxGeometry x="261" y="2117.2" width="30" height="50" as="geometry" />
        </mxCell>
        <mxCell id="qc3atoFF0dB7BFC949ch-376" value="&lt;font face=&quot;Lucida Console&quot;&gt;T4&lt;/font&gt;" style="text;html=1;strokeColor=none;fillColor=none;align=center;verticalAlign=middle;whiteSpace=wrap;rounded=0;" parent="1" vertex="1">
          <mxGeometry x="256" y="2147.2" width="40" height="20" as="geometry" />
        </mxCell>
        <mxCell id="qc3atoFF0dB7BFC949ch-377" value="&lt;font style=&quot;font-size: 24px&quot; face=&quot;Lucida Console&quot;&gt;C&lt;/font&gt;" style="ellipse;whiteSpace=wrap;html=1;aspect=fixed;fillColor=#d5e8d4;strokeColor=#82b366;" parent="1" vertex="1">
          <mxGeometry x="227" y="2049.2" width="40" height="40" as="geometry" />
        </mxCell>
        <mxCell id="qc3atoFF0dB7BFC949ch-378" value="&lt;font style=&quot;font-size: 24px&quot; face=&quot;Lucida Console&quot;&gt;A&lt;/font&gt;" style="ellipse;whiteSpace=wrap;html=1;aspect=fixed;fillColor=#d5e8d4;strokeColor=#82b366;" parent="1" vertex="1">
          <mxGeometry x="178" y="2135.2" width="40" height="40" as="geometry" />
        </mxCell>
        <mxCell id="qc3atoFF0dB7BFC949ch-382" value="" style="verticalLabelPosition=bottom;verticalAlign=top;html=1;shape=mxgraph.basic.acute_triangle;dx=0.5;fillColor=#ffe6cc;strokeColor=#d79b00;" parent="1" vertex="1">
          <mxGeometry x="157" y="2204" width="30" height="50" as="geometry" />
        </mxCell>
        <mxCell id="qc3atoFF0dB7BFC949ch-383" value="&lt;font face=&quot;Lucida Console&quot;&gt;T1&lt;/font&gt;" style="text;html=1;strokeColor=none;fillColor=none;align=center;verticalAlign=middle;whiteSpace=wrap;rounded=0;" parent="1" vertex="1">
          <mxGeometry x="154" y="2234" width="40" height="20" as="geometry" />
        </mxCell>
        <mxCell id="qc3atoFF0dB7BFC949ch-385" value="&lt;font style=&quot;font-size: 24px&quot; face=&quot;Lucida Console&quot;&gt;B&lt;/font&gt;" style="ellipse;whiteSpace=wrap;html=1;aspect=fixed;fillColor=#d5e8d4;strokeColor=#82b366;" parent="1" vertex="1">
          <mxGeometry x="227" y="2222.2" width="40" height="40" as="geometry" />
        </mxCell>
        <mxCell id="qc3atoFF0dB7BFC949ch-386" style="edgeStyle=none;rounded=0;jumpStyle=none;orthogonalLoop=1;jettySize=auto;html=1;exitX=0;exitY=0;exitDx=15;exitDy=0;endArrow=none;endFill=0;strokeColor=#99CCFF;strokeWidth=1;exitPerimeter=0;entryX=0.304;entryY=0.955;entryDx=0;entryDy=0;entryPerimeter=0;" parent="1" source="qc3atoFF0dB7BFC949ch-390" edge="1">
          <mxGeometry x="117.70000000000005" y="2140" as="geometry">
            <mxPoint x="209.46000000000004" y="2314.08" as="sourcePoint" />
            <mxPoint x="239.66000000000008" y="2260.2000000000003" as="targetPoint" />
          </mxGeometry>
        </mxCell>
        <mxCell id="qc3atoFF0dB7BFC949ch-387" style="edgeStyle=none;rounded=0;jumpStyle=none;orthogonalLoop=1;jettySize=auto;html=1;endArrow=none;endFill=0;strokeColor=#99CCFF;strokeWidth=1;entryX=0;entryY=0;entryDx=15;entryDy=0;entryPerimeter=0;exitX=0.65;exitY=0.975;exitDx=0;exitDy=0;exitPerimeter=0;" parent="1" target="qc3atoFF0dB7BFC949ch-388" edge="1">
          <mxGeometry x="171.66000000000008" y="2252.4" as="geometry">
            <mxPoint x="289.46000000000004" y="2323.84" as="targetPoint" />
            <mxPoint x="253.5" y="2261" as="sourcePoint" />
          </mxGeometry>
        </mxCell>
        <mxCell id="qc3atoFF0dB7BFC949ch-388" value="" style="verticalLabelPosition=bottom;verticalAlign=top;html=1;shape=mxgraph.basic.acute_triangle;dx=0.5;fillColor=#ffe6cc;strokeColor=#d79b00;" parent="1" vertex="1">
          <mxGeometry x="257.5" y="2291" width="30" height="50" as="geometry" />
        </mxCell>
        <mxCell id="qc3atoFF0dB7BFC949ch-389" value="&lt;font face=&quot;Lucida Console&quot;&gt;T3&lt;/font&gt;" style="text;html=1;strokeColor=none;fillColor=none;align=center;verticalAlign=middle;whiteSpace=wrap;rounded=0;" parent="1" vertex="1">
          <mxGeometry x="252.5" y="2321" width="40" height="20" as="geometry" />
        </mxCell>
        <mxCell id="qc3atoFF0dB7BFC949ch-390" value="" style="verticalLabelPosition=bottom;verticalAlign=top;html=1;shape=mxgraph.basic.acute_triangle;dx=0.5;fillColor=#ffe6cc;strokeColor=#d79b00;" parent="1" vertex="1">
          <mxGeometry x="207.5" y="2291" width="30" height="50" as="geometry" />
        </mxCell>
        <mxCell id="qc3atoFF0dB7BFC949ch-391" value="&lt;font face=&quot;Lucida Console&quot;&gt;T2&lt;/font&gt;" style="text;html=1;strokeColor=none;fillColor=none;align=center;verticalAlign=middle;whiteSpace=wrap;rounded=0;" parent="1" vertex="1">
          <mxGeometry x="203.5" y="2321" width="40" height="20" as="geometry" />
        </mxCell>
        <mxCell id="qc3atoFF0dB7BFC949ch-395" value="" style="shape=flexArrow;endArrow=classic;html=1;strokeWidth=1;" parent="1" edge="1">
          <mxGeometry width="50" height="50" relative="1" as="geometry">
            <mxPoint x="330" y="2204" as="sourcePoint" />
            <mxPoint x="440" y="2204" as="targetPoint" />
          </mxGeometry>
        </mxCell>
        <mxCell id="qc3atoFF0dB7BFC949ch-396" value="A Left Rotate" style="text;html=1;strokeColor=none;fillColor=none;align=center;verticalAlign=middle;whiteSpace=wrap;rounded=0;" parent="1" vertex="1">
          <mxGeometry x="335" y="2178" width="84" height="20" as="geometry" />
        </mxCell>
        <mxCell id="qc3atoFF0dB7BFC949ch-397" value="" style="shape=flexArrow;endArrow=classic;html=1;strokeWidth=1;" parent="1" edge="1">
          <mxGeometry width="50" height="50" relative="1" as="geometry">
            <mxPoint x="667" y="2207.5" as="sourcePoint" />
            <mxPoint x="777" y="2207.5" as="targetPoint" />
          </mxGeometry>
        </mxCell>
        <mxCell id="qc3atoFF0dB7BFC949ch-398" value="C Right Rotate" style="text;html=1;strokeColor=none;fillColor=none;align=center;verticalAlign=middle;whiteSpace=wrap;rounded=0;" parent="1" vertex="1">
          <mxGeometry x="669" y="2181.5" width="86" height="20" as="geometry" />
        </mxCell>
        <mxCell id="qc3atoFF0dB7BFC949ch-399" style="edgeStyle=none;rounded=0;jumpStyle=none;orthogonalLoop=1;jettySize=auto;html=1;exitX=0;exitY=0;exitDx=15;exitDy=0;endArrow=none;endFill=0;strokeColor=#99CCFF;strokeWidth=1;exitPerimeter=0;entryX=0.286;entryY=0.935;entryDx=0;entryDy=0;entryPerimeter=0;" parent="1" source="qc3atoFF0dB7BFC949ch-414" target="qc3atoFF0dB7BFC949ch-407" edge="1">
          <mxGeometry x="783.2" y="2455" as="geometry">
            <mxPoint x="874.96" y="2629.08" as="sourcePoint" />
            <mxPoint x="905.1599999999999" y="2575.2" as="targetPoint" />
          </mxGeometry>
        </mxCell>
        <mxCell id="qc3atoFF0dB7BFC949ch-400" style="edgeStyle=none;rounded=0;jumpStyle=none;orthogonalLoop=1;jettySize=auto;html=1;endArrow=none;endFill=0;strokeColor=#99CCFF;strokeWidth=1;entryX=0;entryY=0;entryDx=15;entryDy=0;entryPerimeter=0;exitX=0.726;exitY=0.909;exitDx=0;exitDy=0;exitPerimeter=0;" parent="1" source="qc3atoFF0dB7BFC949ch-407" target="qc3atoFF0dB7BFC949ch-405" edge="1">
          <mxGeometry x="833.1600000000001" y="2567.4" as="geometry">
            <mxPoint x="950.96" y="2638.84" as="targetPoint" />
            <mxPoint x="914.9999999999998" y="2576" as="sourcePoint" />
          </mxGeometry>
        </mxCell>
        <mxCell id="qc3atoFF0dB7BFC949ch-401" style="edgeStyle=none;rounded=0;jumpStyle=none;orthogonalLoop=1;jettySize=auto;html=1;endArrow=none;endFill=0;strokeColor=#99CCFF;strokeWidth=1;exitX=0.689;exitY=0.97;exitDx=0;exitDy=0;exitPerimeter=0;entryX=0.274;entryY=0.069;entryDx=0;entryDy=0;entryPerimeter=0;" parent="1" source="qc3atoFF0dB7BFC949ch-408" target="qc3atoFF0dB7BFC949ch-407" edge="1">
          <mxGeometry x="790.1600000000001" y="2479.4" as="geometry">
            <mxPoint x="903" y="2536" as="targetPoint" />
            <mxPoint x="872" y="2488" as="sourcePoint" />
          </mxGeometry>
        </mxCell>
        <mxCell id="qc3atoFF0dB7BFC949ch-402" style="edgeStyle=none;rounded=0;jumpStyle=none;orthogonalLoop=1;jettySize=auto;html=1;exitX=0.769;exitY=0.077;exitDx=0;exitDy=0;endArrow=none;endFill=0;strokeColor=#99CCFF;strokeWidth=1;exitPerimeter=0;entryX=0.27;entryY=0.95;entryDx=0;entryDy=0;entryPerimeter=0;" parent="1" source="qc3atoFF0dB7BFC949ch-409" target="qc3atoFF0dB7BFC949ch-408" edge="1">
          <mxGeometry x="735" y="2366" as="geometry">
            <mxPoint x="856" y="2488" as="targetPoint" />
          </mxGeometry>
        </mxCell>
        <mxCell id="qc3atoFF0dB7BFC949ch-403" style="edgeStyle=none;rounded=0;jumpStyle=none;orthogonalLoop=1;jettySize=auto;html=1;exitX=0;exitY=0;exitDx=15;exitDy=0;endArrow=none;endFill=0;strokeColor=#99CCFF;strokeWidth=1;exitPerimeter=0;entryX=0.304;entryY=0.955;entryDx=0;entryDy=0;entryPerimeter=0;" parent="1" source="qc3atoFF0dB7BFC949ch-412" target="qc3atoFF0dB7BFC949ch-409" edge="1">
          <mxGeometry x="686.2" y="2455" as="geometry">
            <mxPoint x="777.96" y="2629.08" as="sourcePoint" />
            <mxPoint x="806.9999999999998" y="2577" as="targetPoint" />
          </mxGeometry>
        </mxCell>
        <mxCell id="qc3atoFF0dB7BFC949ch-404" style="edgeStyle=none;rounded=0;jumpStyle=none;orthogonalLoop=1;jettySize=auto;html=1;endArrow=none;endFill=0;strokeColor=#99CCFF;strokeWidth=1;entryX=0;entryY=0;entryDx=15;entryDy=0;entryPerimeter=0;exitX=0.65;exitY=0.975;exitDx=0;exitDy=0;exitPerimeter=0;" parent="1" source="qc3atoFF0dB7BFC949ch-409" target="qc3atoFF0dB7BFC949ch-410" edge="1">
          <mxGeometry x="740.1600000000001" y="2567.4" as="geometry">
            <mxPoint x="857.96" y="2638.84" as="targetPoint" />
            <mxPoint x="822" y="2576" as="sourcePoint" />
          </mxGeometry>
        </mxCell>
        <mxCell id="qc3atoFF0dB7BFC949ch-405" value="" style="verticalLabelPosition=bottom;verticalAlign=top;html=1;shape=mxgraph.basic.acute_triangle;dx=0.5;fillColor=#ffe6cc;strokeColor=#d79b00;" parent="1" vertex="1">
          <mxGeometry x="925" y="2606" width="30" height="50" as="geometry" />
        </mxCell>
        <mxCell id="qc3atoFF0dB7BFC949ch-406" value="&lt;font face=&quot;Lucida Console&quot;&gt;T2&lt;/font&gt;" style="text;html=1;strokeColor=none;fillColor=none;align=center;verticalAlign=middle;whiteSpace=wrap;rounded=0;" parent="1" vertex="1">
          <mxGeometry x="920" y="2636" width="40" height="20" as="geometry" />
        </mxCell>
        <mxCell id="qc3atoFF0dB7BFC949ch-407" value="&lt;font style=&quot;font-size: 24px&quot; face=&quot;Lucida Console&quot;&gt;C&lt;/font&gt;" style="ellipse;whiteSpace=wrap;html=1;aspect=fixed;fillColor=#d5e8d4;strokeColor=#82b366;" parent="1" vertex="1">
          <mxGeometry x="894" y="2537" width="40" height="40" as="geometry" />
        </mxCell>
        <mxCell id="qc3atoFF0dB7BFC949ch-408" value="&lt;font style=&quot;font-size: 24px&quot; face=&quot;Lucida Console&quot;&gt;B&lt;/font&gt;" style="ellipse;whiteSpace=wrap;html=1;aspect=fixed;fillColor=#d5e8d4;strokeColor=#82b366;" parent="1" vertex="1">
          <mxGeometry x="845" y="2450" width="40" height="40" as="geometry" />
        </mxCell>
        <mxCell id="qc3atoFF0dB7BFC949ch-409" value="&lt;font style=&quot;font-size: 24px&quot; face=&quot;Lucida Console&quot;&gt;A&lt;/font&gt;" style="ellipse;whiteSpace=wrap;html=1;aspect=fixed;fillColor=#d5e8d4;strokeColor=#82b366;" parent="1" vertex="1">
          <mxGeometry x="796" y="2537" width="40" height="40" as="geometry" />
        </mxCell>
        <mxCell id="qc3atoFF0dB7BFC949ch-410" value="" style="verticalLabelPosition=bottom;verticalAlign=top;html=1;shape=mxgraph.basic.acute_triangle;dx=0.5;fillColor=#ffe6cc;strokeColor=#d79b00;" parent="1" vertex="1">
          <mxGeometry x="826" y="2606" width="30" height="50" as="geometry" />
        </mxCell>
        <mxCell id="qc3atoFF0dB7BFC949ch-411" value="&lt;font face=&quot;Lucida Console&quot;&gt;T3&lt;/font&gt;" style="text;html=1;strokeColor=none;fillColor=none;align=center;verticalAlign=middle;whiteSpace=wrap;rounded=0;" parent="1" vertex="1">
          <mxGeometry x="821" y="2636" width="40" height="20" as="geometry" />
        </mxCell>
        <mxCell id="qc3atoFF0dB7BFC949ch-412" value="" style="verticalLabelPosition=bottom;verticalAlign=top;html=1;shape=mxgraph.basic.acute_triangle;dx=0.5;fillColor=#ffe6cc;strokeColor=#d79b00;" parent="1" vertex="1">
          <mxGeometry x="776" y="2606" width="30" height="50" as="geometry" />
        </mxCell>
        <mxCell id="qc3atoFF0dB7BFC949ch-413" value="&lt;font face=&quot;Lucida Console&quot;&gt;T4&lt;/font&gt;" style="text;html=1;strokeColor=none;fillColor=none;align=center;verticalAlign=middle;whiteSpace=wrap;rounded=0;" parent="1" vertex="1">
          <mxGeometry x="772" y="2636" width="40" height="20" as="geometry" />
        </mxCell>
        <mxCell id="qc3atoFF0dB7BFC949ch-414" value="" style="verticalLabelPosition=bottom;verticalAlign=top;html=1;shape=mxgraph.basic.acute_triangle;dx=0.5;fillColor=#ffe6cc;strokeColor=#d79b00;" parent="1" vertex="1">
          <mxGeometry x="873" y="2606" width="30" height="50" as="geometry" />
        </mxCell>
        <mxCell id="qc3atoFF0dB7BFC949ch-415" value="&lt;font face=&quot;Lucida Console&quot;&gt;T1&lt;/font&gt;" style="text;html=1;strokeColor=none;fillColor=none;align=center;verticalAlign=middle;whiteSpace=wrap;rounded=0;" parent="1" vertex="1">
          <mxGeometry x="869" y="2636" width="40" height="20" as="geometry" />
        </mxCell>
        <mxCell id="qc3atoFF0dB7BFC949ch-416" value="" style="shape=flexArrow;endArrow=classic;html=1;strokeWidth=1;" parent="1" edge="1">
          <mxGeometry width="50" height="50" relative="1" as="geometry">
            <mxPoint x="657" y="2556.97" as="sourcePoint" />
            <mxPoint x="767" y="2556.97" as="targetPoint" />
          </mxGeometry>
        </mxCell>
        <mxCell id="qc3atoFF0dB7BFC949ch-417" value="A Left Rotate" style="text;html=1;strokeColor=none;fillColor=none;align=center;verticalAlign=middle;whiteSpace=wrap;rounded=0;" parent="1" vertex="1">
          <mxGeometry x="661" y="2530.2699999999995" width="84" height="20" as="geometry" />
        </mxCell>
        <mxCell id="qc3atoFF0dB7BFC949ch-436" style="edgeStyle=none;rounded=0;jumpStyle=none;orthogonalLoop=1;jettySize=auto;html=1;exitX=0.712;exitY=0.039;exitDx=0;exitDy=0;endArrow=none;endFill=0;strokeColor=#99CCFF;strokeWidth=1;exitPerimeter=0;entryX=0.277;entryY=0.954;entryDx=0;entryDy=0;entryPerimeter=0;" parent="1" source="qc3atoFF0dB7BFC949ch-453" target="qc3atoFF0dB7BFC949ch-441" edge="1">
          <mxGeometry x="99.19999999999999" y="2406.8" as="geometry">
            <mxPoint x="204" y="2557.8" as="sourcePoint" />
            <mxPoint x="221.16000000000008" y="2527" as="targetPoint" />
          </mxGeometry>
        </mxCell>
        <mxCell id="qc3atoFF0dB7BFC949ch-437" style="edgeStyle=none;rounded=0;jumpStyle=none;orthogonalLoop=1;jettySize=auto;html=1;exitX=0;exitY=0;exitDx=15;exitDy=0;endArrow=none;endFill=0;strokeColor=#99CCFF;strokeWidth=1;exitPerimeter=0;entryX=0.299;entryY=0.96;entryDx=0;entryDy=0;entryPerimeter=0;" parent="1" source="qc3atoFF0dB7BFC949ch-449" target="qc3atoFF0dB7BFC949ch-443" edge="1">
          <mxGeometry x="49.19999999999999" y="2317.8" as="geometry">
            <mxPoint x="140.95999999999998" y="2491.88" as="sourcePoint" />
            <mxPoint x="171.16000000000008" y="2438" as="targetPoint" />
          </mxGeometry>
        </mxCell>
        <mxCell id="qc3atoFF0dB7BFC949ch-439" style="edgeStyle=none;rounded=0;jumpStyle=none;orthogonalLoop=1;jettySize=auto;html=1;endArrow=none;endFill=0;strokeColor=#99CCFF;strokeWidth=1;entryX=0;entryY=0;entryDx=15;entryDy=0;entryPerimeter=0;exitX=0.731;exitY=0.953;exitDx=0;exitDy=0;exitPerimeter=0;" parent="1" source="qc3atoFF0dB7BFC949ch-441" target="qc3atoFF0dB7BFC949ch-445" edge="1">
          <mxGeometry x="157.16000000000008" y="2518.7999999999997" as="geometry">
            <mxPoint x="274.96000000000004" y="2590.2400000000002" as="targetPoint" />
            <mxPoint x="239.12000000000012" y="2527.3999999999996" as="sourcePoint" />
          </mxGeometry>
        </mxCell>
        <mxCell id="qc3atoFF0dB7BFC949ch-441" value="&lt;font style=&quot;font-size: 24px&quot; face=&quot;Lucida Console&quot;&gt;C&lt;/font&gt;" style="ellipse;whiteSpace=wrap;html=1;aspect=fixed;fillColor=#d5e8d4;strokeColor=#82b366;direction=east;" parent="1" vertex="1">
          <mxGeometry x="210" y="2489" width="40" height="40" as="geometry" />
        </mxCell>
        <mxCell id="qc3atoFF0dB7BFC949ch-442" style="edgeStyle=none;rounded=0;jumpStyle=none;orthogonalLoop=1;jettySize=auto;html=1;endArrow=none;endFill=0;strokeColor=#99CCFF;strokeWidth=1;entryX=0.249;entryY=0.077;entryDx=0;entryDy=0;entryPerimeter=0;exitX=0.749;exitY=0.938;exitDx=0;exitDy=0;exitPerimeter=0;" parent="1" source="qc3atoFF0dB7BFC949ch-443" target="qc3atoFF0dB7BFC949ch-441" edge="1">
          <mxGeometry x="158" y="2518" as="geometry">
            <mxPoint x="279" y="2640" as="targetPoint" />
            <mxPoint x="191" y="2436" as="sourcePoint" />
          </mxGeometry>
        </mxCell>
        <mxCell id="qc3atoFF0dB7BFC949ch-443" value="&lt;font style=&quot;font-size: 24px&quot; face=&quot;Lucida Console&quot;&gt;A&lt;/font&gt;" style="ellipse;whiteSpace=wrap;html=1;aspect=fixed;fillColor=#d5e8d4;strokeColor=#82b366;direction=east;" parent="1" vertex="1">
          <mxGeometry x="159" y="2400" width="40" height="40" as="geometry" />
        </mxCell>
        <mxCell id="qc3atoFF0dB7BFC949ch-445" value="" style="verticalLabelPosition=bottom;verticalAlign=top;html=1;shape=mxgraph.basic.acute_triangle;dx=0.5;fillColor=#ffe6cc;strokeColor=#d79b00;" parent="1" vertex="1">
          <mxGeometry x="242" y="2557.4" width="30" height="50" as="geometry" />
        </mxCell>
        <mxCell id="qc3atoFF0dB7BFC949ch-446" value="&lt;font face=&quot;Lucida Console&quot;&gt;T2&lt;/font&gt;" style="text;html=1;strokeColor=none;fillColor=none;align=center;verticalAlign=middle;whiteSpace=wrap;rounded=0;" parent="1" vertex="1">
          <mxGeometry x="238" y="2587.4" width="40" height="20" as="geometry" />
        </mxCell>
        <mxCell id="qc3atoFF0dB7BFC949ch-449" value="" style="verticalLabelPosition=bottom;verticalAlign=top;html=1;shape=mxgraph.basic.acute_triangle;dx=0.5;fillColor=#ffe6cc;strokeColor=#d79b00;" parent="1" vertex="1">
          <mxGeometry x="139" y="2468.8" width="30" height="50" as="geometry" />
        </mxCell>
        <mxCell id="qc3atoFF0dB7BFC949ch-450" value="&lt;font face=&quot;Lucida Console&quot;&gt;T4&lt;/font&gt;" style="text;html=1;strokeColor=none;fillColor=none;align=center;verticalAlign=middle;whiteSpace=wrap;rounded=0;" parent="1" vertex="1">
          <mxGeometry x="135" y="2498.8" width="40" height="20" as="geometry" />
        </mxCell>
        <mxCell id="qc3atoFF0dB7BFC949ch-453" value="&lt;font style=&quot;font-size: 24px&quot; face=&quot;Lucida Console&quot;&gt;B&lt;/font&gt;" style="ellipse;whiteSpace=wrap;html=1;aspect=fixed;fillColor=#d5e8d4;strokeColor=#82b366;direction=east;" parent="1" vertex="1">
          <mxGeometry x="159" y="2586" width="40" height="40" as="geometry" />
        </mxCell>
        <mxCell id="qc3atoFF0dB7BFC949ch-459" value="" style="verticalLabelPosition=bottom;verticalAlign=top;html=1;shape=mxgraph.basic.acute_triangle;dx=0.5;fillColor=#ffe6cc;strokeColor=#d79b00;" parent="1" vertex="1">
          <mxGeometry x="190" y="2654.8" width="30" height="50" as="geometry" />
        </mxCell>
        <mxCell id="qc3atoFF0dB7BFC949ch-460" value="&lt;font face=&quot;Lucida Console&quot;&gt;T1&lt;/font&gt;" style="text;html=1;strokeColor=none;fillColor=none;align=center;verticalAlign=middle;whiteSpace=wrap;rounded=0;" parent="1" vertex="1">
          <mxGeometry x="185" y="2684.8" width="40" height="20" as="geometry" />
        </mxCell>
        <mxCell id="qc3atoFF0dB7BFC949ch-461" value="" style="verticalLabelPosition=bottom;verticalAlign=top;html=1;shape=mxgraph.basic.acute_triangle;dx=0.5;fillColor=#ffe6cc;strokeColor=#d79b00;" parent="1" vertex="1">
          <mxGeometry x="140" y="2654.8" width="30" height="50" as="geometry" />
        </mxCell>
        <mxCell id="qc3atoFF0dB7BFC949ch-462" value="&lt;font face=&quot;Lucida Console&quot;&gt;T3&lt;/font&gt;" style="text;html=1;strokeColor=none;fillColor=none;align=center;verticalAlign=middle;whiteSpace=wrap;rounded=0;" parent="1" vertex="1">
          <mxGeometry x="136" y="2684.8" width="40" height="20" as="geometry" />
        </mxCell>
        <mxCell id="qc3atoFF0dB7BFC949ch-464" value="" style="shape=flexArrow;endArrow=classic;html=1;strokeWidth=1;" parent="1" edge="1">
          <mxGeometry width="50" height="50" relative="1" as="geometry">
            <mxPoint x="329" y="2556.97" as="sourcePoint" />
            <mxPoint x="439" y="2556.97" as="targetPoint" />
          </mxGeometry>
        </mxCell>
        <mxCell id="qc3atoFF0dB7BFC949ch-465" value="C Right Rotate" style="text;html=1;strokeColor=none;fillColor=none;align=center;verticalAlign=middle;whiteSpace=wrap;rounded=0;" parent="1" vertex="1">
          <mxGeometry x="333" y="2530.2699999999995" width="84" height="20" as="geometry" />
        </mxCell>
        <mxCell id="qc3atoFF0dB7BFC949ch-466" value="&lt;font style=&quot;font-size: 24px&quot; face=&quot;Lucida Console&quot;&gt;C&lt;/font&gt;" style="ellipse;whiteSpace=wrap;html=1;aspect=fixed;fillColor=#d5e8d4;strokeColor=#82b366;" parent="1" vertex="1">
          <mxGeometry x="3" y="1240" width="40" height="40" as="geometry" />
        </mxCell>
        <mxCell id="qc3atoFF0dB7BFC949ch-467" value="&lt;font style=&quot;font-size: 24px&quot; face=&quot;Lucida Console&quot;&gt;C&lt;/font&gt;" style="ellipse;whiteSpace=wrap;html=1;aspect=fixed;fillColor=#d5e8d4;strokeColor=#82b366;direction=east;" parent="1" vertex="1">
          <mxGeometry x="485" y="2800" width="40" height="40" as="geometry" />
        </mxCell>
        <mxCell id="qc3atoFF0dB7BFC949ch-468" value="对A节点执行左旋" style="text;html=1;strokeColor=none;fillColor=none;align=center;verticalAlign=middle;whiteSpace=wrap;rounded=0;" parent="1" vertex="1">
          <mxGeometry x="493" y="1980" width="129" height="20" as="geometry" />
        </mxCell>
        <mxCell id="qc3atoFF0dB7BFC949ch-469" value="对C节点执行右旋" style="text;html=1;strokeColor=none;fillColor=none;align=center;verticalAlign=middle;whiteSpace=wrap;rounded=0;" parent="1" vertex="1">
          <mxGeometry x="493" y="1620" width="129" height="20" as="geometry" />
        </mxCell>
        <mxCell id="dQleNWPt43I6O8RYRmCn-1" value="height=1 factor=0" style="text;html=1;strokeColor=none;fillColor=none;align=center;verticalAlign=middle;whiteSpace=wrap;rounded=0;" vertex="1" parent="1">
          <mxGeometry x="36" y="1503" width="120" height="20" as="geometry" />
        </mxCell>
        <mxCell id="dQleNWPt43I6O8RYRmCn-2" value="height=2 factor=1" style="text;html=1;strokeColor=none;fillColor=none;align=center;verticalAlign=middle;whiteSpace=wrap;rounded=0;" vertex="1" parent="1">
          <mxGeometry x="83" y="1416" width="120" height="20" as="geometry" />
        </mxCell>
        <mxCell id="dQleNWPt43I6O8RYRmCn-3" value="height=3 factor=2" style="text;html=1;strokeColor=none;fillColor=none;align=center;verticalAlign=middle;whiteSpace=wrap;rounded=0;" vertex="1" parent="1">
          <mxGeometry x="129" y="1330" width="120" height="20" as="geometry" />
        </mxCell>
        <mxCell id="dQleNWPt43I6O8RYRmCn-4" value="height=1 factor=0" style="text;html=1;strokeColor=none;fillColor=none;align=center;verticalAlign=middle;whiteSpace=wrap;rounded=0;" vertex="1" parent="1">
          <mxGeometry x="261" y="2232" width="120" height="20" as="geometry" />
        </mxCell>
        <mxCell id="dQleNWPt43I6O8RYRmCn-5" value="height=2 factor=-1" style="text;html=1;strokeColor=none;fillColor=none;align=center;verticalAlign=middle;whiteSpace=wrap;rounded=0;" vertex="1" parent="1">
          <mxGeometry x="63" y="2145" width="120" height="20" as="geometry" />
        </mxCell>
        <mxCell id="dQleNWPt43I6O8RYRmCn-6" value="height=3 factor=2" style="text;html=1;strokeColor=none;fillColor=none;align=center;verticalAlign=middle;whiteSpace=wrap;rounded=0;" vertex="1" parent="1">
          <mxGeometry x="115" y="2059" width="120" height="20" as="geometry" />
        </mxCell>
        <mxCell id="dQleNWPt43I6O8RYRmCn-7" value="height=1 factor=0" style="text;html=1;strokeColor=none;fillColor=none;align=center;verticalAlign=middle;whiteSpace=wrap;rounded=0;" vertex="1" parent="1">
          <mxGeometry x="261" y="1856" width="120" height="20" as="geometry" />
        </mxCell>
        <mxCell id="dQleNWPt43I6O8RYRmCn-8" value="height=2 factor=-1" style="text;html=1;strokeColor=none;fillColor=none;align=center;verticalAlign=middle;whiteSpace=wrap;rounded=0;" vertex="1" parent="1">
          <mxGeometry x="211" y="1758.8" width="120" height="20" as="geometry" />
        </mxCell>
        <mxCell id="dQleNWPt43I6O8RYRmCn-9" value="height=3 factor=-2" style="text;html=1;strokeColor=none;fillColor=none;align=center;verticalAlign=middle;whiteSpace=wrap;rounded=0;" vertex="1" parent="1">
          <mxGeometry x="161" y="1670" width="120" height="20" as="geometry" />
        </mxCell>
        <mxCell id="dQleNWPt43I6O8RYRmCn-10" value="height=1 factor=0" style="text;html=1;strokeColor=none;fillColor=none;align=center;verticalAlign=middle;whiteSpace=wrap;rounded=0;" vertex="1" parent="1">
          <mxGeometry x="42" y="2596" width="120" height="20" as="geometry" />
        </mxCell>
        <mxCell id="dQleNWPt43I6O8RYRmCn-11" value="height=2 factor=1" style="text;html=1;strokeColor=none;fillColor=none;align=center;verticalAlign=middle;whiteSpace=wrap;rounded=0;" vertex="1" parent="1">
          <mxGeometry x="242" y="2498.8" width="120" height="20" as="geometry" />
        </mxCell>
        <mxCell id="dQleNWPt43I6O8RYRmCn-12" value="height=3 factor=-2" style="text;html=1;strokeColor=none;fillColor=none;align=center;verticalAlign=middle;whiteSpace=wrap;rounded=0;" vertex="1" parent="1">
          <mxGeometry x="194" y="2410" width="120" height="20" as="geometry" />
        </mxCell>
      </root>
    </mxGraphModel>
  </diagram>
  <diagram id="Wmz8Ho3hBF9KFU8CWixC" name="BinaryIndexTree">
    <mxGraphModel dx="813" dy="424" grid="1" gridSize="10" guides="1" tooltips="1" connect="1" arrows="1" fold="1" page="1" pageScale="1" pageWidth="3300" pageHeight="4681" math="0" shadow="0">
      <root>
        <mxCell id="keua-QnTrZKZmBUAcRpy-0" />
        <mxCell id="keua-QnTrZKZmBUAcRpy-1" parent="keua-QnTrZKZmBUAcRpy-0" />
        <mxCell id="CH3tSqCppN7Co7tws9gJ-0" style="edgeStyle=orthogonalEdgeStyle;orthogonalLoop=1;jettySize=auto;html=1;exitX=0.5;exitY=0;exitDx=0;exitDy=0;entryX=0.5;entryY=1;entryDx=0;entryDy=0;startArrow=none;startFill=0;rounded=0;endArrow=none;endFill=0;strokeWidth=3;strokeColor=#99CCFF;" parent="keua-QnTrZKZmBUAcRpy-1" source="CH3tSqCppN7Co7tws9gJ-16" target="CH3tSqCppN7Co7tws9gJ-15" edge="1">
          <mxGeometry relative="1" as="geometry" />
        </mxCell>
        <mxCell id="CH3tSqCppN7Co7tws9gJ-1" style="edgeStyle=orthogonalEdgeStyle;rounded=1;sketch=0;jumpStyle=none;orthogonalLoop=1;jettySize=auto;html=1;exitX=0.5;exitY=0;exitDx=0;exitDy=0;entryX=0.5;entryY=1;entryDx=0;entryDy=0;shadow=0;startArrow=none;startFill=0;endArrow=none;endFill=0;strokeColor=#99CCFF;strokeWidth=3;" parent="keua-QnTrZKZmBUAcRpy-1" source="CH3tSqCppN7Co7tws9gJ-30" target="CH3tSqCppN7Co7tws9gJ-29" edge="1">
          <mxGeometry relative="1" as="geometry" />
        </mxCell>
        <mxCell id="CH3tSqCppN7Co7tws9gJ-2" style="edgeStyle=orthogonalEdgeStyle;rounded=0;sketch=0;jumpStyle=none;orthogonalLoop=1;jettySize=auto;html=1;exitX=0.5;exitY=0;exitDx=0;exitDy=0;entryX=0.5;entryY=1;entryDx=0;entryDy=0;shadow=0;startArrow=none;startFill=0;endArrow=none;endFill=0;strokeColor=#99CCFF;strokeWidth=3;" parent="keua-QnTrZKZmBUAcRpy-1" source="CH3tSqCppN7Co7tws9gJ-27" target="CH3tSqCppN7Co7tws9gJ-28" edge="1">
          <mxGeometry relative="1" as="geometry" />
        </mxCell>
        <mxCell id="CH3tSqCppN7Co7tws9gJ-3" style="edgeStyle=orthogonalEdgeStyle;rounded=1;sketch=0;jumpStyle=none;orthogonalLoop=1;jettySize=auto;html=1;exitX=0.5;exitY=0;exitDx=0;exitDy=0;entryX=0.5;entryY=1;entryDx=0;entryDy=0;shadow=0;startArrow=none;startFill=0;endArrow=none;endFill=0;strokeColor=#99CCFF;strokeWidth=3;" parent="keua-QnTrZKZmBUAcRpy-1" source="CH3tSqCppN7Co7tws9gJ-26" target="CH3tSqCppN7Co7tws9gJ-25" edge="1">
          <mxGeometry relative="1" as="geometry" />
        </mxCell>
        <mxCell id="CH3tSqCppN7Co7tws9gJ-4" style="edgeStyle=orthogonalEdgeStyle;rounded=0;sketch=0;jumpStyle=none;orthogonalLoop=1;jettySize=auto;html=1;exitX=0.5;exitY=0;exitDx=0;exitDy=0;entryX=0.5;entryY=1;entryDx=0;entryDy=0;shadow=0;startArrow=none;startFill=0;endArrow=none;endFill=0;strokeColor=#99CCFF;strokeWidth=3;" parent="keua-QnTrZKZmBUAcRpy-1" source="CH3tSqCppN7Co7tws9gJ-24" target="CH3tSqCppN7Co7tws9gJ-23" edge="1">
          <mxGeometry relative="1" as="geometry" />
        </mxCell>
        <mxCell id="CH3tSqCppN7Co7tws9gJ-5" style="edgeStyle=orthogonalEdgeStyle;rounded=1;sketch=0;jumpStyle=none;orthogonalLoop=1;jettySize=auto;html=1;exitX=0.5;exitY=0;exitDx=0;exitDy=0;entryX=0.5;entryY=1;entryDx=0;entryDy=0;shadow=0;startArrow=none;startFill=0;endArrow=none;endFill=0;strokeColor=#99CCFF;strokeWidth=3;" parent="keua-QnTrZKZmBUAcRpy-1" source="CH3tSqCppN7Co7tws9gJ-22" target="CH3tSqCppN7Co7tws9gJ-21" edge="1">
          <mxGeometry relative="1" as="geometry" />
        </mxCell>
        <mxCell id="CH3tSqCppN7Co7tws9gJ-6" style="edgeStyle=orthogonalEdgeStyle;rounded=0;sketch=0;jumpStyle=none;orthogonalLoop=1;jettySize=auto;html=1;exitX=0.5;exitY=0;exitDx=0;exitDy=0;entryX=0.5;entryY=1;entryDx=0;entryDy=0;shadow=0;startArrow=none;startFill=0;endArrow=none;endFill=0;strokeColor=#99CCFF;strokeWidth=3;" parent="keua-QnTrZKZmBUAcRpy-1" source="CH3tSqCppN7Co7tws9gJ-19" target="CH3tSqCppN7Co7tws9gJ-20" edge="1">
          <mxGeometry relative="1" as="geometry" />
        </mxCell>
        <mxCell id="CH3tSqCppN7Co7tws9gJ-7" style="edgeStyle=orthogonalEdgeStyle;rounded=0;sketch=0;jumpStyle=none;orthogonalLoop=1;jettySize=auto;html=1;exitX=0.5;exitY=0;exitDx=0;exitDy=0;entryX=0.5;entryY=1;entryDx=0;entryDy=0;shadow=0;startArrow=none;startFill=0;endArrow=none;endFill=0;strokeColor=#99CCFF;strokeWidth=3;" parent="keua-QnTrZKZmBUAcRpy-1" source="CH3tSqCppN7Co7tws9gJ-18" target="CH3tSqCppN7Co7tws9gJ-17" edge="1">
          <mxGeometry relative="1" as="geometry" />
        </mxCell>
        <mxCell id="CH3tSqCppN7Co7tws9gJ-8" style="edgeStyle=orthogonalEdgeStyle;rounded=1;sketch=0;jumpStyle=none;orthogonalLoop=1;jettySize=auto;html=1;exitX=0.5;exitY=0;exitDx=0;exitDy=0;entryX=0;entryY=0.5;entryDx=0;entryDy=0;shadow=0;startArrow=none;startFill=0;endArrow=none;endFill=0;strokeColor=#99CCFF;strokeWidth=3;" parent="keua-QnTrZKZmBUAcRpy-1" source="CH3tSqCppN7Co7tws9gJ-28" target="CH3tSqCppN7Co7tws9gJ-25" edge="1">
          <mxGeometry relative="1" as="geometry" />
        </mxCell>
        <mxCell id="CH3tSqCppN7Co7tws9gJ-9" style="edgeStyle=orthogonalEdgeStyle;rounded=1;sketch=0;jumpStyle=none;orthogonalLoop=1;jettySize=auto;html=1;exitX=0.5;exitY=0;exitDx=0;exitDy=0;entryX=0;entryY=0.5;entryDx=0;entryDy=0;shadow=0;startArrow=none;startFill=0;endArrow=none;endFill=0;strokeColor=#99CCFF;strokeWidth=3;" parent="keua-QnTrZKZmBUAcRpy-1" source="CH3tSqCppN7Co7tws9gJ-25" target="CH3tSqCppN7Co7tws9gJ-17" edge="1">
          <mxGeometry relative="1" as="geometry" />
        </mxCell>
        <mxCell id="CH3tSqCppN7Co7tws9gJ-10" style="edgeStyle=orthogonalEdgeStyle;rounded=1;sketch=0;jumpStyle=none;orthogonalLoop=1;jettySize=auto;html=1;exitX=0.5;exitY=0;exitDx=0;exitDy=0;shadow=0;startArrow=none;startFill=0;endArrow=none;endFill=0;strokeColor=#99CCFF;strokeWidth=3;" parent="keua-QnTrZKZmBUAcRpy-1" source="CH3tSqCppN7Co7tws9gJ-23" target="CH3tSqCppN7Co7tws9gJ-21" edge="1">
          <mxGeometry relative="1" as="geometry" />
        </mxCell>
        <mxCell id="CH3tSqCppN7Co7tws9gJ-11" style="edgeStyle=orthogonalEdgeStyle;rounded=1;sketch=0;jumpStyle=none;orthogonalLoop=1;jettySize=auto;html=1;exitX=0.5;exitY=0;exitDx=0;exitDy=0;entryX=0;entryY=0.5;entryDx=0;entryDy=0;shadow=0;startArrow=none;startFill=0;endArrow=none;endFill=0;strokeColor=#99CCFF;strokeWidth=3;" parent="keua-QnTrZKZmBUAcRpy-1" source="CH3tSqCppN7Co7tws9gJ-21" target="CH3tSqCppN7Co7tws9gJ-17" edge="1">
          <mxGeometry relative="1" as="geometry" />
        </mxCell>
        <mxCell id="CH3tSqCppN7Co7tws9gJ-12" style="edgeStyle=orthogonalEdgeStyle;rounded=1;sketch=0;jumpStyle=none;orthogonalLoop=1;jettySize=auto;html=1;exitX=0.5;exitY=0;exitDx=0;exitDy=0;entryX=0;entryY=0.5;entryDx=0;entryDy=0;shadow=0;startArrow=none;startFill=0;endArrow=none;endFill=0;strokeColor=#99CCFF;strokeWidth=3;" parent="keua-QnTrZKZmBUAcRpy-1" source="CH3tSqCppN7Co7tws9gJ-20" target="CH3tSqCppN7Co7tws9gJ-17" edge="1">
          <mxGeometry relative="1" as="geometry" />
        </mxCell>
        <mxCell id="CH3tSqCppN7Co7tws9gJ-13" value="" style="endArrow=none;html=1;shadow=0;strokeColor=#99CCFF;strokeWidth=3;exitX=0.5;exitY=0;exitDx=0;exitDy=0;entryX=0;entryY=0.5;entryDx=0;entryDy=0;jumpStyle=none;edgeStyle=orthogonalEdgeStyle;" parent="keua-QnTrZKZmBUAcRpy-1" source="CH3tSqCppN7Co7tws9gJ-15" target="CH3tSqCppN7Co7tws9gJ-29" edge="1">
          <mxGeometry width="50" height="50" relative="1" as="geometry">
            <mxPoint x="250" y="380" as="sourcePoint" />
            <mxPoint x="300" y="330" as="targetPoint" />
          </mxGeometry>
        </mxCell>
        <mxCell id="CH3tSqCppN7Co7tws9gJ-14" style="edgeStyle=orthogonalEdgeStyle;rounded=1;sketch=0;jumpStyle=none;orthogonalLoop=1;jettySize=auto;html=1;exitX=0.5;exitY=0;exitDx=0;exitDy=0;entryX=0;entryY=0.5;entryDx=0;entryDy=0;shadow=0;startArrow=none;startFill=0;endArrow=none;endFill=0;strokeColor=#99CCFF;strokeWidth=3;" parent="keua-QnTrZKZmBUAcRpy-1" source="CH3tSqCppN7Co7tws9gJ-29" target="CH3tSqCppN7Co7tws9gJ-25" edge="1">
          <mxGeometry relative="1" as="geometry" />
        </mxCell>
        <mxCell id="CH3tSqCppN7Co7tws9gJ-15" value="&lt;font style=&quot;font-size: 12px&quot;&gt;B1&lt;/font&gt;" style="ellipse;whiteSpace=wrap;html=1;aspect=fixed;fillColor=#d5e8d4;strokeColor=#82b366;" parent="keua-QnTrZKZmBUAcRpy-1" vertex="1">
          <mxGeometry x="150" y="430" width="40" height="40" as="geometry" />
        </mxCell>
        <mxCell id="CH3tSqCppN7Co7tws9gJ-16" value="&lt;font style=&quot;font-size: 12px&quot;&gt;A1&lt;/font&gt;" style="ellipse;whiteSpace=wrap;html=1;aspect=fixed;fillColor=#f8cecc;strokeColor=#b85450;" parent="keua-QnTrZKZmBUAcRpy-1" vertex="1">
          <mxGeometry x="150" y="488" width="40" height="40" as="geometry" />
        </mxCell>
        <mxCell id="CH3tSqCppN7Co7tws9gJ-17" value="&lt;font style=&quot;font-size: 12px&quot;&gt;B8&lt;/font&gt;" style="ellipse;whiteSpace=wrap;html=1;aspect=fixed;fillColor=#d5e8d4;strokeColor=#82b366;" parent="keua-QnTrZKZmBUAcRpy-1" vertex="1">
          <mxGeometry x="500" y="310" width="40" height="40" as="geometry" />
        </mxCell>
        <mxCell id="CH3tSqCppN7Co7tws9gJ-18" value="&lt;font style=&quot;font-size: 12px&quot;&gt;A8&lt;/font&gt;" style="ellipse;whiteSpace=wrap;html=1;aspect=fixed;fillColor=#f8cecc;strokeColor=#b85450;" parent="keua-QnTrZKZmBUAcRpy-1" vertex="1">
          <mxGeometry x="500" y="488" width="40" height="40" as="geometry" />
        </mxCell>
        <mxCell id="CH3tSqCppN7Co7tws9gJ-19" value="&lt;font style=&quot;font-size: 12px&quot;&gt;A7&lt;/font&gt;" style="ellipse;whiteSpace=wrap;html=1;aspect=fixed;fillColor=#f8cecc;strokeColor=#b85450;" parent="keua-QnTrZKZmBUAcRpy-1" vertex="1">
          <mxGeometry x="450" y="488" width="40" height="40" as="geometry" />
        </mxCell>
        <mxCell id="CH3tSqCppN7Co7tws9gJ-20" value="&lt;font style=&quot;font-size: 12px&quot;&gt;B7&lt;/font&gt;" style="ellipse;whiteSpace=wrap;html=1;aspect=fixed;fillColor=#d5e8d4;strokeColor=#82b366;" parent="keua-QnTrZKZmBUAcRpy-1" vertex="1">
          <mxGeometry x="450" y="430" width="40" height="40" as="geometry" />
        </mxCell>
        <mxCell id="CH3tSqCppN7Co7tws9gJ-21" value="&lt;font style=&quot;font-size: 12px&quot;&gt;B6&lt;/font&gt;" style="ellipse;whiteSpace=wrap;html=1;aspect=fixed;fillColor=#d5e8d4;strokeColor=#82b366;" parent="keua-QnTrZKZmBUAcRpy-1" vertex="1">
          <mxGeometry x="400" y="390" width="40" height="40" as="geometry" />
        </mxCell>
        <mxCell id="CH3tSqCppN7Co7tws9gJ-22" value="&lt;font style=&quot;font-size: 12px&quot;&gt;A6&lt;/font&gt;" style="ellipse;whiteSpace=wrap;html=1;aspect=fixed;fillColor=#f8cecc;strokeColor=#b85450;" parent="keua-QnTrZKZmBUAcRpy-1" vertex="1">
          <mxGeometry x="400" y="488" width="40" height="40" as="geometry" />
        </mxCell>
        <mxCell id="CH3tSqCppN7Co7tws9gJ-23" value="&lt;font style=&quot;font-size: 12px&quot;&gt;B5&lt;/font&gt;" style="ellipse;whiteSpace=wrap;html=1;aspect=fixed;fillColor=#d5e8d4;strokeColor=#82b366;" parent="keua-QnTrZKZmBUAcRpy-1" vertex="1">
          <mxGeometry x="350" y="430" width="40" height="40" as="geometry" />
        </mxCell>
        <mxCell id="CH3tSqCppN7Co7tws9gJ-24" value="&lt;font style=&quot;font-size: 12px&quot;&gt;A5&lt;/font&gt;" style="ellipse;whiteSpace=wrap;html=1;aspect=fixed;fillColor=#f8cecc;strokeColor=#b85450;" parent="keua-QnTrZKZmBUAcRpy-1" vertex="1">
          <mxGeometry x="350" y="488" width="40" height="40" as="geometry" />
        </mxCell>
        <mxCell id="CH3tSqCppN7Co7tws9gJ-25" value="&lt;font style=&quot;font-size: 12px&quot;&gt;B4&lt;/font&gt;" style="ellipse;whiteSpace=wrap;html=1;aspect=fixed;fillColor=#d5e8d4;strokeColor=#82b366;" parent="keua-QnTrZKZmBUAcRpy-1" vertex="1">
          <mxGeometry x="300" y="350" width="40" height="40" as="geometry" />
        </mxCell>
        <mxCell id="CH3tSqCppN7Co7tws9gJ-26" value="&lt;font style=&quot;font-size: 12px&quot;&gt;A4&lt;/font&gt;" style="ellipse;whiteSpace=wrap;html=1;aspect=fixed;fillColor=#f8cecc;strokeColor=#b85450;" parent="keua-QnTrZKZmBUAcRpy-1" vertex="1">
          <mxGeometry x="300" y="488" width="40" height="40" as="geometry" />
        </mxCell>
        <mxCell id="CH3tSqCppN7Co7tws9gJ-27" value="&lt;font style=&quot;font-size: 12px&quot;&gt;A3&lt;/font&gt;" style="ellipse;whiteSpace=wrap;html=1;aspect=fixed;fillColor=#f8cecc;strokeColor=#b85450;" parent="keua-QnTrZKZmBUAcRpy-1" vertex="1">
          <mxGeometry x="250" y="488" width="40" height="40" as="geometry" />
        </mxCell>
        <mxCell id="CH3tSqCppN7Co7tws9gJ-28" value="&lt;font style=&quot;font-size: 12px&quot;&gt;B3&lt;/font&gt;" style="ellipse;whiteSpace=wrap;html=1;aspect=fixed;fillColor=#d5e8d4;strokeColor=#82b366;" parent="keua-QnTrZKZmBUAcRpy-1" vertex="1">
          <mxGeometry x="250" y="430" width="40" height="40" as="geometry" />
        </mxCell>
        <mxCell id="CH3tSqCppN7Co7tws9gJ-29" value="&lt;font style=&quot;font-size: 12px&quot;&gt;B2&lt;/font&gt;" style="ellipse;whiteSpace=wrap;html=1;aspect=fixed;fillColor=#d5e8d4;strokeColor=#82b366;" parent="keua-QnTrZKZmBUAcRpy-1" vertex="1">
          <mxGeometry x="200" y="390" width="40" height="40" as="geometry" />
        </mxCell>
        <mxCell id="CH3tSqCppN7Co7tws9gJ-30" value="&lt;font style=&quot;font-size: 12px&quot;&gt;A2&lt;/font&gt;" style="ellipse;whiteSpace=wrap;html=1;aspect=fixed;fillColor=#f8cecc;strokeColor=#b85450;" parent="keua-QnTrZKZmBUAcRpy-1" vertex="1">
          <mxGeometry x="200" y="488" width="40" height="40" as="geometry" />
        </mxCell>
        <mxCell id="6LPtKxFnnsjCIhWQH3q3-0" value="" style="endArrow=none;dashed=1;html=1;dashPattern=1 3;strokeWidth=2;" edge="1" parent="keua-QnTrZKZmBUAcRpy-1">
          <mxGeometry width="50" height="50" relative="1" as="geometry">
            <mxPoint x="140" y="480" as="sourcePoint" />
            <mxPoint x="550" y="480" as="targetPoint" />
          </mxGeometry>
        </mxCell>
      </root>
    </mxGraphModel>
  </diagram>
</mxfile>
